<?xml version="1.0" encoding="utf-8" standalone="no"?>
<!DOCTYPE svg PUBLIC "-//W3C//DTD SVG 1.1//EN"
  "http://www.w3.org/Graphics/SVG/1.1/DTD/svg11.dtd">
<svg xmlns:xlink="http://www.w3.org/1999/xlink" width="864pt" height="432pt" viewBox="0 0 864 432" xmlns="http://www.w3.org/2000/svg" version="1.1">
 <metadata>
  <rdf:RDF xmlns:dc="http://purl.org/dc/elements/1.1/" xmlns:cc="http://creativecommons.org/ns#" xmlns:rdf="http://www.w3.org/1999/02/22-rdf-syntax-ns#">
   <cc:Work>
    <dc:type rdf:resource="http://purl.org/dc/dcmitype/StillImage"/>
    <dc:date>2024-12-27T22:32:24.878259</dc:date>
    <dc:format>image/svg+xml</dc:format>
    <dc:creator>
     <cc:Agent>
      <dc:title>Matplotlib v3.10.0, https://matplotlib.org/</dc:title>
     </cc:Agent>
    </dc:creator>
   </cc:Work>
  </rdf:RDF>
 </metadata>
 <defs>
  <style type="text/css">*{stroke-linejoin: round; stroke-linecap: butt}</style>
 </defs>
 <g id="figure_1">
  <g id="patch_1">
   <path d="M 0 432 
L 864 432 
L 864 0 
L 0 0 
z
" style="fill: #ffffff; stroke: #ffffff; stroke-linejoin: miter"/>
  </g>
  <g id="axes_1">
   <g id="patch_2">
    <path d="M 42.000844 391.639531 
L 855.36 391.639531 
L 855.36 29.8035 
L 42.000844 29.8035 
z
" style="fill: #ffffff"/>
   </g>
   <g id="matplotlib.axis_1">
    <g id="xtick_1">
     <g id="line2d_1">
      <path d="M 71.502852 391.639531 
L 71.502852 29.8035 
" clip-path="url(#pc64c08d095)" style="fill: none; stroke: #e5e5e5; stroke-linecap: square"/>
     </g>
     <g id="line2d_2">
      <path d="M 71.502852 391.639531 
" style="fill: none; stroke: #333333; stroke-width: 1.5; stroke-linecap: square"/>
      <defs>
       <path id="m2b761f989a" d="M 0 0 
L 0 2.75 
" style="stroke: #333333"/>
      </defs>
      <g>
       <use xlink:href="#m2b761f989a" x="71.502852" y="391.639531" style="fill: #333333; stroke: #333333"/>
      </g>
     </g>
     <g id="text_1">
      <!-- 0 -->
      <g style="fill: #4d4d4d" transform="translate(69.056039 402.702156) scale(0.088 -0.088)">
       <defs>
        <path id="Helvetica-30" d="M 1731 4475 
Q 2600 4475 2988 3759 
Q 3288 3206 3288 2244 
Q 3288 1331 3016 734 
Q 2622 -122 1728 -122 
Q 922 -122 528 578 
Q 200 1163 200 2147 
Q 200 2909 397 3456 
Q 766 4475 1731 4475 
z
M 1725 391 
Q 2163 391 2422 778 
Q 2681 1166 2681 2222 
Q 2681 2984 2493 3476 
Q 2306 3969 1766 3969 
Q 1269 3969 1039 3501 
Q 809 3034 809 2125 
Q 809 1441 956 1025 
Q 1181 391 1725 391 
z
" transform="scale(0.015625)"/>
       </defs>
       <use xlink:href="#Helvetica-30"/>
      </g>
     </g>
    </g>
    <g id="xtick_2">
     <g id="line2d_3">
      <path d="M 258.224421 391.639531 
L 258.224421 29.8035 
" clip-path="url(#pc64c08d095)" style="fill: none; stroke: #e5e5e5; stroke-linecap: square"/>
     </g>
     <g id="line2d_4">
      <path d="M 258.224421 391.639531 
" style="fill: none; stroke: #333333; stroke-width: 1.5; stroke-linecap: square"/>
      <g>
       <use xlink:href="#m2b761f989a" x="258.224421" y="391.639531" style="fill: #333333; stroke: #333333"/>
      </g>
     </g>
     <g id="text_2">
      <!-- 25 -->
      <g style="fill: #4d4d4d" transform="translate(253.330796 402.702156) scale(0.088 -0.088)">
       <defs>
        <path id="Helvetica-32" d="M 200 0 
Q 231 578 439 1006 
Q 647 1434 1250 1784 
L 1850 2131 
Q 2253 2366 2416 2531 
Q 2672 2791 2672 3125 
Q 2672 3516 2437 3745 
Q 2203 3975 1813 3975 
Q 1234 3975 1013 3538 
Q 894 3303 881 2888 
L 309 2888 
Q 319 3472 525 3841 
Q 891 4491 1816 4491 
Q 2584 4491 2939 4075 
Q 3294 3659 3294 3150 
Q 3294 2613 2916 2231 
Q 2697 2009 2131 1694 
L 1703 1456 
Q 1397 1288 1222 1134 
Q 909 863 828 531 
L 3272 531 
L 3272 0 
L 200 0 
z
" transform="scale(0.015625)"/>
        <path id="Helvetica-35" d="M 791 1141 
Q 847 659 1238 475 
Q 1438 381 1700 381 
Q 2200 381 2440 700 
Q 2681 1019 2681 1406 
Q 2681 1875 2395 2131 
Q 2109 2388 1709 2388 
Q 1419 2388 1211 2275 
Q 1003 2163 856 1963 
L 369 1991 
L 709 4400 
L 3034 4400 
L 3034 3856 
L 1131 3856 
L 941 2613 
Q 1097 2731 1238 2791 
Q 1488 2894 1816 2894 
Q 2431 2894 2859 2497 
Q 3288 2100 3288 1491 
Q 3288 856 2895 371 
Q 2503 -113 1644 -113 
Q 1097 -113 676 195 
Q 256 503 206 1141 
L 791 1141 
z
" transform="scale(0.015625)"/>
       </defs>
       <use xlink:href="#Helvetica-32"/>
       <use xlink:href="#Helvetica-35" transform="translate(55.615234 0)"/>
      </g>
     </g>
    </g>
    <g id="xtick_3">
     <g id="line2d_5">
      <path d="M 444.94599 391.639531 
L 444.94599 29.8035 
" clip-path="url(#pc64c08d095)" style="fill: none; stroke: #e5e5e5; stroke-linecap: square"/>
     </g>
     <g id="line2d_6">
      <path d="M 444.94599 391.639531 
" style="fill: none; stroke: #333333; stroke-width: 1.5; stroke-linecap: square"/>
      <g>
       <use xlink:href="#m2b761f989a" x="444.94599" y="391.639531" style="fill: #333333; stroke: #333333"/>
      </g>
     </g>
     <g id="text_3">
      <!-- 50 -->
      <g style="fill: #4d4d4d" transform="translate(440.052365 402.702156) scale(0.088 -0.088)">
       <use xlink:href="#Helvetica-35"/>
       <use xlink:href="#Helvetica-30" transform="translate(55.615234 0)"/>
      </g>
     </g>
    </g>
    <g id="xtick_4">
     <g id="line2d_7">
      <path d="M 631.66756 391.639531 
L 631.66756 29.8035 
" clip-path="url(#pc64c08d095)" style="fill: none; stroke: #e5e5e5; stroke-linecap: square"/>
     </g>
     <g id="line2d_8">
      <path d="M 631.66756 391.639531 
" style="fill: none; stroke: #333333; stroke-width: 1.5; stroke-linecap: square"/>
      <g>
       <use xlink:href="#m2b761f989a" x="631.66756" y="391.639531" style="fill: #333333; stroke: #333333"/>
      </g>
     </g>
     <g id="text_4">
      <!-- 75 -->
      <g style="fill: #4d4d4d" transform="translate(626.773935 402.702156) scale(0.088 -0.088)">
       <defs>
        <path id="Helvetica-37" d="M 3347 4400 
L 3347 3909 
Q 3131 3700 2773 3181 
Q 2416 2663 2141 2063 
Q 1869 1478 1728 997 
Q 1638 688 1494 0 
L 872 0 
Q 1084 1281 1809 2550 
Q 2238 3294 2709 3834 
L 234 3834 
L 234 4400 
L 3347 4400 
z
" transform="scale(0.015625)"/>
       </defs>
       <use xlink:href="#Helvetica-37"/>
       <use xlink:href="#Helvetica-35" transform="translate(55.615234 0)"/>
      </g>
     </g>
    </g>
    <g id="xtick_5">
     <g id="line2d_9">
      <path d="M 818.389129 391.639531 
L 818.389129 29.8035 
" clip-path="url(#pc64c08d095)" style="fill: none; stroke: #e5e5e5; stroke-linecap: square"/>
     </g>
     <g id="line2d_10">
      <path d="M 818.389129 391.639531 
" style="fill: none; stroke: #333333; stroke-width: 1.5; stroke-linecap: square"/>
      <g>
       <use xlink:href="#m2b761f989a" x="818.389129" y="391.639531" style="fill: #333333; stroke: #333333"/>
      </g>
     </g>
     <g id="text_5">
      <!-- 100 -->
      <g style="fill: #4d4d4d" transform="translate(811.048692 402.702156) scale(0.088 -0.088)">
       <defs>
        <path id="Helvetica-31" d="M 613 3169 
L 613 3600 
Q 1222 3659 1462 3798 
Q 1703 3938 1822 4456 
L 2266 4456 
L 2266 0 
L 1666 0 
L 1666 3169 
L 613 3169 
z
" transform="scale(0.015625)"/>
       </defs>
       <use xlink:href="#Helvetica-31"/>
       <use xlink:href="#Helvetica-30" transform="translate(55.615234 0)"/>
       <use xlink:href="#Helvetica-30" transform="translate(111.230469 0)"/>
      </g>
     </g>
    </g>
    <g id="xtick_6">
     <g id="line2d_11">
      <path d="M 164.863636 391.639531 
L 164.863636 29.8035 
" clip-path="url(#pc64c08d095)" style="fill: none; stroke: #fafafa; stroke-width: 0.5; stroke-linecap: square"/>
     </g>
    </g>
    <g id="xtick_7">
     <g id="line2d_12">
      <path d="M 351.585206 391.639531 
L 351.585206 29.8035 
" clip-path="url(#pc64c08d095)" style="fill: none; stroke: #fafafa; stroke-width: 0.5; stroke-linecap: square"/>
     </g>
    </g>
    <g id="xtick_8">
     <g id="line2d_13">
      <path d="M 538.306775 391.639531 
L 538.306775 29.8035 
" clip-path="url(#pc64c08d095)" style="fill: none; stroke: #fafafa; stroke-width: 0.5; stroke-linecap: square"/>
     </g>
    </g>
    <g id="xtick_9">
     <g id="line2d_14">
      <path d="M 725.028345 391.639531 
L 725.028345 29.8035 
" clip-path="url(#pc64c08d095)" style="fill: none; stroke: #fafafa; stroke-width: 0.5; stroke-linecap: square"/>
     </g>
    </g>
   </g>
   <g id="matplotlib.axis_2">
    <g id="ytick_1">
     <g id="line2d_15">
      <path d="M 42.000844 375.192439 
L 855.36 375.192439 
" clip-path="url(#pc64c08d095)" style="fill: none; stroke: #e5e5e5; stroke-linecap: square"/>
     </g>
     <g id="line2d_16">
      <path d="M 42.000844 375.192439 
" style="fill: none; stroke: #333333; stroke-width: 1.5; stroke-linecap: square"/>
      <defs>
       <path id="mc613053274" d="M 0 0 
L -2.75 0 
" style="stroke: #333333"/>
      </defs>
      <g>
       <use xlink:href="#mc613053274" x="42.000844" y="375.192439" style="fill: #333333; stroke: #333333"/>
      </g>
     </g>
     <g id="text_6">
      <!-- 0 -->
      <g style="fill: #4d4d4d" transform="translate(32.357219 378.348751) scale(0.088 -0.088)">
       <use xlink:href="#Helvetica-30"/>
      </g>
     </g>
    </g>
    <g id="ytick_2">
     <g id="line2d_17">
      <path d="M 42.000844 306.662888 
L 855.36 306.662888 
" clip-path="url(#pc64c08d095)" style="fill: none; stroke: #e5e5e5; stroke-linecap: square"/>
     </g>
     <g id="line2d_18">
      <path d="M 42.000844 306.662888 
" style="fill: none; stroke: #333333; stroke-width: 1.5; stroke-linecap: square"/>
      <g>
       <use xlink:href="#mc613053274" x="42.000844" y="306.662888" style="fill: #333333; stroke: #333333"/>
      </g>
     </g>
     <g id="text_7">
      <!-- 5 -->
      <g style="fill: #4d4d4d" transform="translate(32.357219 309.8192) scale(0.088 -0.088)">
       <use xlink:href="#Helvetica-35"/>
      </g>
     </g>
    </g>
    <g id="ytick_3">
     <g id="line2d_19">
      <path d="M 42.000844 238.133336 
L 855.36 238.133336 
" clip-path="url(#pc64c08d095)" style="fill: none; stroke: #e5e5e5; stroke-linecap: square"/>
     </g>
     <g id="line2d_20">
      <path d="M 42.000844 238.133336 
" style="fill: none; stroke: #333333; stroke-width: 1.5; stroke-linecap: square"/>
      <g>
       <use xlink:href="#mc613053274" x="42.000844" y="238.133336" style="fill: #333333; stroke: #333333"/>
      </g>
     </g>
     <g id="text_8">
      <!-- 10 -->
      <g style="fill: #4d4d4d" transform="translate(27.463594 241.289649) scale(0.088 -0.088)">
       <use xlink:href="#Helvetica-31"/>
       <use xlink:href="#Helvetica-30" transform="translate(55.615234 0)"/>
      </g>
     </g>
    </g>
    <g id="ytick_4">
     <g id="line2d_21">
      <path d="M 42.000844 169.603785 
L 855.36 169.603785 
" clip-path="url(#pc64c08d095)" style="fill: none; stroke: #e5e5e5; stroke-linecap: square"/>
     </g>
     <g id="line2d_22">
      <path d="M 42.000844 169.603785 
" style="fill: none; stroke: #333333; stroke-width: 1.5; stroke-linecap: square"/>
      <g>
       <use xlink:href="#mc613053274" x="42.000844" y="169.603785" style="fill: #333333; stroke: #333333"/>
      </g>
     </g>
     <g id="text_9">
      <!-- 15 -->
      <g style="fill: #4d4d4d" transform="translate(27.463594 172.760097) scale(0.088 -0.088)">
       <use xlink:href="#Helvetica-31"/>
       <use xlink:href="#Helvetica-35" transform="translate(55.615234 0)"/>
      </g>
     </g>
    </g>
    <g id="ytick_5">
     <g id="line2d_23">
      <path d="M 42.000844 101.074233 
L 855.36 101.074233 
" clip-path="url(#pc64c08d095)" style="fill: none; stroke: #e5e5e5; stroke-linecap: square"/>
     </g>
     <g id="line2d_24">
      <path d="M 42.000844 101.074233 
" style="fill: none; stroke: #333333; stroke-width: 1.5; stroke-linecap: square"/>
      <g>
       <use xlink:href="#mc613053274" x="42.000844" y="101.074233" style="fill: #333333; stroke: #333333"/>
      </g>
     </g>
     <g id="text_10">
      <!-- 20 -->
      <g style="fill: #4d4d4d" transform="translate(27.463594 104.230546) scale(0.088 -0.088)">
       <use xlink:href="#Helvetica-32"/>
       <use xlink:href="#Helvetica-30" transform="translate(55.615234 0)"/>
      </g>
     </g>
    </g>
    <g id="ytick_6">
     <g id="line2d_25">
      <path d="M 42.000844 32.544682 
L 855.36 32.544682 
" clip-path="url(#pc64c08d095)" style="fill: none; stroke: #e5e5e5; stroke-linecap: square"/>
     </g>
     <g id="line2d_26">
      <path d="M 42.000844 32.544682 
" style="fill: none; stroke: #333333; stroke-width: 1.5; stroke-linecap: square"/>
      <g>
       <use xlink:href="#mc613053274" x="42.000844" y="32.544682" style="fill: #333333; stroke: #333333"/>
      </g>
     </g>
     <g id="text_11">
      <!-- 25 -->
      <g style="fill: #4d4d4d" transform="translate(27.463594 35.700995) scale(0.088 -0.088)">
       <use xlink:href="#Helvetica-32"/>
       <use xlink:href="#Helvetica-35" transform="translate(55.615234 0)"/>
      </g>
     </g>
    </g>
    <g id="ytick_7">
     <g id="line2d_27">
      <path d="M 42.000844 340.927663 
L 855.36 340.927663 
" clip-path="url(#pc64c08d095)" style="fill: none; stroke: #fafafa; stroke-width: 0.5; stroke-linecap: square"/>
     </g>
    </g>
    <g id="ytick_8">
     <g id="line2d_28">
      <path d="M 42.000844 272.398112 
L 855.36 272.398112 
" clip-path="url(#pc64c08d095)" style="fill: none; stroke: #fafafa; stroke-width: 0.5; stroke-linecap: square"/>
     </g>
    </g>
    <g id="ytick_9">
     <g id="line2d_29">
      <path d="M 42.000844 203.86856 
L 855.36 203.86856 
" clip-path="url(#pc64c08d095)" style="fill: none; stroke: #fafafa; stroke-width: 0.5; stroke-linecap: square"/>
     </g>
    </g>
    <g id="ytick_10">
     <g id="line2d_30">
      <path d="M 42.000844 135.339009 
L 855.36 135.339009 
" clip-path="url(#pc64c08d095)" style="fill: none; stroke: #fafafa; stroke-width: 0.5; stroke-linecap: square"/>
     </g>
    </g>
    <g id="ytick_11">
     <g id="line2d_31">
      <path d="M 42.000844 66.809458 
L 855.36 66.809458 
" clip-path="url(#pc64c08d095)" style="fill: none; stroke: #fafafa; stroke-width: 0.5; stroke-linecap: square"/>
     </g>
    </g>
   </g>
   <g id="PathCollection_1">
    <path d="M 78.971714 376.964893 
C 79.441775 376.964893 79.892646 376.778136 80.225029 376.445753 
C 80.557411 376.11337 80.744168 375.662499 80.744168 375.192439 
C 80.744168 374.722379 80.557411 374.271508 80.225029 373.939125 
C 79.892646 373.606742 79.441775 373.419985 78.971714 373.419985 
C 78.501654 373.419985 78.050783 373.606742 77.7184 373.939125 
C 77.386018 374.271508 77.199261 374.722379 77.199261 375.192439 
C 77.199261 375.662499 77.386018 376.11337 77.7184 376.445753 
C 78.050783 376.778136 78.501654 376.964893 78.971714 376.964893 
z
" clip-path="url(#pc64c08d095)" style="stroke: #000000; stroke-width: 0.886227"/>
    <path d="M 86.440577 376.964893 
C 86.910638 376.964893 87.361509 376.778136 87.693891 376.445753 
C 88.026274 376.11337 88.213031 375.662499 88.213031 375.192439 
C 88.213031 374.722379 88.026274 374.271508 87.693891 373.939125 
C 87.361509 373.606742 86.910638 373.419985 86.440577 373.419985 
C 85.970517 373.419985 85.519646 373.606742 85.187263 373.939125 
C 84.85488 374.271508 84.668123 374.722379 84.668123 375.192439 
C 84.668123 375.662499 84.85488 376.11337 85.187263 376.445753 
C 85.519646 376.778136 85.970517 376.964893 86.440577 376.964893 
z
" clip-path="url(#pc64c08d095)" style="stroke: #000000; stroke-width: 0.886227"/>
    <path d="M 93.90944 363.258982 
C 94.3795 363.258982 94.830371 363.072226 95.162754 362.739843 
C 95.495137 362.40746 95.681894 361.956589 95.681894 361.486529 
C 95.681894 361.016468 95.495137 360.565597 95.162754 360.233215 
C 94.830371 359.900832 94.3795 359.714075 93.90944 359.714075 
C 93.43938 359.714075 92.988509 359.900832 92.656126 360.233215 
C 92.323743 360.565597 92.136986 361.016468 92.136986 361.486529 
C 92.136986 361.956589 92.323743 362.40746 92.656126 362.739843 
C 92.988509 363.072226 93.43938 363.258982 93.90944 363.258982 
z
" clip-path="url(#pc64c08d095)" style="stroke: #000000; stroke-width: 0.886227"/>
    <path d="M 101.378303 363.258982 
C 101.848363 363.258982 102.299234 363.072226 102.631617 362.739843 
C 102.964 362.40746 103.150757 361.956589 103.150757 361.486529 
C 103.150757 361.016468 102.964 360.565597 102.631617 360.233215 
C 102.299234 359.900832 101.848363 359.714075 101.378303 359.714075 
C 100.908243 359.714075 100.457371 359.900832 100.124989 360.233215 
C 99.792606 360.565597 99.605849 361.016468 99.605849 361.486529 
C 99.605849 361.956589 99.792606 362.40746 100.124989 362.739843 
C 100.457371 363.072226 100.908243 363.258982 101.378303 363.258982 
z
" clip-path="url(#pc64c08d095)" style="stroke: #000000; stroke-width: 0.886227"/>
    <path d="M 108.847166 349.553072 
C 109.317226 349.553072 109.768097 349.366315 110.10048 349.033933 
C 110.432863 348.70155 110.619619 348.250679 110.619619 347.780618 
C 110.619619 347.310558 110.432863 346.859687 110.10048 346.527304 
C 109.768097 346.194921 109.317226 346.008165 108.847166 346.008165 
C 108.377105 346.008165 107.926234 346.194921 107.593851 346.527304 
C 107.261469 346.859687 107.074712 347.310558 107.074712 347.780618 
C 107.074712 348.250679 107.261469 348.70155 107.593851 349.033933 
C 107.926234 349.366315 108.377105 349.553072 108.847166 349.553072 
z
" clip-path="url(#pc64c08d095)" style="stroke: #000000; stroke-width: 0.886227"/>
    <path d="M 116.316028 349.553072 
C 116.786089 349.553072 117.23696 349.366315 117.569343 349.033933 
C 117.901725 348.70155 118.088482 348.250679 118.088482 347.780618 
C 118.088482 347.310558 117.901725 346.859687 117.569343 346.527304 
C 117.23696 346.194921 116.786089 346.008165 116.316028 346.008165 
C 115.845968 346.008165 115.395097 346.194921 115.062714 346.527304 
C 114.730331 346.859687 114.543575 347.310558 114.543575 347.780618 
C 114.543575 348.250679 114.730331 348.70155 115.062714 349.033933 
C 115.395097 349.366315 115.845968 349.553072 116.316028 349.553072 
z
" clip-path="url(#pc64c08d095)" style="stroke: #000000; stroke-width: 0.886227"/>
    <path d="M 123.784891 335.847162 
C 124.254951 335.847162 124.705822 335.660405 125.038205 335.328022 
C 125.370588 334.995639 125.557345 334.544768 125.557345 334.074708 
C 125.557345 333.604648 125.370588 333.153777 125.038205 332.821394 
C 124.705822 332.489011 124.254951 332.302254 123.784891 332.302254 
C 123.314831 332.302254 122.86396 332.489011 122.531577 332.821394 
C 122.199194 333.153777 122.012437 333.604648 122.012437 334.074708 
C 122.012437 334.544768 122.199194 334.995639 122.531577 335.328022 
C 122.86396 335.660405 123.314831 335.847162 123.784891 335.847162 
z
" clip-path="url(#pc64c08d095)" style="stroke: #000000; stroke-width: 0.886227"/>
    <path d="M 131.253754 335.847162 
C 131.723814 335.847162 132.174685 335.660405 132.507068 335.328022 
C 132.839451 334.995639 133.026208 334.544768 133.026208 334.074708 
C 133.026208 333.604648 132.839451 333.153777 132.507068 332.821394 
C 132.174685 332.489011 131.723814 332.302254 131.253754 332.302254 
C 130.783694 332.302254 130.332823 332.489011 130.00044 332.821394 
C 129.668057 333.153777 129.4813 333.604648 129.4813 334.074708 
C 129.4813 334.544768 129.668057 334.995639 130.00044 335.328022 
C 130.332823 335.660405 130.783694 335.847162 131.253754 335.847162 
z
" clip-path="url(#pc64c08d095)" style="stroke: #000000; stroke-width: 0.886227"/>
    <path d="M 138.722617 335.847162 
C 139.192677 335.847162 139.643548 335.660405 139.975931 335.328022 
C 140.308314 334.995639 140.495071 334.544768 140.495071 334.074708 
C 140.495071 333.604648 140.308314 333.153777 139.975931 332.821394 
C 139.643548 332.489011 139.192677 332.302254 138.722617 332.302254 
C 138.252556 332.302254 137.801685 332.489011 137.469303 332.821394 
C 137.13692 333.153777 136.950163 333.604648 136.950163 334.074708 
C 136.950163 334.544768 137.13692 334.995639 137.469303 335.328022 
C 137.801685 335.660405 138.252556 335.847162 138.722617 335.847162 
z
" clip-path="url(#pc64c08d095)" style="stroke: #000000; stroke-width: 0.886227"/>
    <path d="M 146.191479 335.847162 
C 146.66154 335.847162 147.112411 335.660405 147.444794 335.328022 
C 147.777176 334.995639 147.963933 334.544768 147.963933 334.074708 
C 147.963933 333.604648 147.777176 333.153777 147.444794 332.821394 
C 147.112411 332.489011 146.66154 332.302254 146.191479 332.302254 
C 145.721419 332.302254 145.270548 332.489011 144.938165 332.821394 
C 144.605783 333.153777 144.419026 333.604648 144.419026 334.074708 
C 144.419026 334.544768 144.605783 334.995639 144.938165 335.328022 
C 145.270548 335.660405 145.721419 335.847162 146.191479 335.847162 
z
" clip-path="url(#pc64c08d095)" style="stroke: #000000; stroke-width: 0.886227"/>
    <path d="M 153.660342 322.141252 
C 154.130402 322.141252 154.581274 321.954495 154.913656 321.622112 
C 155.246039 321.289729 155.432796 320.838858 155.432796 320.368798 
C 155.432796 319.898738 155.246039 319.447866 154.913656 319.115484 
C 154.581274 318.783101 154.130402 318.596344 153.660342 318.596344 
C 153.190282 318.596344 152.739411 318.783101 152.407028 319.115484 
C 152.074645 319.447866 151.887888 319.898738 151.887888 320.368798 
C 151.887888 320.838858 152.074645 321.289729 152.407028 321.622112 
C 152.739411 321.954495 153.190282 322.141252 153.660342 322.141252 
z
" clip-path="url(#pc64c08d095)" style="stroke: #000000; stroke-width: 0.886227"/>
    <path d="M 161.129205 322.141252 
C 161.599265 322.141252 162.050136 321.954495 162.382519 321.622112 
C 162.714902 321.289729 162.901659 320.838858 162.901659 320.368798 
C 162.901659 319.898738 162.714902 319.447866 162.382519 319.115484 
C 162.050136 318.783101 161.599265 318.596344 161.129205 318.596344 
C 160.659145 318.596344 160.208274 318.783101 159.875891 319.115484 
C 159.543508 319.447866 159.356751 319.898738 159.356751 320.368798 
C 159.356751 320.838858 159.543508 321.289729 159.875891 321.622112 
C 160.208274 321.954495 160.659145 322.141252 161.129205 322.141252 
z
" clip-path="url(#pc64c08d095)" style="stroke: #000000; stroke-width: 0.886227"/>
    <path d="M 168.598068 308.435341 
C 169.068128 308.435341 169.518999 308.248584 169.851382 307.916202 
C 170.183765 307.583819 170.370522 307.132948 170.370522 306.662888 
C 170.370522 306.192827 170.183765 305.741956 169.851382 305.409573 
C 169.518999 305.077191 169.068128 304.890434 168.598068 304.890434 
C 168.128008 304.890434 167.677136 305.077191 167.344754 305.409573 
C 167.012371 305.741956 166.825614 306.192827 166.825614 306.662888 
C 166.825614 307.132948 167.012371 307.583819 167.344754 307.916202 
C 167.677136 308.248584 168.128008 308.435341 168.598068 308.435341 
z
" clip-path="url(#pc64c08d095)" style="stroke: #000000; stroke-width: 0.886227"/>
    <path d="M 176.066931 308.435341 
C 176.536991 308.435341 176.987862 308.248584 177.320245 307.916202 
C 177.652628 307.583819 177.839384 307.132948 177.839384 306.662888 
C 177.839384 306.192827 177.652628 305.741956 177.320245 305.409573 
C 176.987862 305.077191 176.536991 304.890434 176.066931 304.890434 
C 175.59687 304.890434 175.145999 305.077191 174.813616 305.409573 
C 174.481234 305.741956 174.294477 306.192827 174.294477 306.662888 
C 174.294477 307.132948 174.481234 307.583819 174.813616 307.916202 
C 175.145999 308.248584 175.59687 308.435341 176.066931 308.435341 
z
" clip-path="url(#pc64c08d095)" style="stroke: #000000; stroke-width: 0.886227"/>
    <path d="M 183.535793 308.435341 
C 184.005854 308.435341 184.456725 308.248584 184.789107 307.916202 
C 185.12149 307.583819 185.308247 307.132948 185.308247 306.662888 
C 185.308247 306.192827 185.12149 305.741956 184.789107 305.409573 
C 184.456725 305.077191 184.005854 304.890434 183.535793 304.890434 
C 183.065733 304.890434 182.614862 305.077191 182.282479 305.409573 
C 181.950096 305.741956 181.763339 306.192827 181.763339 306.662888 
C 181.763339 307.132948 181.950096 307.583819 182.282479 307.916202 
C 182.614862 308.248584 183.065733 308.435341 183.535793 308.435341 
z
" clip-path="url(#pc64c08d095)" style="stroke: #000000; stroke-width: 0.886227"/>
    <path d="M 191.004656 308.435341 
C 191.474716 308.435341 191.925587 308.248584 192.25797 307.916202 
C 192.590353 307.583819 192.77711 307.132948 192.77711 306.662888 
C 192.77711 306.192827 192.590353 305.741956 192.25797 305.409573 
C 191.925587 305.077191 191.474716 304.890434 191.004656 304.890434 
C 190.534596 304.890434 190.083725 305.077191 189.751342 305.409573 
C 189.418959 305.741956 189.232202 306.192827 189.232202 306.662888 
C 189.232202 307.132948 189.418959 307.583819 189.751342 307.916202 
C 190.083725 308.248584 190.534596 308.435341 191.004656 308.435341 
z
" clip-path="url(#pc64c08d095)" style="stroke: #000000; stroke-width: 0.886227"/>
    <path d="M 198.473519 294.729431 
C 198.943579 294.729431 199.39445 294.542674 199.726833 294.210291 
C 200.059216 293.877909 200.245973 293.427038 200.245973 292.956977 
C 200.245973 292.486917 200.059216 292.036046 199.726833 291.703663 
C 199.39445 291.37128 198.943579 291.184523 198.473519 291.184523 
C 198.003459 291.184523 197.552588 291.37128 197.220205 291.703663 
C 196.887822 292.036046 196.701065 292.486917 196.701065 292.956977 
C 196.701065 293.427038 196.887822 293.877909 197.220205 294.210291 
C 197.552588 294.542674 198.003459 294.729431 198.473519 294.729431 
z
" clip-path="url(#pc64c08d095)" style="stroke: #000000; stroke-width: 0.886227"/>
    <path d="M 205.942382 294.729431 
C 206.412442 294.729431 206.863313 294.542674 207.195696 294.210291 
C 207.528079 293.877909 207.714836 293.427038 207.714836 292.956977 
C 207.714836 292.486917 207.528079 292.036046 207.195696 291.703663 
C 206.863313 291.37128 206.412442 291.184523 205.942382 291.184523 
C 205.472321 291.184523 205.02145 291.37128 204.689068 291.703663 
C 204.356685 292.036046 204.169928 292.486917 204.169928 292.956977 
C 204.169928 293.427038 204.356685 293.877909 204.689068 294.210291 
C 205.02145 294.542674 205.472321 294.729431 205.942382 294.729431 
z
" clip-path="url(#pc64c08d095)" style="stroke: #000000; stroke-width: 0.886227"/>
    <path d="M 213.411244 281.023521 
C 213.881305 281.023521 214.332176 280.836764 214.664559 280.504381 
C 214.996941 280.171998 215.183698 279.721127 215.183698 279.251067 
C 215.183698 278.781007 214.996941 278.330136 214.664559 277.997753 
C 214.332176 277.66537 213.881305 277.478613 213.411244 277.478613 
C 212.941184 277.478613 212.490313 277.66537 212.15793 277.997753 
C 211.825548 278.330136 211.638791 278.781007 211.638791 279.251067 
C 211.638791 279.721127 211.825548 280.171998 212.15793 280.504381 
C 212.490313 280.836764 212.941184 281.023521 213.411244 281.023521 
z
" clip-path="url(#pc64c08d095)" style="stroke: #000000; stroke-width: 0.886227"/>
    <path d="M 220.880107 281.023521 
C 221.350167 281.023521 221.801039 280.836764 222.133421 280.504381 
C 222.465804 280.171998 222.652561 279.721127 222.652561 279.251067 
C 222.652561 278.781007 222.465804 278.330136 222.133421 277.997753 
C 221.801039 277.66537 221.350167 277.478613 220.880107 277.478613 
C 220.410047 277.478613 219.959176 277.66537 219.626793 277.997753 
C 219.29441 278.330136 219.107653 278.781007 219.107653 279.251067 
C 219.107653 279.721127 219.29441 280.171998 219.626793 280.504381 
C 219.959176 280.836764 220.410047 281.023521 220.880107 281.023521 
z
" clip-path="url(#pc64c08d095)" style="stroke: #000000; stroke-width: 0.886227"/>
    <path d="M 228.34897 281.023521 
C 228.81903 281.023521 229.269901 280.836764 229.602284 280.504381 
C 229.934667 280.171998 230.121424 279.721127 230.121424 279.251067 
C 230.121424 278.781007 229.934667 278.330136 229.602284 277.997753 
C 229.269901 277.66537 228.81903 277.478613 228.34897 277.478613 
C 227.87891 277.478613 227.428039 277.66537 227.095656 277.997753 
C 226.763273 278.330136 226.576516 278.781007 226.576516 279.251067 
C 226.576516 279.721127 226.763273 280.171998 227.095656 280.504381 
C 227.428039 280.836764 227.87891 281.023521 228.34897 281.023521 
z
" clip-path="url(#pc64c08d095)" style="stroke: #000000; stroke-width: 0.886227"/>
    <path d="M 235.817833 281.023521 
C 236.287893 281.023521 236.738764 280.836764 237.071147 280.504381 
C 237.40353 280.171998 237.590287 279.721127 237.590287 279.251067 
C 237.590287 278.781007 237.40353 278.330136 237.071147 277.997753 
C 236.738764 277.66537 236.287893 277.478613 235.817833 277.478613 
C 235.347773 277.478613 234.896901 277.66537 234.564519 277.997753 
C 234.232136 278.330136 234.045379 278.781007 234.045379 279.251067 
C 234.045379 279.721127 234.232136 280.171998 234.564519 280.504381 
C 234.896901 280.836764 235.347773 281.023521 235.817833 281.023521 
z
" clip-path="url(#pc64c08d095)" style="stroke: #000000; stroke-width: 0.886227"/>
    <path d="M 243.286696 267.317611 
C 243.756756 267.317611 244.207627 267.130854 244.54001 266.798471 
C 244.872392 266.466088 245.059149 266.015217 245.059149 265.545157 
C 245.059149 265.075096 244.872392 264.624225 244.54001 264.291843 
C 244.207627 263.95946 243.756756 263.772703 243.286696 263.772703 
C 242.816635 263.772703 242.365764 263.95946 242.033381 264.291843 
C 241.700999 264.624225 241.514242 265.075096 241.514242 265.545157 
C 241.514242 266.015217 241.700999 266.466088 242.033381 266.798471 
C 242.365764 267.130854 242.816635 267.317611 243.286696 267.317611 
z
" clip-path="url(#pc64c08d095)" style="stroke: #000000; stroke-width: 0.886227"/>
    <path d="M 250.755558 267.317611 
C 251.225619 267.317611 251.67649 267.130854 252.008872 266.798471 
C 252.341255 266.466088 252.528012 266.015217 252.528012 265.545157 
C 252.528012 265.075096 252.341255 264.624225 252.008872 264.291843 
C 251.67649 263.95946 251.225619 263.772703 250.755558 263.772703 
C 250.285498 263.772703 249.834627 263.95946 249.502244 264.291843 
C 249.169861 264.624225 248.983104 265.075096 248.983104 265.545157 
C 248.983104 266.015217 249.169861 266.466088 249.502244 266.798471 
C 249.834627 267.130854 250.285498 267.317611 250.755558 267.317611 
z
" clip-path="url(#pc64c08d095)" style="stroke: #000000; stroke-width: 0.886227"/>
    <path d="M 258.224421 267.317611 
C 258.694481 267.317611 259.145352 267.130854 259.477735 266.798471 
C 259.810118 266.466088 259.996875 266.015217 259.996875 265.545157 
C 259.996875 265.075096 259.810118 264.624225 259.477735 264.291843 
C 259.145352 263.95946 258.694481 263.772703 258.224421 263.772703 
C 257.754361 263.772703 257.30349 263.95946 256.971107 264.291843 
C 256.638724 264.624225 256.451967 265.075096 256.451967 265.545157 
C 256.451967 266.015217 256.638724 266.466088 256.971107 266.798471 
C 257.30349 267.130854 257.754361 267.317611 258.224421 267.317611 
z
" clip-path="url(#pc64c08d095)" style="stroke: #000000; stroke-width: 0.886227"/>
    <path d="M 265.693284 267.317611 
C 266.163344 267.317611 266.614215 267.130854 266.946598 266.798471 
C 267.278981 266.466088 267.465738 266.015217 267.465738 265.545157 
C 267.465738 265.075096 267.278981 264.624225 266.946598 264.291843 
C 266.614215 263.95946 266.163344 263.772703 265.693284 263.772703 
C 265.223224 263.772703 264.772353 263.95946 264.43997 264.291843 
C 264.107587 264.624225 263.92083 265.075096 263.92083 265.545157 
C 263.92083 266.015217 264.107587 266.466088 264.43997 266.798471 
C 264.772353 267.130854 265.223224 267.317611 265.693284 267.317611 
z
" clip-path="url(#pc64c08d095)" style="stroke: #000000; stroke-width: 0.886227"/>
    <path d="M 273.162147 267.317611 
C 273.632207 267.317611 274.083078 267.130854 274.415461 266.798471 
C 274.747844 266.466088 274.934601 266.015217 274.934601 265.545157 
C 274.934601 265.075096 274.747844 264.624225 274.415461 264.291843 
C 274.083078 263.95946 273.632207 263.772703 273.162147 263.772703 
C 272.692086 263.772703 272.241215 263.95946 271.908833 264.291843 
C 271.57645 264.624225 271.389693 265.075096 271.389693 265.545157 
C 271.389693 266.015217 271.57645 266.466088 271.908833 266.798471 
C 272.241215 267.130854 272.692086 267.317611 273.162147 267.317611 
z
" clip-path="url(#pc64c08d095)" style="stroke: #000000; stroke-width: 0.886227"/>
    <path d="M 280.631009 267.317611 
C 281.10107 267.317611 281.551941 267.130854 281.884324 266.798471 
C 282.216706 266.466088 282.403463 266.015217 282.403463 265.545157 
C 282.403463 265.075096 282.216706 264.624225 281.884324 264.291843 
C 281.551941 263.95946 281.10107 263.772703 280.631009 263.772703 
C 280.160949 263.772703 279.710078 263.95946 279.377695 264.291843 
C 279.045312 264.624225 278.858556 265.075096 278.858556 265.545157 
C 278.858556 266.015217 279.045312 266.466088 279.377695 266.798471 
C 279.710078 267.130854 280.160949 267.317611 280.631009 267.317611 
z
" clip-path="url(#pc64c08d095)" style="stroke: #000000; stroke-width: 0.886227"/>
    <path d="M 288.099872 253.6117 
C 288.569932 253.6117 289.020804 253.424943 289.353186 253.092561 
C 289.685569 252.760178 289.872326 252.309307 289.872326 251.839246 
C 289.872326 251.369186 289.685569 250.918315 289.353186 250.585932 
C 289.020804 250.25355 288.569932 250.066793 288.099872 250.066793 
C 287.629812 250.066793 287.178941 250.25355 286.846558 250.585932 
C 286.514175 250.918315 286.327418 251.369186 286.327418 251.839246 
C 286.327418 252.309307 286.514175 252.760178 286.846558 253.092561 
C 287.178941 253.424943 287.629812 253.6117 288.099872 253.6117 
z
" clip-path="url(#pc64c08d095)" style="stroke: #000000; stroke-width: 0.886227"/>
    <path d="M 295.568735 253.6117 
C 296.038795 253.6117 296.489666 253.424943 296.822049 253.092561 
C 297.154432 252.760178 297.341189 252.309307 297.341189 251.839246 
C 297.341189 251.369186 297.154432 250.918315 296.822049 250.585932 
C 296.489666 250.25355 296.038795 250.066793 295.568735 250.066793 
C 295.098675 250.066793 294.647804 250.25355 294.315421 250.585932 
C 293.983038 250.918315 293.796281 251.369186 293.796281 251.839246 
C 293.796281 252.309307 293.983038 252.760178 294.315421 253.092561 
C 294.647804 253.424943 295.098675 253.6117 295.568735 253.6117 
z
" clip-path="url(#pc64c08d095)" style="stroke: #000000; stroke-width: 0.886227"/>
    <path d="M 303.037598 239.90579 
C 303.507658 239.90579 303.958529 239.719033 304.290912 239.38665 
C 304.623295 239.054268 304.810052 238.603396 304.810052 238.133336 
C 304.810052 237.663276 304.623295 237.212405 304.290912 236.880022 
C 303.958529 236.547639 303.507658 236.360882 303.037598 236.360882 
C 302.567537 236.360882 302.116666 236.547639 301.784284 236.880022 
C 301.451901 237.212405 301.265144 237.663276 301.265144 238.133336 
C 301.265144 238.603396 301.451901 239.054268 301.784284 239.38665 
C 302.116666 239.719033 302.567537 239.90579 303.037598 239.90579 
z
" clip-path="url(#pc64c08d095)" style="stroke: #000000; stroke-width: 0.886227"/>
    <path d="M 310.506461 239.90579 
C 310.976521 239.90579 311.427392 239.719033 311.759775 239.38665 
C 312.092157 239.054268 312.278914 238.603396 312.278914 238.133336 
C 312.278914 237.663276 312.092157 237.212405 311.759775 236.880022 
C 311.427392 236.547639 310.976521 236.360882 310.506461 236.360882 
C 310.0364 236.360882 309.585529 236.547639 309.253146 236.880022 
C 308.920764 237.212405 308.734007 237.663276 308.734007 238.133336 
C 308.734007 238.603396 308.920764 239.054268 309.253146 239.38665 
C 309.585529 239.719033 310.0364 239.90579 310.506461 239.90579 
z
" clip-path="url(#pc64c08d095)" style="stroke: #000000; stroke-width: 0.886227"/>
    <path d="M 317.975323 239.90579 
C 318.445384 239.90579 318.896255 239.719033 319.228637 239.38665 
C 319.56102 239.054268 319.747777 238.603396 319.747777 238.133336 
C 319.747777 237.663276 319.56102 237.212405 319.228637 236.880022 
C 318.896255 236.547639 318.445384 236.360882 317.975323 236.360882 
C 317.505263 236.360882 317.054392 236.547639 316.722009 236.880022 
C 316.389626 237.212405 316.202869 237.663276 316.202869 238.133336 
C 316.202869 238.603396 316.389626 239.054268 316.722009 239.38665 
C 317.054392 239.719033 317.505263 239.90579 317.975323 239.90579 
z
" clip-path="url(#pc64c08d095)" style="stroke: #000000; stroke-width: 0.886227"/>
    <path d="M 325.444186 239.90579 
C 325.914246 239.90579 326.365117 239.719033 326.6975 239.38665 
C 327.029883 239.054268 327.21664 238.603396 327.21664 238.133336 
C 327.21664 237.663276 327.029883 237.212405 326.6975 236.880022 
C 326.365117 236.547639 325.914246 236.360882 325.444186 236.360882 
C 324.974126 236.360882 324.523255 236.547639 324.190872 236.880022 
C 323.858489 237.212405 323.671732 237.663276 323.671732 238.133336 
C 323.671732 238.603396 323.858489 239.054268 324.190872 239.38665 
C 324.523255 239.719033 324.974126 239.90579 325.444186 239.90579 
z
" clip-path="url(#pc64c08d095)" style="stroke: #000000; stroke-width: 0.886227"/>
    <path d="M 332.913049 239.90579 
C 333.383109 239.90579 333.83398 239.719033 334.166363 239.38665 
C 334.498746 239.054268 334.685503 238.603396 334.685503 238.133336 
C 334.685503 237.663276 334.498746 237.212405 334.166363 236.880022 
C 333.83398 236.547639 333.383109 236.360882 332.913049 236.360882 
C 332.442989 236.360882 331.992118 236.547639 331.659735 236.880022 
C 331.327352 237.212405 331.140595 237.663276 331.140595 238.133336 
C 331.140595 238.603396 331.327352 239.054268 331.659735 239.38665 
C 331.992118 239.719033 332.442989 239.90579 332.913049 239.90579 
z
" clip-path="url(#pc64c08d095)" style="stroke: #000000; stroke-width: 0.886227"/>
    <path d="M 340.381912 239.90579 
C 340.851972 239.90579 341.302843 239.719033 341.635226 239.38665 
C 341.967609 239.054268 342.154365 238.603396 342.154365 238.133336 
C 342.154365 237.663276 341.967609 237.212405 341.635226 236.880022 
C 341.302843 236.547639 340.851972 236.360882 340.381912 236.360882 
C 339.911851 236.360882 339.46098 236.547639 339.128597 236.880022 
C 338.796215 237.212405 338.609458 237.663276 338.609458 238.133336 
C 338.609458 238.603396 338.796215 239.054268 339.128597 239.38665 
C 339.46098 239.719033 339.911851 239.90579 340.381912 239.90579 
z
" clip-path="url(#pc64c08d095)" style="stroke: #000000; stroke-width: 0.886227"/>
    <path d="M 347.850774 226.19988 
C 348.320835 226.19988 348.771706 226.013123 349.104089 225.68074 
C 349.436471 225.348357 349.623228 224.897486 349.623228 224.427426 
C 349.623228 223.957366 349.436471 223.506495 349.104089 223.174112 
C 348.771706 222.841729 348.320835 222.654972 347.850774 222.654972 
C 347.380714 222.654972 346.929843 222.841729 346.59746 223.174112 
C 346.265077 223.506495 346.078321 223.957366 346.078321 224.427426 
C 346.078321 224.897486 346.265077 225.348357 346.59746 225.68074 
C 346.929843 226.013123 347.380714 226.19988 347.850774 226.19988 
z
" clip-path="url(#pc64c08d095)" style="stroke: #000000; stroke-width: 0.886227"/>
    <path d="M 355.319637 226.19988 
C 355.789697 226.19988 356.240569 226.013123 356.572951 225.68074 
C 356.905334 225.348357 357.092091 224.897486 357.092091 224.427426 
C 357.092091 223.957366 356.905334 223.506495 356.572951 223.174112 
C 356.240569 222.841729 355.789697 222.654972 355.319637 222.654972 
C 354.849577 222.654972 354.398706 222.841729 354.066323 223.174112 
C 353.73394 223.506495 353.547183 223.957366 353.547183 224.427426 
C 353.547183 224.897486 353.73394 225.348357 354.066323 225.68074 
C 354.398706 226.013123 354.849577 226.19988 355.319637 226.19988 
z
" clip-path="url(#pc64c08d095)" style="stroke: #000000; stroke-width: 0.886227"/>
    <path d="M 362.7885 226.19988 
C 363.25856 226.19988 363.709431 226.013123 364.041814 225.68074 
C 364.374197 225.348357 364.560954 224.897486 364.560954 224.427426 
C 364.560954 223.957366 364.374197 223.506495 364.041814 223.174112 
C 363.709431 222.841729 363.25856 222.654972 362.7885 222.654972 
C 362.31844 222.654972 361.867569 222.841729 361.535186 223.174112 
C 361.202803 223.506495 361.016046 223.957366 361.016046 224.427426 
C 361.016046 224.897486 361.202803 225.348357 361.535186 225.68074 
C 361.867569 226.013123 362.31844 226.19988 362.7885 226.19988 
z
" clip-path="url(#pc64c08d095)" style="stroke: #000000; stroke-width: 0.886227"/>
    <path d="M 370.257363 226.19988 
C 370.727423 226.19988 371.178294 226.013123 371.510677 225.68074 
C 371.84306 225.348357 372.029817 224.897486 372.029817 224.427426 
C 372.029817 223.957366 371.84306 223.506495 371.510677 223.174112 
C 371.178294 222.841729 370.727423 222.654972 370.257363 222.654972 
C 369.787302 222.654972 369.336431 222.841729 369.004049 223.174112 
C 368.671666 223.506495 368.484909 223.957366 368.484909 224.427426 
C 368.484909 224.897486 368.671666 225.348357 369.004049 225.68074 
C 369.336431 226.013123 369.787302 226.19988 370.257363 226.19988 
z
" clip-path="url(#pc64c08d095)" style="stroke: #000000; stroke-width: 0.886227"/>
    <path d="M 377.726226 212.493969 
C 378.196286 212.493969 378.647157 212.307213 378.97954 211.97483 
C 379.311922 211.642447 379.498679 211.191576 379.498679 210.721516 
C 379.498679 210.251455 379.311922 209.800584 378.97954 209.468201 
C 378.647157 209.135819 378.196286 208.949062 377.726226 208.949062 
C 377.256165 208.949062 376.805294 209.135819 376.472911 209.468201 
C 376.140529 209.800584 375.953772 210.251455 375.953772 210.721516 
C 375.953772 211.191576 376.140529 211.642447 376.472911 211.97483 
C 376.805294 212.307213 377.256165 212.493969 377.726226 212.493969 
z
" clip-path="url(#pc64c08d095)" style="stroke: #000000; stroke-width: 0.886227"/>
    <path d="M 385.195088 212.493969 
C 385.665149 212.493969 386.11602 212.307213 386.448402 211.97483 
C 386.780785 211.642447 386.967542 211.191576 386.967542 210.721516 
C 386.967542 210.251455 386.780785 209.800584 386.448402 209.468201 
C 386.11602 209.135819 385.665149 208.949062 385.195088 208.949062 
C 384.725028 208.949062 384.274157 209.135819 383.941774 209.468201 
C 383.609391 209.800584 383.422634 210.251455 383.422634 210.721516 
C 383.422634 211.191576 383.609391 211.642447 383.941774 211.97483 
C 384.274157 212.307213 384.725028 212.493969 385.195088 212.493969 
z
" clip-path="url(#pc64c08d095)" style="stroke: #000000; stroke-width: 0.886227"/>
    <path d="M 392.663951 198.788059 
C 393.134011 198.788059 393.584882 198.601302 393.917265 198.268919 
C 394.249648 197.936537 394.436405 197.485666 394.436405 197.015605 
C 394.436405 196.545545 394.249648 196.094674 393.917265 195.762291 
C 393.584882 195.429908 393.134011 195.243151 392.663951 195.243151 
C 392.193891 195.243151 391.74302 195.429908 391.410637 195.762291 
C 391.078254 196.094674 390.891497 196.545545 390.891497 197.015605 
C 390.891497 197.485666 391.078254 197.936537 391.410637 198.268919 
C 391.74302 198.601302 392.193891 198.788059 392.663951 198.788059 
z
" clip-path="url(#pc64c08d095)" style="stroke: #000000; stroke-width: 0.886227"/>
    <path d="M 400.132814 198.788059 
C 400.602874 198.788059 401.053745 198.601302 401.386128 198.268919 
C 401.718511 197.936537 401.905268 197.485666 401.905268 197.015605 
C 401.905268 196.545545 401.718511 196.094674 401.386128 195.762291 
C 401.053745 195.429908 400.602874 195.243151 400.132814 195.243151 
C 399.662754 195.243151 399.211882 195.429908 398.8795 195.762291 
C 398.547117 196.094674 398.36036 196.545545 398.36036 197.015605 
C 398.36036 197.485666 398.547117 197.936537 398.8795 198.268919 
C 399.211882 198.601302 399.662754 198.788059 400.132814 198.788059 
z
" clip-path="url(#pc64c08d095)" style="stroke: #000000; stroke-width: 0.886227"/>
    <path d="M 407.601677 198.788059 
C 408.071737 198.788059 408.522608 198.601302 408.854991 198.268919 
C 409.187374 197.936537 409.37413 197.485666 409.37413 197.015605 
C 409.37413 196.545545 409.187374 196.094674 408.854991 195.762291 
C 408.522608 195.429908 408.071737 195.243151 407.601677 195.243151 
C 407.131616 195.243151 406.680745 195.429908 406.348362 195.762291 
C 406.01598 196.094674 405.829223 196.545545 405.829223 197.015605 
C 405.829223 197.485666 406.01598 197.936537 406.348362 198.268919 
C 406.680745 198.601302 407.131616 198.788059 407.601677 198.788059 
z
" clip-path="url(#pc64c08d095)" style="stroke: #000000; stroke-width: 0.886227"/>
    <path d="M 415.070539 198.788059 
C 415.5406 198.788059 415.991471 198.601302 416.323854 198.268919 
C 416.656236 197.936537 416.842993 197.485666 416.842993 197.015605 
C 416.842993 196.545545 416.656236 196.094674 416.323854 195.762291 
C 415.991471 195.429908 415.5406 195.243151 415.070539 195.243151 
C 414.600479 195.243151 414.149608 195.429908 413.817225 195.762291 
C 413.484842 196.094674 413.298086 196.545545 413.298086 197.015605 
C 413.298086 197.485666 413.484842 197.936537 413.817225 198.268919 
C 414.149608 198.601302 414.600479 198.788059 415.070539 198.788059 
z
" clip-path="url(#pc64c08d095)" style="stroke: #000000; stroke-width: 0.886227"/>
    <path d="M 422.539402 185.082149 
C 423.009462 185.082149 423.460334 184.895392 423.792716 184.563009 
C 424.125099 184.230626 424.311856 183.779755 424.311856 183.309695 
C 424.311856 182.839635 424.125099 182.388764 423.792716 182.056381 
C 423.460334 181.723998 423.009462 181.537241 422.539402 181.537241 
C 422.069342 181.537241 421.618471 181.723998 421.286088 182.056381 
C 420.953705 182.388764 420.766948 182.839635 420.766948 183.309695 
C 420.766948 183.779755 420.953705 184.230626 421.286088 184.563009 
C 421.618471 184.895392 422.069342 185.082149 422.539402 185.082149 
z
" clip-path="url(#pc64c08d095)" style="stroke: #000000; stroke-width: 0.886227"/>
    <path d="M 430.008265 185.082149 
C 430.478325 185.082149 430.929196 184.895392 431.261579 184.563009 
C 431.593962 184.230626 431.780719 183.779755 431.780719 183.309695 
C 431.780719 182.839635 431.593962 182.388764 431.261579 182.056381 
C 430.929196 181.723998 430.478325 181.537241 430.008265 181.537241 
C 429.538205 181.537241 429.087334 181.723998 428.754951 182.056381 
C 428.422568 182.388764 428.235811 182.839635 428.235811 183.309695 
C 428.235811 183.779755 428.422568 184.230626 428.754951 184.563009 
C 429.087334 184.895392 429.538205 185.082149 430.008265 185.082149 
z
" clip-path="url(#pc64c08d095)" style="stroke: #000000; stroke-width: 0.886227"/>
    <path d="M 437.477128 185.082149 
C 437.947188 185.082149 438.398059 184.895392 438.730442 184.563009 
C 439.062825 184.230626 439.249582 183.779755 439.249582 183.309695 
C 439.249582 182.839635 439.062825 182.388764 438.730442 182.056381 
C 438.398059 181.723998 437.947188 181.537241 437.477128 181.537241 
C 437.007067 181.537241 436.556196 181.723998 436.223814 182.056381 
C 435.891431 182.388764 435.704674 182.839635 435.704674 183.309695 
C 435.704674 183.779755 435.891431 184.230626 436.223814 184.563009 
C 436.556196 184.895392 437.007067 185.082149 437.477128 185.082149 
z
" clip-path="url(#pc64c08d095)" style="stroke: #000000; stroke-width: 0.886227"/>
    <path d="M 444.94599 185.082149 
C 445.416051 185.082149 445.866922 184.895392 446.199305 184.563009 
C 446.531687 184.230626 446.718444 183.779755 446.718444 183.309695 
C 446.718444 182.839635 446.531687 182.388764 446.199305 182.056381 
C 445.866922 181.723998 445.416051 181.537241 444.94599 181.537241 
C 444.47593 181.537241 444.025059 181.723998 443.692676 182.056381 
C 443.360294 182.388764 443.173537 182.839635 443.173537 183.309695 
C 443.173537 183.779755 443.360294 184.230626 443.692676 184.563009 
C 444.025059 184.895392 444.47593 185.082149 444.94599 185.082149 
z
" clip-path="url(#pc64c08d095)" style="stroke: #000000; stroke-width: 0.886227"/>
    <path d="M 452.414853 185.082149 
C 452.884914 185.082149 453.335785 184.895392 453.668167 184.563009 
C 454.00055 184.230626 454.187307 183.779755 454.187307 183.309695 
C 454.187307 182.839635 454.00055 182.388764 453.668167 182.056381 
C 453.335785 181.723998 452.884914 181.537241 452.414853 181.537241 
C 451.944793 181.537241 451.493922 181.723998 451.161539 182.056381 
C 450.829156 182.388764 450.642399 182.839635 450.642399 183.309695 
C 450.642399 183.779755 450.829156 184.230626 451.161539 184.563009 
C 451.493922 184.895392 451.944793 185.082149 452.414853 185.082149 
z
" clip-path="url(#pc64c08d095)" style="stroke: #000000; stroke-width: 0.886227"/>
    <path d="M 459.883716 185.082149 
C 460.353776 185.082149 460.804647 184.895392 461.13703 184.563009 
C 461.469413 184.230626 461.65617 183.779755 461.65617 183.309695 
C 461.65617 182.839635 461.469413 182.388764 461.13703 182.056381 
C 460.804647 181.723998 460.353776 181.537241 459.883716 181.537241 
C 459.413656 181.537241 458.962785 181.723998 458.630402 182.056381 
C 458.298019 182.388764 458.111262 182.839635 458.111262 183.309695 
C 458.111262 183.779755 458.298019 184.230626 458.630402 184.563009 
C 458.962785 184.895392 459.413656 185.082149 459.883716 185.082149 
z
" clip-path="url(#pc64c08d095)" style="stroke: #000000; stroke-width: 0.886227"/>
    <path d="M 467.352579 171.376239 
C 467.822639 171.376239 468.27351 171.189482 468.605893 170.857099 
C 468.938276 170.524716 469.125033 170.073845 469.125033 169.603785 
C 469.125033 169.133725 468.938276 168.682853 468.605893 168.350471 
C 468.27351 168.018088 467.822639 167.831331 467.352579 167.831331 
C 466.882519 167.831331 466.431647 168.018088 466.099265 168.350471 
C 465.766882 168.682853 465.580125 169.133725 465.580125 169.603785 
C 465.580125 170.073845 465.766882 170.524716 466.099265 170.857099 
C 466.431647 171.189482 466.882519 171.376239 467.352579 171.376239 
z
" clip-path="url(#pc64c08d095)" style="stroke: #000000; stroke-width: 0.886227"/>
    <path d="M 474.821442 171.376239 
C 475.291502 171.376239 475.742373 171.189482 476.074756 170.857099 
C 476.407139 170.524716 476.593895 170.073845 476.593895 169.603785 
C 476.593895 169.133725 476.407139 168.682853 476.074756 168.350471 
C 475.742373 168.018088 475.291502 167.831331 474.821442 167.831331 
C 474.351381 167.831331 473.90051 168.018088 473.568127 168.350471 
C 473.235745 168.682853 473.048988 169.133725 473.048988 169.603785 
C 473.048988 170.073845 473.235745 170.524716 473.568127 170.857099 
C 473.90051 171.189482 474.351381 171.376239 474.821442 171.376239 
z
" clip-path="url(#pc64c08d095)" style="stroke: #000000; stroke-width: 0.886227"/>
    <path d="M 482.290304 171.376239 
C 482.760365 171.376239 483.211236 171.189482 483.543619 170.857099 
C 483.876001 170.524716 484.062758 170.073845 484.062758 169.603785 
C 484.062758 169.133725 483.876001 168.682853 483.543619 168.350471 
C 483.211236 168.018088 482.760365 167.831331 482.290304 167.831331 
C 481.820244 167.831331 481.369373 168.018088 481.03699 168.350471 
C 480.704607 168.682853 480.517851 169.133725 480.517851 169.603785 
C 480.517851 170.073845 480.704607 170.524716 481.03699 170.857099 
C 481.369373 171.189482 481.820244 171.376239 482.290304 171.376239 
z
" clip-path="url(#pc64c08d095)" style="stroke: #000000; stroke-width: 0.886227"/>
    <path d="M 489.759167 171.376239 
C 490.229227 171.376239 490.680098 171.189482 491.012481 170.857099 
C 491.344864 170.524716 491.531621 170.073845 491.531621 169.603785 
C 491.531621 169.133725 491.344864 168.682853 491.012481 168.350471 
C 490.680098 168.018088 490.229227 167.831331 489.759167 167.831331 
C 489.289107 167.831331 488.838236 168.018088 488.505853 168.350471 
C 488.17347 168.682853 487.986713 169.133725 487.986713 169.603785 
C 487.986713 170.073845 488.17347 170.524716 488.505853 170.857099 
C 488.838236 171.189482 489.289107 171.376239 489.759167 171.376239 
z
" clip-path="url(#pc64c08d095)" style="stroke: #000000; stroke-width: 0.886227"/>
    <path d="M 497.22803 171.376239 
C 497.69809 171.376239 498.148961 171.189482 498.481344 170.857099 
C 498.813727 170.524716 499.000484 170.073845 499.000484 169.603785 
C 499.000484 169.133725 498.813727 168.682853 498.481344 168.350471 
C 498.148961 168.018088 497.69809 167.831331 497.22803 167.831331 
C 496.75797 167.831331 496.307099 168.018088 495.974716 168.350471 
C 495.642333 168.682853 495.455576 169.133725 495.455576 169.603785 
C 495.455576 170.073845 495.642333 170.524716 495.974716 170.857099 
C 496.307099 171.189482 496.75797 171.376239 497.22803 171.376239 
z
" clip-path="url(#pc64c08d095)" style="stroke: #000000; stroke-width: 0.886227"/>
    <path d="M 504.696893 171.376239 
C 505.166953 171.376239 505.617824 171.189482 505.950207 170.857099 
C 506.28259 170.524716 506.469347 170.073845 506.469347 169.603785 
C 506.469347 169.133725 506.28259 168.682853 505.950207 168.350471 
C 505.617824 168.018088 505.166953 167.831331 504.696893 167.831331 
C 504.226832 167.831331 503.775961 168.018088 503.443579 168.350471 
C 503.111196 168.682853 502.924439 169.133725 502.924439 169.603785 
C 502.924439 170.073845 503.111196 170.524716 503.443579 170.857099 
C 503.775961 171.189482 504.226832 171.376239 504.696893 171.376239 
z
" clip-path="url(#pc64c08d095)" style="stroke: #000000; stroke-width: 0.886227"/>
    <path d="M 512.165755 157.670328 
C 512.635816 157.670328 513.086687 157.483571 513.41907 157.151189 
C 513.751452 156.818806 513.938209 156.367935 513.938209 155.897875 
C 513.938209 155.427814 513.751452 154.976943 513.41907 154.64456 
C 513.086687 154.312178 512.635816 154.125421 512.165755 154.125421 
C 511.695695 154.125421 511.244824 154.312178 510.912441 154.64456 
C 510.580059 154.976943 510.393302 155.427814 510.393302 155.897875 
C 510.393302 156.367935 510.580059 156.818806 510.912441 157.151189 
C 511.244824 157.483571 511.695695 157.670328 512.165755 157.670328 
z
" clip-path="url(#pc64c08d095)" style="stroke: #000000; stroke-width: 0.886227"/>
    <path d="M 519.634618 157.670328 
C 520.104678 157.670328 520.55555 157.483571 520.887932 157.151189 
C 521.220315 156.818806 521.407072 156.367935 521.407072 155.897875 
C 521.407072 155.427814 521.220315 154.976943 520.887932 154.64456 
C 520.55555 154.312178 520.104678 154.125421 519.634618 154.125421 
C 519.164558 154.125421 518.713687 154.312178 518.381304 154.64456 
C 518.048921 154.976943 517.862164 155.427814 517.862164 155.897875 
C 517.862164 156.367935 518.048921 156.818806 518.381304 157.151189 
C 518.713687 157.483571 519.164558 157.670328 519.634618 157.670328 
z
" clip-path="url(#pc64c08d095)" style="stroke: #000000; stroke-width: 0.886227"/>
    <path d="M 527.103481 143.964418 
C 527.573541 143.964418 528.024412 143.777661 528.356795 143.445278 
C 528.689178 143.112896 528.875935 142.662025 528.875935 142.191964 
C 528.875935 141.721904 528.689178 141.271033 528.356795 140.93865 
C 528.024412 140.606267 527.573541 140.41951 527.103481 140.41951 
C 526.633421 140.41951 526.18255 140.606267 525.850167 140.93865 
C 525.517784 141.271033 525.331027 141.721904 525.331027 142.191964 
C 525.331027 142.662025 525.517784 143.112896 525.850167 143.445278 
C 526.18255 143.777661 526.633421 143.964418 527.103481 143.964418 
z
" clip-path="url(#pc64c08d095)" style="stroke: #000000; stroke-width: 0.886227"/>
    <path d="M 534.572344 143.964418 
C 535.042404 143.964418 535.493275 143.777661 535.825658 143.445278 
C 536.158041 143.112896 536.344798 142.662025 536.344798 142.191964 
C 536.344798 141.721904 536.158041 141.271033 535.825658 140.93865 
C 535.493275 140.606267 535.042404 140.41951 534.572344 140.41951 
C 534.102284 140.41951 533.651412 140.606267 533.31903 140.93865 
C 532.986647 141.271033 532.79989 141.721904 532.79989 142.191964 
C 532.79989 142.662025 532.986647 143.112896 533.31903 143.445278 
C 533.651412 143.777661 534.102284 143.964418 534.572344 143.964418 
z
" clip-path="url(#pc64c08d095)" style="stroke: #000000; stroke-width: 0.886227"/>
    <path d="M 542.041207 143.964418 
C 542.511267 143.964418 542.962138 143.777661 543.294521 143.445278 
C 543.626904 143.112896 543.81366 142.662025 543.81366 142.191964 
C 543.81366 141.721904 543.626904 141.271033 543.294521 140.93865 
C 542.962138 140.606267 542.511267 140.41951 542.041207 140.41951 
C 541.571146 140.41951 541.120275 140.606267 540.787892 140.93865 
C 540.45551 141.271033 540.268753 141.721904 540.268753 142.191964 
C 540.268753 142.662025 540.45551 143.112896 540.787892 143.445278 
C 541.120275 143.777661 541.571146 143.964418 542.041207 143.964418 
z
" clip-path="url(#pc64c08d095)" style="stroke: #000000; stroke-width: 0.886227"/>
    <path d="M 549.510069 143.964418 
C 549.98013 143.964418 550.431001 143.777661 550.763383 143.445278 
C 551.095766 143.112896 551.282523 142.662025 551.282523 142.191964 
C 551.282523 141.721904 551.095766 141.271033 550.763383 140.93865 
C 550.431001 140.606267 549.98013 140.41951 549.510069 140.41951 
C 549.040009 140.41951 548.589138 140.606267 548.256755 140.93865 
C 547.924372 141.271033 547.737615 141.721904 547.737615 142.191964 
C 547.737615 142.662025 547.924372 143.112896 548.256755 143.445278 
C 548.589138 143.777661 549.040009 143.964418 549.510069 143.964418 
z
" clip-path="url(#pc64c08d095)" style="stroke: #000000; stroke-width: 0.886227"/>
    <path d="M 556.978932 143.964418 
C 557.448992 143.964418 557.899863 143.777661 558.232246 143.445278 
C 558.564629 143.112896 558.751386 142.662025 558.751386 142.191964 
C 558.751386 141.721904 558.564629 141.271033 558.232246 140.93865 
C 557.899863 140.606267 557.448992 140.41951 556.978932 140.41951 
C 556.508872 140.41951 556.058001 140.606267 555.725618 140.93865 
C 555.393235 141.271033 555.206478 141.721904 555.206478 142.191964 
C 555.206478 142.662025 555.393235 143.112896 555.725618 143.445278 
C 556.058001 143.777661 556.508872 143.964418 556.978932 143.964418 
z
" clip-path="url(#pc64c08d095)" style="stroke: #000000; stroke-width: 0.886227"/>
    <path d="M 564.447795 143.964418 
C 564.917855 143.964418 565.368726 143.777661 565.701109 143.445278 
C 566.033492 143.112896 566.220249 142.662025 566.220249 142.191964 
C 566.220249 141.721904 566.033492 141.271033 565.701109 140.93865 
C 565.368726 140.606267 564.917855 140.41951 564.447795 140.41951 
C 563.977735 140.41951 563.526864 140.606267 563.194481 140.93865 
C 562.862098 141.271033 562.675341 141.721904 562.675341 142.191964 
C 562.675341 142.662025 562.862098 143.112896 563.194481 143.445278 
C 563.526864 143.777661 563.977735 143.964418 564.447795 143.964418 
z
" clip-path="url(#pc64c08d095)" style="stroke: #000000; stroke-width: 0.886227"/>
    <path d="M 571.916658 130.258508 
C 572.386718 130.258508 572.837589 130.071751 573.169972 129.739368 
C 573.502355 129.406985 573.689112 128.956114 573.689112 128.486054 
C 573.689112 128.015994 573.502355 127.565123 573.169972 127.23274 
C 572.837589 126.900357 572.386718 126.7136 571.916658 126.7136 
C 571.446597 126.7136 570.995726 126.900357 570.663344 127.23274 
C 570.330961 127.565123 570.144204 128.015994 570.144204 128.486054 
C 570.144204 128.956114 570.330961 129.406985 570.663344 129.739368 
C 570.995726 130.071751 571.446597 130.258508 571.916658 130.258508 
z
" clip-path="url(#pc64c08d095)" style="stroke: #000000; stroke-width: 0.886227"/>
    <path d="M 579.38552 130.258508 
C 579.855581 130.258508 580.306452 130.071751 580.638835 129.739368 
C 580.971217 129.406985 581.157974 128.956114 581.157974 128.486054 
C 581.157974 128.015994 580.971217 127.565123 580.638835 127.23274 
C 580.306452 126.900357 579.855581 126.7136 579.38552 126.7136 
C 578.91546 126.7136 578.464589 126.900357 578.132206 127.23274 
C 577.799824 127.565123 577.613067 128.015994 577.613067 128.486054 
C 577.613067 128.956114 577.799824 129.406985 578.132206 129.739368 
C 578.464589 130.071751 578.91546 130.258508 579.38552 130.258508 
z
" clip-path="url(#pc64c08d095)" style="stroke: #000000; stroke-width: 0.886227"/>
    <path d="M 586.854383 130.258508 
C 587.324443 130.258508 587.775315 130.071751 588.107697 129.739368 
C 588.44008 129.406985 588.626837 128.956114 588.626837 128.486054 
C 588.626837 128.015994 588.44008 127.565123 588.107697 127.23274 
C 587.775315 126.900357 587.324443 126.7136 586.854383 126.7136 
C 586.384323 126.7136 585.933452 126.900357 585.601069 127.23274 
C 585.268686 127.565123 585.081929 128.015994 585.081929 128.486054 
C 585.081929 128.956114 585.268686 129.406985 585.601069 129.739368 
C 585.933452 130.071751 586.384323 130.258508 586.854383 130.258508 
z
" clip-path="url(#pc64c08d095)" style="stroke: #000000; stroke-width: 0.886227"/>
    <path d="M 594.323246 130.258508 
C 594.793306 130.258508 595.244177 130.071751 595.57656 129.739368 
C 595.908943 129.406985 596.0957 128.956114 596.0957 128.486054 
C 596.0957 128.015994 595.908943 127.565123 595.57656 127.23274 
C 595.244177 126.900357 594.793306 126.7136 594.323246 126.7136 
C 593.853186 126.7136 593.402315 126.900357 593.069932 127.23274 
C 592.737549 127.565123 592.550792 128.015994 592.550792 128.486054 
C 592.550792 128.956114 592.737549 129.406985 593.069932 129.739368 
C 593.402315 130.071751 593.853186 130.258508 594.323246 130.258508 
z
" clip-path="url(#pc64c08d095)" style="stroke: #000000; stroke-width: 0.886227"/>
    <path d="M 601.792109 116.552598 
C 602.262169 116.552598 602.71304 116.365841 603.045423 116.033458 
C 603.377806 115.701075 603.564563 115.250204 603.564563 114.780144 
C 603.564563 114.310083 603.377806 113.859212 603.045423 113.52683 
C 602.71304 113.194447 602.262169 113.00769 601.792109 113.00769 
C 601.322049 113.00769 600.871177 113.194447 600.538795 113.52683 
C 600.206412 113.859212 600.019655 114.310083 600.019655 114.780144 
C 600.019655 115.250204 600.206412 115.701075 600.538795 116.033458 
C 600.871177 116.365841 601.322049 116.552598 601.792109 116.552598 
z
" clip-path="url(#pc64c08d095)" style="stroke: #000000; stroke-width: 0.886227"/>
    <path d="M 609.260972 116.552598 
C 609.731032 116.552598 610.181903 116.365841 610.514286 116.033458 
C 610.846668 115.701075 611.033425 115.250204 611.033425 114.780144 
C 611.033425 114.310083 610.846668 113.859212 610.514286 113.52683 
C 610.181903 113.194447 609.731032 113.00769 609.260972 113.00769 
C 608.790911 113.00769 608.34004 113.194447 608.007657 113.52683 
C 607.675275 113.859212 607.488518 114.310083 607.488518 114.780144 
C 607.488518 115.250204 607.675275 115.701075 608.007657 116.033458 
C 608.34004 116.365841 608.790911 116.552598 609.260972 116.552598 
z
" clip-path="url(#pc64c08d095)" style="stroke: #000000; stroke-width: 0.886227"/>
    <path d="M 616.729834 102.846687 
C 617.199895 102.846687 617.650766 102.65993 617.983148 102.327548 
C 618.315531 101.995165 618.502288 101.544294 618.502288 101.074233 
C 618.502288 100.604173 618.315531 100.153302 617.983148 99.820919 
C 617.650766 99.488536 617.199895 99.30178 616.729834 99.30178 
C 616.259774 99.30178 615.808903 99.488536 615.47652 99.820919 
C 615.144137 100.153302 614.95738 100.604173 614.95738 101.074233 
C 614.95738 101.544294 615.144137 101.995165 615.47652 102.327548 
C 615.808903 102.65993 616.259774 102.846687 616.729834 102.846687 
z
" clip-path="url(#pc64c08d095)" style="stroke: #000000; stroke-width: 0.886227"/>
    <path d="M 624.198697 102.846687 
C 624.668757 102.846687 625.119628 102.65993 625.452011 102.327548 
C 625.784394 101.995165 625.971151 101.544294 625.971151 101.074233 
C 625.971151 100.604173 625.784394 100.153302 625.452011 99.820919 
C 625.119628 99.488536 624.668757 99.30178 624.198697 99.30178 
C 623.728637 99.30178 623.277766 99.488536 622.945383 99.820919 
C 622.613 100.153302 622.426243 100.604173 622.426243 101.074233 
C 622.426243 101.544294 622.613 101.995165 622.945383 102.327548 
C 623.277766 102.65993 623.728637 102.846687 624.198697 102.846687 
z
" clip-path="url(#pc64c08d095)" style="stroke: #000000; stroke-width: 0.886227"/>
    <path d="M 631.66756 102.846687 
C 632.13762 102.846687 632.588491 102.65993 632.920874 102.327548 
C 633.253257 101.995165 633.440014 101.544294 633.440014 101.074233 
C 633.440014 100.604173 633.253257 100.153302 632.920874 99.820919 
C 632.588491 99.488536 632.13762 99.30178 631.66756 99.30178 
C 631.1975 99.30178 630.746629 99.488536 630.414246 99.820919 
C 630.081863 100.153302 629.895106 100.604173 629.895106 101.074233 
C 629.895106 101.544294 630.081863 101.995165 630.414246 102.327548 
C 630.746629 102.65993 631.1975 102.846687 631.66756 102.846687 
z
" clip-path="url(#pc64c08d095)" style="stroke: #000000; stroke-width: 0.886227"/>
    <path d="M 639.136423 102.846687 
C 639.606483 102.846687 640.057354 102.65993 640.389737 102.327548 
C 640.72212 101.995165 640.908877 101.544294 640.908877 101.074233 
C 640.908877 100.604173 640.72212 100.153302 640.389737 99.820919 
C 640.057354 99.488536 639.606483 99.30178 639.136423 99.30178 
C 638.666362 99.30178 638.215491 99.488536 637.883109 99.820919 
C 637.550726 100.153302 637.363969 100.604173 637.363969 101.074233 
C 637.363969 101.544294 637.550726 101.995165 637.883109 102.327548 
C 638.215491 102.65993 638.666362 102.846687 639.136423 102.846687 
z
" clip-path="url(#pc64c08d095)" style="stroke: #000000; stroke-width: 0.886227"/>
    <path d="M 646.605285 102.846687 
C 647.075346 102.846687 647.526217 102.65993 647.8586 102.327548 
C 648.190982 101.995165 648.377739 101.544294 648.377739 101.074233 
C 648.377739 100.604173 648.190982 100.153302 647.8586 99.820919 
C 647.526217 99.488536 647.075346 99.30178 646.605285 99.30178 
C 646.135225 99.30178 645.684354 99.488536 645.351971 99.820919 
C 645.019588 100.153302 644.832832 100.604173 644.832832 101.074233 
C 644.832832 101.544294 645.019588 101.995165 645.351971 102.327548 
C 645.684354 102.65993 646.135225 102.846687 646.605285 102.846687 
z
" clip-path="url(#pc64c08d095)" style="stroke: #000000; stroke-width: 0.886227"/>
    <path d="M 654.074148 102.846687 
C 654.544208 102.846687 654.99508 102.65993 655.327462 102.327548 
C 655.659845 101.995165 655.846602 101.544294 655.846602 101.074233 
C 655.846602 100.604173 655.659845 100.153302 655.327462 99.820919 
C 654.99508 99.488536 654.544208 99.30178 654.074148 99.30178 
C 653.604088 99.30178 653.153217 99.488536 652.820834 99.820919 
C 652.488451 100.153302 652.301694 100.604173 652.301694 101.074233 
C 652.301694 101.544294 652.488451 101.995165 652.820834 102.327548 
C 653.153217 102.65993 653.604088 102.846687 654.074148 102.846687 
z
" clip-path="url(#pc64c08d095)" style="stroke: #000000; stroke-width: 0.886227"/>
    <path d="M 661.543011 89.140777 
C 662.013071 89.140777 662.463942 88.95402 662.796325 88.621637 
C 663.128708 88.289254 663.315465 87.838383 663.315465 87.368323 
C 663.315465 86.898263 663.128708 86.447392 662.796325 86.115009 
C 662.463942 85.782626 662.013071 85.595869 661.543011 85.595869 
C 661.072951 85.595869 660.62208 85.782626 660.289697 86.115009 
C 659.957314 86.447392 659.770557 86.898263 659.770557 87.368323 
C 659.770557 87.838383 659.957314 88.289254 660.289697 88.621637 
C 660.62208 88.95402 661.072951 89.140777 661.543011 89.140777 
z
" clip-path="url(#pc64c08d095)" style="stroke: #000000; stroke-width: 0.886227"/>
    <path d="M 669.011874 89.140777 
C 669.481934 89.140777 669.932805 88.95402 670.265188 88.621637 
C 670.597571 88.289254 670.784328 87.838383 670.784328 87.368323 
C 670.784328 86.898263 670.597571 86.447392 670.265188 86.115009 
C 669.932805 85.782626 669.481934 85.595869 669.011874 85.595869 
C 668.541813 85.595869 668.090942 85.782626 667.75856 86.115009 
C 667.426177 86.447392 667.23942 86.898263 667.23942 87.368323 
C 667.23942 87.838383 667.426177 88.289254 667.75856 88.621637 
C 668.090942 88.95402 668.541813 89.140777 669.011874 89.140777 
z
" clip-path="url(#pc64c08d095)" style="stroke: #000000; stroke-width: 0.886227"/>
    <path d="M 676.480737 89.140777 
C 676.950797 89.140777 677.401668 88.95402 677.734051 88.621637 
C 678.066433 88.289254 678.25319 87.838383 678.25319 87.368323 
C 678.25319 86.898263 678.066433 86.447392 677.734051 86.115009 
C 677.401668 85.782626 676.950797 85.595869 676.480737 85.595869 
C 676.010676 85.595869 675.559805 85.782626 675.227422 86.115009 
C 674.89504 86.447392 674.708283 86.898263 674.708283 87.368323 
C 674.708283 87.838383 674.89504 88.289254 675.227422 88.621637 
C 675.559805 88.95402 676.010676 89.140777 676.480737 89.140777 
z
" clip-path="url(#pc64c08d095)" style="stroke: #000000; stroke-width: 0.886227"/>
    <path d="M 683.949599 89.140777 
C 684.41966 89.140777 684.870531 88.95402 685.202913 88.621637 
C 685.535296 88.289254 685.722053 87.838383 685.722053 87.368323 
C 685.722053 86.898263 685.535296 86.447392 685.202913 86.115009 
C 684.870531 85.782626 684.41966 85.595869 683.949599 85.595869 
C 683.479539 85.595869 683.028668 85.782626 682.696285 86.115009 
C 682.363902 86.447392 682.177145 86.898263 682.177145 87.368323 
C 682.177145 87.838383 682.363902 88.289254 682.696285 88.621637 
C 683.028668 88.95402 683.479539 89.140777 683.949599 89.140777 
z
" clip-path="url(#pc64c08d095)" style="stroke: #000000; stroke-width: 0.886227"/>
    <path d="M 691.418462 75.434867 
C 691.888522 75.434867 692.339393 75.24811 692.671776 74.915727 
C 693.004159 74.583344 693.190916 74.132473 693.190916 73.662413 
C 693.190916 73.192353 693.004159 72.741482 692.671776 72.409099 
C 692.339393 72.076716 691.888522 71.889959 691.418462 71.889959 
C 690.948402 71.889959 690.497531 72.076716 690.165148 72.409099 
C 689.832765 72.741482 689.646008 73.192353 689.646008 73.662413 
C 689.646008 74.132473 689.832765 74.583344 690.165148 74.915727 
C 690.497531 75.24811 690.948402 75.434867 691.418462 75.434867 
z
" clip-path="url(#pc64c08d095)" style="stroke: #000000; stroke-width: 0.886227"/>
    <path d="M 698.887325 75.434867 
C 699.357385 75.434867 699.808256 75.24811 700.140639 74.915727 
C 700.473022 74.583344 700.659779 74.132473 700.659779 73.662413 
C 700.659779 73.192353 700.473022 72.741482 700.140639 72.409099 
C 699.808256 72.076716 699.357385 71.889959 698.887325 71.889959 
C 698.417265 71.889959 697.966394 72.076716 697.634011 72.409099 
C 697.301628 72.741482 697.114871 73.192353 697.114871 73.662413 
C 697.114871 74.132473 697.301628 74.583344 697.634011 74.915727 
C 697.966394 75.24811 698.417265 75.434867 698.887325 75.434867 
z
" clip-path="url(#pc64c08d095)" style="stroke: #000000; stroke-width: 0.886227"/>
    <path d="M 706.356188 75.434867 
C 706.826248 75.434867 707.277119 75.24811 707.609502 74.915727 
C 707.941885 74.583344 708.128641 74.132473 708.128641 73.662413 
C 708.128641 73.192353 707.941885 72.741482 707.609502 72.409099 
C 707.277119 72.076716 706.826248 71.889959 706.356188 71.889959 
C 705.886127 71.889959 705.435256 72.076716 705.102873 72.409099 
C 704.770491 72.741482 704.583734 73.192353 704.583734 73.662413 
C 704.583734 74.132473 704.770491 74.583344 705.102873 74.915727 
C 705.435256 75.24811 705.886127 75.434867 706.356188 75.434867 
z
" clip-path="url(#pc64c08d095)" style="stroke: #000000; stroke-width: 0.886227"/>
    <path d="M 713.82505 75.434867 
C 714.295111 75.434867 714.745982 75.24811 715.078365 74.915727 
C 715.410747 74.583344 715.597504 74.132473 715.597504 73.662413 
C 715.597504 73.192353 715.410747 72.741482 715.078365 72.409099 
C 714.745982 72.076716 714.295111 71.889959 713.82505 71.889959 
C 713.35499 71.889959 712.904119 72.076716 712.571736 72.409099 
C 712.239353 72.741482 712.052597 73.192353 712.052597 73.662413 
C 712.052597 74.132473 712.239353 74.583344 712.571736 74.915727 
C 712.904119 75.24811 713.35499 75.434867 713.82505 75.434867 
z
" clip-path="url(#pc64c08d095)" style="stroke: #000000; stroke-width: 0.886227"/>
    <path d="M 721.293913 75.434867 
C 721.763973 75.434867 722.214845 75.24811 722.547227 74.915727 
C 722.87961 74.583344 723.066367 74.132473 723.066367 73.662413 
C 723.066367 73.192353 722.87961 72.741482 722.547227 72.409099 
C 722.214845 72.076716 721.763973 71.889959 721.293913 71.889959 
C 720.823853 71.889959 720.372982 72.076716 720.040599 72.409099 
C 719.708216 72.741482 719.521459 73.192353 719.521459 73.662413 
C 719.521459 74.132473 719.708216 74.583344 720.040599 74.915727 
C 720.372982 75.24811 720.823853 75.434867 721.293913 75.434867 
z
" clip-path="url(#pc64c08d095)" style="stroke: #000000; stroke-width: 0.886227"/>
    <path d="M 728.762776 75.434867 
C 729.232836 75.434867 729.683707 75.24811 730.01609 74.915727 
C 730.348473 74.583344 730.53523 74.132473 730.53523 73.662413 
C 730.53523 73.192353 730.348473 72.741482 730.01609 72.409099 
C 729.683707 72.076716 729.232836 71.889959 728.762776 71.889959 
C 728.292716 71.889959 727.841845 72.076716 727.509462 72.409099 
C 727.177079 72.741482 726.990322 73.192353 726.990322 73.662413 
C 726.990322 74.132473 727.177079 74.583344 727.509462 74.915727 
C 727.841845 75.24811 728.292716 75.434867 728.762776 75.434867 
z
" clip-path="url(#pc64c08d095)" style="stroke: #000000; stroke-width: 0.886227"/>
    <path d="M 736.231639 61.728956 
C 736.701699 61.728956 737.15257 61.5422 737.484953 61.209817 
C 737.817336 60.877434 738.004093 60.426563 738.004093 59.956503 
C 738.004093 59.486442 737.817336 59.035571 737.484953 58.703188 
C 737.15257 58.370806 736.701699 58.184049 736.231639 58.184049 
C 735.761578 58.184049 735.310707 58.370806 734.978325 58.703188 
C 734.645942 59.035571 734.459185 59.486442 734.459185 59.956503 
C 734.459185 60.426563 734.645942 60.877434 734.978325 61.209817 
C 735.310707 61.5422 735.761578 61.728956 736.231639 61.728956 
z
" clip-path="url(#pc64c08d095)" style="stroke: #000000; stroke-width: 0.886227"/>
    <path d="M 743.700502 61.728956 
C 744.170562 61.728956 744.621433 61.5422 744.953816 61.209817 
C 745.286198 60.877434 745.472955 60.426563 745.472955 59.956503 
C 745.472955 59.486442 745.286198 59.035571 744.953816 58.703188 
C 744.621433 58.370806 744.170562 58.184049 743.700502 58.184049 
C 743.230441 58.184049 742.77957 58.370806 742.447187 58.703188 
C 742.114805 59.035571 741.928048 59.486442 741.928048 59.956503 
C 741.928048 60.426563 742.114805 60.877434 742.447187 61.209817 
C 742.77957 61.5422 743.230441 61.728956 743.700502 61.728956 
z
" clip-path="url(#pc64c08d095)" style="stroke: #000000; stroke-width: 0.886227"/>
    <path d="M 751.169364 61.728956 
C 751.639425 61.728956 752.090296 61.5422 752.422678 61.209817 
C 752.755061 60.877434 752.941818 60.426563 752.941818 59.956503 
C 752.941818 59.486442 752.755061 59.035571 752.422678 58.703188 
C 752.090296 58.370806 751.639425 58.184049 751.169364 58.184049 
C 750.699304 58.184049 750.248433 58.370806 749.91605 58.703188 
C 749.583667 59.035571 749.39691 59.486442 749.39691 59.956503 
C 749.39691 60.426563 749.583667 60.877434 749.91605 61.209817 
C 750.248433 61.5422 750.699304 61.728956 751.169364 61.728956 
z
" clip-path="url(#pc64c08d095)" style="stroke: #000000; stroke-width: 0.886227"/>
    <path d="M 758.638227 61.728956 
C 759.108287 61.728956 759.559158 61.5422 759.891541 61.209817 
C 760.223924 60.877434 760.410681 60.426563 760.410681 59.956503 
C 760.410681 59.486442 760.223924 59.035571 759.891541 58.703188 
C 759.559158 58.370806 759.108287 58.184049 758.638227 58.184049 
C 758.168167 58.184049 757.717296 58.370806 757.384913 58.703188 
C 757.05253 59.035571 756.865773 59.486442 756.865773 59.956503 
C 756.865773 60.426563 757.05253 60.877434 757.384913 61.209817 
C 757.717296 61.5422 758.168167 61.728956 758.638227 61.728956 
z
" clip-path="url(#pc64c08d095)" style="stroke: #000000; stroke-width: 0.886227"/>
    <path d="M 766.10709 61.728956 
C 766.57715 61.728956 767.028021 61.5422 767.360404 61.209817 
C 767.692787 60.877434 767.879544 60.426563 767.879544 59.956503 
C 767.879544 59.486442 767.692787 59.035571 767.360404 58.703188 
C 767.028021 58.370806 766.57715 58.184049 766.10709 58.184049 
C 765.63703 58.184049 765.186158 58.370806 764.853776 58.703188 
C 764.521393 59.035571 764.334636 59.486442 764.334636 59.956503 
C 764.334636 60.426563 764.521393 60.877434 764.853776 61.209817 
C 765.186158 61.5422 765.63703 61.728956 766.10709 61.728956 
z
" clip-path="url(#pc64c08d095)" style="stroke: #000000; stroke-width: 0.886227"/>
    <path d="M 773.575953 61.728956 
C 774.046013 61.728956 774.496884 61.5422 774.829267 61.209817 
C 775.16165 60.877434 775.348406 60.426563 775.348406 59.956503 
C 775.348406 59.486442 775.16165 59.035571 774.829267 58.703188 
C 774.496884 58.370806 774.046013 58.184049 773.575953 58.184049 
C 773.105892 58.184049 772.655021 58.370806 772.322638 58.703188 
C 771.990256 59.035571 771.803499 59.486442 771.803499 59.956503 
C 771.803499 60.426563 771.990256 60.877434 772.322638 61.209817 
C 772.655021 61.5422 773.105892 61.728956 773.575953 61.728956 
z
" clip-path="url(#pc64c08d095)" style="stroke: #000000; stroke-width: 0.886227"/>
    <path d="M 781.044815 61.728956 
C 781.514876 61.728956 781.965747 61.5422 782.29813 61.209817 
C 782.630512 60.877434 782.817269 60.426563 782.817269 59.956503 
C 782.817269 59.486442 782.630512 59.035571 782.29813 58.703188 
C 781.965747 58.370806 781.514876 58.184049 781.044815 58.184049 
C 780.574755 58.184049 780.123884 58.370806 779.791501 58.703188 
C 779.459118 59.035571 779.272362 59.486442 779.272362 59.956503 
C 779.272362 60.426563 779.459118 60.877434 779.791501 61.209817 
C 780.123884 61.5422 780.574755 61.728956 781.044815 61.728956 
z
" clip-path="url(#pc64c08d095)" style="stroke: #000000; stroke-width: 0.886227"/>
    <path d="M 788.513678 61.728956 
C 788.983738 61.728956 789.43461 61.5422 789.766992 61.209817 
C 790.099375 60.877434 790.286132 60.426563 790.286132 59.956503 
C 790.286132 59.486442 790.099375 59.035571 789.766992 58.703188 
C 789.43461 58.370806 788.983738 58.184049 788.513678 58.184049 
C 788.043618 58.184049 787.592747 58.370806 787.260364 58.703188 
C 786.927981 59.035571 786.741224 59.486442 786.741224 59.956503 
C 786.741224 60.426563 786.927981 60.877434 787.260364 61.209817 
C 787.592747 61.5422 788.043618 61.728956 788.513678 61.728956 
z
" clip-path="url(#pc64c08d095)" style="stroke: #000000; stroke-width: 0.886227"/>
    <path d="M 795.982541 48.023046 
C 796.452601 48.023046 796.903472 47.836289 797.235855 47.503906 
C 797.568238 47.171524 797.754995 46.720653 797.754995 46.250592 
C 797.754995 45.780532 797.568238 45.329661 797.235855 44.997278 
C 796.903472 44.664895 796.452601 44.478138 795.982541 44.478138 
C 795.512481 44.478138 795.06161 44.664895 794.729227 44.997278 
C 794.396844 45.329661 794.210087 45.780532 794.210087 46.250592 
C 794.210087 46.720653 794.396844 47.171524 794.729227 47.503906 
C 795.06161 47.836289 795.512481 48.023046 795.982541 48.023046 
z
" clip-path="url(#pc64c08d095)" style="stroke: #000000; stroke-width: 0.886227"/>
    <path d="M 803.451404 48.023046 
C 803.921464 48.023046 804.372335 47.836289 804.704718 47.503906 
C 805.037101 47.171524 805.223858 46.720653 805.223858 46.250592 
C 805.223858 45.780532 805.037101 45.329661 804.704718 44.997278 
C 804.372335 44.664895 803.921464 44.478138 803.451404 44.478138 
C 802.981343 44.478138 802.530472 44.664895 802.19809 44.997278 
C 801.865707 45.329661 801.67895 45.780532 801.67895 46.250592 
C 801.67895 46.720653 801.865707 47.171524 802.19809 47.503906 
C 802.530472 47.836289 802.981343 48.023046 803.451404 48.023046 
z
" clip-path="url(#pc64c08d095)" style="stroke: #000000; stroke-width: 0.886227"/>
    <path d="M 810.920266 48.023046 
C 811.390327 48.023046 811.841198 47.836289 812.173581 47.503906 
C 812.505963 47.171524 812.69272 46.720653 812.69272 46.250592 
C 812.69272 45.780532 812.505963 45.329661 812.173581 44.997278 
C 811.841198 44.664895 811.390327 44.478138 810.920266 44.478138 
C 810.450206 44.478138 809.999335 44.664895 809.666952 44.997278 
C 809.33457 45.329661 809.147813 45.780532 809.147813 46.250592 
C 809.147813 46.720653 809.33457 47.171524 809.666952 47.503906 
C 809.999335 47.836289 810.450206 48.023046 810.920266 48.023046 
z
" clip-path="url(#pc64c08d095)" style="stroke: #000000; stroke-width: 0.886227"/>
    <path d="M 818.389129 48.023046 
C 818.85919 48.023046 819.310061 47.836289 819.642443 47.503906 
C 819.974826 47.171524 820.161583 46.720653 820.161583 46.250592 
C 820.161583 45.780532 819.974826 45.329661 819.642443 44.997278 
C 819.310061 44.664895 818.85919 44.478138 818.389129 44.478138 
C 817.919069 44.478138 817.468198 44.664895 817.135815 44.997278 
C 816.803432 45.329661 816.616675 45.780532 816.616675 46.250592 
C 816.616675 46.720653 816.803432 47.171524 817.135815 47.503906 
C 817.468198 47.836289 817.919069 48.023046 818.389129 48.023046 
z
" clip-path="url(#pc64c08d095)" style="stroke: #000000; stroke-width: 0.886227"/>
   </g>
  </g>
  <g id="patch_3">
   <path d="M 42.000844 391.639531 
L 855.36 391.639531 
L 855.36 29.8035 
L 42.000844 29.8035 
L 42.000844 391.639531 
z
" style="fill: none; stroke: #7f7f7f; stroke-linejoin: miter"/>
  </g>
  <g id="text_12">
   <!-- Prime counting function -->
   <g transform="translate(379.713516 18.243) scale(0.132 -0.132)">
    <defs>
     <path id="Helvetica-50" d="M 547 4591 
L 2613 4591 
Q 3225 4591 3600 4245 
Q 3975 3900 3975 3275 
Q 3975 2738 3640 2339 
Q 3306 1941 2613 1941 
L 1169 1941 
L 1169 0 
L 547 0 
L 547 4591 
z
M 3347 3272 
Q 3347 3778 2972 3959 
Q 2766 4056 2406 4056 
L 1169 4056 
L 1169 2466 
L 2406 2466 
Q 2825 2466 3086 2644 
Q 3347 2822 3347 3272 
z
" transform="scale(0.015625)"/>
     <path id="Helvetica-72" d="M 428 3347 
L 963 3347 
L 963 2769 
Q 1028 2938 1284 3180 
Q 1541 3422 1875 3422 
Q 1891 3422 1928 3419 
Q 1966 3416 2056 3406 
L 2056 2813 
Q 2006 2822 1964 2825 
Q 1922 2828 1872 2828 
Q 1447 2828 1219 2554 
Q 991 2281 991 1925 
L 991 0 
L 428 0 
L 428 3347 
z
" transform="scale(0.015625)"/>
     <path id="Helvetica-69" d="M 413 3331 
L 984 3331 
L 984 0 
L 413 0 
L 413 3331 
z
M 413 4591 
L 984 4591 
L 984 3953 
L 413 3953 
L 413 4591 
z
" transform="scale(0.015625)"/>
     <path id="Helvetica-6d" d="M 413 3347 
L 969 3347 
L 969 2872 
Q 1169 3119 1331 3231 
Q 1609 3422 1963 3422 
Q 2363 3422 2606 3225 
Q 2744 3113 2856 2894 
Q 3044 3163 3297 3292 
Q 3550 3422 3866 3422 
Q 4541 3422 4784 2934 
Q 4916 2672 4916 2228 
L 4916 0 
L 4331 0 
L 4331 2325 
Q 4331 2659 4164 2784 
Q 3997 2909 3756 2909 
Q 3425 2909 3186 2687 
Q 2947 2466 2947 1947 
L 2947 0 
L 2375 0 
L 2375 2184 
Q 2375 2525 2294 2681 
Q 2166 2916 1816 2916 
Q 1497 2916 1236 2669 
Q 975 2422 975 1775 
L 975 0 
L 413 0 
L 413 3347 
z
" transform="scale(0.015625)"/>
     <path id="Helvetica-65" d="M 1806 3422 
Q 2163 3422 2497 3255 
Q 2831 3088 3006 2822 
Q 3175 2569 3231 2231 
Q 3281 2000 3281 1494 
L 828 1494 
Q 844 984 1069 676 
Q 1294 369 1766 369 
Q 2206 369 2469 659 
Q 2619 828 2681 1050 
L 3234 1050 
Q 3213 866 3089 639 
Q 2966 413 2813 269 
Q 2556 19 2178 -69 
Q 1975 -119 1719 -119 
Q 1094 -119 659 336 
Q 225 791 225 1609 
Q 225 2416 662 2919 
Q 1100 3422 1806 3422 
z
M 2703 1941 
Q 2669 2306 2544 2525 
Q 2313 2931 1772 2931 
Q 1384 2931 1121 2651 
Q 859 2372 844 1941 
L 2703 1941 
z
M 1753 3428 
L 1753 3428 
z
" transform="scale(0.015625)"/>
     <path id="Helvetica-20" transform="scale(0.015625)"/>
     <path id="Helvetica-63" d="M 1703 3444 
Q 2269 3444 2623 3169 
Q 2978 2894 3050 2222 
L 2503 2222 
Q 2453 2531 2275 2736 
Q 2097 2941 1703 2941 
Q 1166 2941 934 2416 
Q 784 2075 784 1575 
Q 784 1072 996 728 
Q 1209 384 1666 384 
Q 2016 384 2220 598 
Q 2425 813 2503 1184 
L 3050 1184 
Q 2956 519 2581 211 
Q 2206 -97 1622 -97 
Q 966 -97 575 383 
Q 184 863 184 1581 
Q 184 2463 612 2953 
Q 1041 3444 1703 3444 
z
M 1616 3428 
L 1616 3428 
z
" transform="scale(0.015625)"/>
     <path id="Helvetica-6f" d="M 1741 363 
Q 2300 363 2508 786 
Q 2716 1209 2716 1728 
Q 2716 2197 2566 2491 
Q 2328 2953 1747 2953 
Q 1231 2953 997 2559 
Q 763 2166 763 1609 
Q 763 1075 997 719 
Q 1231 363 1741 363 
z
M 1763 3444 
Q 2409 3444 2856 3012 
Q 3303 2581 3303 1744 
Q 3303 934 2909 406 
Q 2516 -122 1688 -122 
Q 997 -122 590 345 
Q 184 813 184 1600 
Q 184 2444 612 2944 
Q 1041 3444 1763 3444 
z
M 1744 3428 
L 1744 3428 
z
" transform="scale(0.015625)"/>
     <path id="Helvetica-75" d="M 975 3347 
L 975 1125 
Q 975 869 1056 706 
Q 1206 406 1616 406 
Q 2203 406 2416 931 
Q 2531 1213 2531 1703 
L 2531 3347 
L 3094 3347 
L 3094 0 
L 2563 0 
L 2569 494 
Q 2459 303 2297 172 
Q 1975 -91 1516 -91 
Q 800 -91 541 388 
Q 400 644 400 1072 
L 400 3347 
L 975 3347 
z
M 1747 3428 
L 1747 3428 
z
" transform="scale(0.015625)"/>
     <path id="Helvetica-6e" d="M 413 3347 
L 947 3347 
L 947 2872 
Q 1184 3166 1450 3294 
Q 1716 3422 2041 3422 
Q 2753 3422 3003 2925 
Q 3141 2653 3141 2147 
L 3141 0 
L 2569 0 
L 2569 2109 
Q 2569 2416 2478 2603 
Q 2328 2916 1934 2916 
Q 1734 2916 1606 2875 
Q 1375 2806 1200 2600 
Q 1059 2434 1017 2257 
Q 975 2081 975 1753 
L 975 0 
L 413 0 
L 413 3347 
z
M 1734 3428 
L 1734 3428 
z
" transform="scale(0.015625)"/>
     <path id="Helvetica-74" d="M 525 4281 
L 1094 4281 
L 1094 3347 
L 1628 3347 
L 1628 2888 
L 1094 2888 
L 1094 703 
Q 1094 528 1213 469 
Q 1278 434 1431 434 
Q 1472 434 1519 436 
Q 1566 438 1628 444 
L 1628 0 
Q 1531 -28 1426 -40 
Q 1322 -53 1200 -53 
Q 806 -53 665 148 
Q 525 350 525 672 
L 525 2888 
L 72 2888 
L 72 3347 
L 525 3347 
L 525 4281 
z
" transform="scale(0.015625)"/>
     <path id="Helvetica-67" d="M 1594 3406 
Q 1988 3406 2281 3213 
Q 2441 3103 2606 2894 
L 2606 3316 
L 3125 3316 
L 3125 272 
Q 3125 -366 2938 -734 
Q 2588 -1416 1616 -1416 
Q 1075 -1416 706 -1173 
Q 338 -931 294 -416 
L 866 -416 
Q 906 -641 1028 -763 
Q 1219 -950 1628 -950 
Q 2275 -950 2475 -494 
Q 2594 -225 2584 466 
Q 2416 209 2178 84 
Q 1941 -41 1550 -41 
Q 1006 -41 598 345 
Q 191 731 191 1622 
Q 191 2463 602 2934 
Q 1013 3406 1594 3406 
z
M 2606 1688 
Q 2606 2309 2350 2609 
Q 2094 2909 1697 2909 
Q 1103 2909 884 2353 
Q 769 2056 769 1575 
Q 769 1009 998 714 
Q 1228 419 1616 419 
Q 2222 419 2469 966 
Q 2606 1275 2606 1688 
z
M 1659 3428 
L 1659 3428 
z
" transform="scale(0.015625)"/>
     <path id="Helvetica-66" d="M 553 3856 
Q 566 4206 675 4369 
Q 872 4656 1434 4656 
Q 1488 4656 1544 4653 
Q 1600 4650 1672 4644 
L 1672 4131 
Q 1584 4138 1545 4139 
Q 1506 4141 1472 4141 
Q 1216 4141 1166 4008 
Q 1116 3875 1116 3331 
L 1672 3331 
L 1672 2888 
L 1109 2888 
L 1109 0 
L 553 0 
L 553 2888 
L 88 2888 
L 88 3331 
L 553 3331 
L 553 3856 
z
" transform="scale(0.015625)"/>
    </defs>
    <use xlink:href="#Helvetica-50"/>
    <use xlink:href="#Helvetica-72" transform="translate(66.699219 0)"/>
    <use xlink:href="#Helvetica-69" transform="translate(100 0)"/>
    <use xlink:href="#Helvetica-6d" transform="translate(122.216797 0)"/>
    <use xlink:href="#Helvetica-65" transform="translate(205.517578 0)"/>
    <use xlink:href="#Helvetica-20" transform="translate(261.132812 0)"/>
    <use xlink:href="#Helvetica-63" transform="translate(288.916016 0)"/>
    <use xlink:href="#Helvetica-6f" transform="translate(338.916016 0)"/>
    <use xlink:href="#Helvetica-75" transform="translate(394.53125 0)"/>
    <use xlink:href="#Helvetica-6e" transform="translate(450.146484 0)"/>
    <use xlink:href="#Helvetica-74" transform="translate(505.761719 0)"/>
    <use xlink:href="#Helvetica-69" transform="translate(533.544922 0)"/>
    <use xlink:href="#Helvetica-6e" transform="translate(555.761719 0)"/>
    <use xlink:href="#Helvetica-67" transform="translate(611.376953 0)"/>
    <use xlink:href="#Helvetica-20" transform="translate(666.992188 0)"/>
    <use xlink:href="#Helvetica-66" transform="translate(694.775391 0)"/>
    <use xlink:href="#Helvetica-75" transform="translate(722.558594 0)"/>
    <use xlink:href="#Helvetica-6e" transform="translate(778.173828 0)"/>
    <use xlink:href="#Helvetica-63" transform="translate(833.789062 0)"/>
    <use xlink:href="#Helvetica-74" transform="translate(883.789062 0)"/>
    <use xlink:href="#Helvetica-69" transform="translate(911.572266 0)"/>
    <use xlink:href="#Helvetica-6f" transform="translate(933.789062 0)"/>
    <use xlink:href="#Helvetica-6e" transform="translate(989.404297 0)"/>
   </g>
  </g>
  <g id="text_13">
   <!-- $N$ -->
   <g transform="translate(444.555422 421.067187) scale(0.11 -0.11)">
    <defs>
     <path id="DejaVuSans-Oblique-4e" d="M 1081 4666 
L 1931 4666 
L 3219 666 
L 4000 4666 
L 4616 4666 
L 3706 0 
L 2853 0 
L 1569 4025 
L 788 0 
L 172 0 
L 1081 4666 
z
" transform="scale(0.015625)"/>
    </defs>
    <use xlink:href="#DejaVuSans-Oblique-4e" transform="translate(0 0.09375)"/>
   </g>
  </g>
  <g id="text_14">
   <!-- $\pi(N)$ -->
   <g transform="translate(16.530781 222.491516) rotate(-90) scale(0.11 -0.11)">
    <defs>
     <path id="DejaVuSans-Oblique-3c0" d="M 584 3500 
L 3938 3500 
L 3825 2925 
L 3384 2925 
L 2966 775 
Q 2922 550 2981 450 
Q 3038 353 3209 353 
Q 3256 353 3325 363 
Q 3397 369 3419 372 
L 3338 -44 
Q 3222 -84 3103 -103 
Q 2981 -122 2866 -122 
Q 2491 -122 2388 81 
Q 2284 288 2391 838 
L 2797 2925 
L 1506 2925 
L 938 0 
L 350 0 
L 919 2925 
L 472 2925 
L 584 3500 
z
" transform="scale(0.015625)"/>
     <path id="DejaVuSans-28" d="M 1984 4856 
Q 1566 4138 1362 3434 
Q 1159 2731 1159 2009 
Q 1159 1288 1364 580 
Q 1569 -128 1984 -844 
L 1484 -844 
Q 1016 -109 783 600 
Q 550 1309 550 2009 
Q 550 2706 781 3412 
Q 1013 4119 1484 4856 
L 1984 4856 
z
" transform="scale(0.015625)"/>
     <path id="DejaVuSans-29" d="M 513 4856 
L 1013 4856 
Q 1481 4119 1714 3412 
Q 1947 2706 1947 2009 
Q 1947 1309 1714 600 
Q 1481 -109 1013 -844 
L 513 -844 
Q 928 -128 1133 580 
Q 1338 1288 1338 2009 
Q 1338 2731 1133 3434 
Q 928 4138 513 4856 
z
" transform="scale(0.015625)"/>
    </defs>
    <use xlink:href="#DejaVuSans-Oblique-3c0" transform="translate(0 0.125)"/>
    <use xlink:href="#DejaVuSans-28" transform="translate(60.205078 0.125)"/>
    <use xlink:href="#DejaVuSans-Oblique-4e" transform="translate(99.21875 0.125)"/>
    <use xlink:href="#DejaVuSans-29" transform="translate(174.023438 0.125)"/>
   </g>
  </g>
 </g>
 <defs>
  <clipPath id="pc64c08d095">
   <rect x="42.000844" y="29.8035" width="813.359156" height="361.836031"/>
  </clipPath>
 </defs>
</svg>
