<?xml version="1.0" encoding="utf-8" standalone="no"?>
<!DOCTYPE svg PUBLIC "-//W3C//DTD SVG 1.1//EN"
  "http://www.w3.org/Graphics/SVG/1.1/DTD/svg11.dtd">
<svg xmlns:xlink="http://www.w3.org/1999/xlink" width="864pt" height="432pt" viewBox="0 0 864 432" xmlns="http://www.w3.org/2000/svg" version="1.1">
 <metadata>
  <rdf:RDF xmlns:dc="http://purl.org/dc/elements/1.1/" xmlns:cc="http://creativecommons.org/ns#" xmlns:rdf="http://www.w3.org/1999/02/22-rdf-syntax-ns#">
   <cc:Work>
    <dc:type rdf:resource="http://purl.org/dc/dcmitype/StillImage"/>
    <dc:date>2024-12-28T03:35:18.532278</dc:date>
    <dc:format>image/svg+xml</dc:format>
    <dc:creator>
     <cc:Agent>
      <dc:title>Matplotlib v3.10.0, https://matplotlib.org/</dc:title>
     </cc:Agent>
    </dc:creator>
   </cc:Work>
  </rdf:RDF>
 </metadata>
 <defs>
  <style type="text/css">*{stroke-linejoin: round; stroke-linecap: butt}</style>
 </defs>
 <g id="figure_1">
  <g id="patch_1">
   <path d="M 0 432 
L 864 432 
L 864 0 
L 0 0 
z
" style="fill: #ffffff; stroke: #ffffff; stroke-linejoin: miter"/>
  </g>
  <g id="axes_1">
   <g id="patch_2">
    <path d="M 42.000844 391.639531 
L 855.36 391.639531 
L 855.36 29.8035 
L 42.000844 29.8035 
z
" style="fill: #ffffff"/>
   </g>
   <g id="matplotlib.axis_1">
    <g id="xtick_1">
     <g id="line2d_1">
      <path d="M 63.881563 391.639531 
L 63.881563 29.8035 
" clip-path="url(#p703be1417d)" style="fill: none; stroke: #e5e5e5; stroke-linecap: square"/>
     </g>
     <g id="line2d_2">
      <path d="M 63.881563 391.639531 
" style="fill: none; stroke: #333333; stroke-width: 1.5; stroke-linecap: square"/>
      <defs>
       <path id="m2fe3c08de2" d="M 0 0 
L 0 2.75 
" style="stroke: #333333"/>
      </defs>
      <g>
       <use xlink:href="#m2fe3c08de2" x="63.881563" y="391.639531" style="fill: #333333; stroke: #333333"/>
      </g>
     </g>
     <g id="text_1">
      <!-- 0 -->
      <g style="fill: #4d4d4d" transform="translate(61.434751 402.702156) scale(0.088 -0.088)">
       <defs>
        <path id="Helvetica-30" d="M 1731 4475 
Q 2600 4475 2988 3759 
Q 3288 3206 3288 2244 
Q 3288 1331 3016 734 
Q 2622 -122 1728 -122 
Q 922 -122 528 578 
Q 200 1163 200 2147 
Q 200 2909 397 3456 
Q 766 4475 1731 4475 
z
M 1725 391 
Q 2163 391 2422 778 
Q 2681 1166 2681 2222 
Q 2681 2984 2493 3476 
Q 2306 3969 1766 3969 
Q 1269 3969 1039 3501 
Q 809 3034 809 2125 
Q 809 1441 956 1025 
Q 1181 391 1725 391 
z
" transform="scale(0.015625)"/>
       </defs>
       <use xlink:href="#Helvetica-30"/>
      </g>
     </g>
    </g>
    <g id="xtick_2">
     <g id="line2d_3">
      <path d="M 252.508455 391.639531 
L 252.508455 29.8035 
" clip-path="url(#p703be1417d)" style="fill: none; stroke: #e5e5e5; stroke-linecap: square"/>
     </g>
     <g id="line2d_4">
      <path d="M 252.508455 391.639531 
" style="fill: none; stroke: #333333; stroke-width: 1.5; stroke-linecap: square"/>
      <g>
       <use xlink:href="#m2fe3c08de2" x="252.508455" y="391.639531" style="fill: #333333; stroke: #333333"/>
      </g>
     </g>
     <g id="text_2">
      <!-- 25 -->
      <g style="fill: #4d4d4d" transform="translate(247.61483 402.702156) scale(0.088 -0.088)">
       <defs>
        <path id="Helvetica-32" d="M 200 0 
Q 231 578 439 1006 
Q 647 1434 1250 1784 
L 1850 2131 
Q 2253 2366 2416 2531 
Q 2672 2791 2672 3125 
Q 2672 3516 2437 3745 
Q 2203 3975 1813 3975 
Q 1234 3975 1013 3538 
Q 894 3303 881 2888 
L 309 2888 
Q 319 3472 525 3841 
Q 891 4491 1816 4491 
Q 2584 4491 2939 4075 
Q 3294 3659 3294 3150 
Q 3294 2613 2916 2231 
Q 2697 2009 2131 1694 
L 1703 1456 
Q 1397 1288 1222 1134 
Q 909 863 828 531 
L 3272 531 
L 3272 0 
L 200 0 
z
" transform="scale(0.015625)"/>
        <path id="Helvetica-35" d="M 791 1141 
Q 847 659 1238 475 
Q 1438 381 1700 381 
Q 2200 381 2440 700 
Q 2681 1019 2681 1406 
Q 2681 1875 2395 2131 
Q 2109 2388 1709 2388 
Q 1419 2388 1211 2275 
Q 1003 2163 856 1963 
L 369 1991 
L 709 4400 
L 3034 4400 
L 3034 3856 
L 1131 3856 
L 941 2613 
Q 1097 2731 1238 2791 
Q 1488 2894 1816 2894 
Q 2431 2894 2859 2497 
Q 3288 2100 3288 1491 
Q 3288 856 2895 371 
Q 2503 -113 1644 -113 
Q 1097 -113 676 195 
Q 256 503 206 1141 
L 791 1141 
z
" transform="scale(0.015625)"/>
       </defs>
       <use xlink:href="#Helvetica-32"/>
       <use xlink:href="#Helvetica-35" transform="translate(55.615234 0)"/>
      </g>
     </g>
    </g>
    <g id="xtick_3">
     <g id="line2d_5">
      <path d="M 441.135346 391.639531 
L 441.135346 29.8035 
" clip-path="url(#p703be1417d)" style="fill: none; stroke: #e5e5e5; stroke-linecap: square"/>
     </g>
     <g id="line2d_6">
      <path d="M 441.135346 391.639531 
" style="fill: none; stroke: #333333; stroke-width: 1.5; stroke-linecap: square"/>
      <g>
       <use xlink:href="#m2fe3c08de2" x="441.135346" y="391.639531" style="fill: #333333; stroke: #333333"/>
      </g>
     </g>
     <g id="text_3">
      <!-- 50 -->
      <g style="fill: #4d4d4d" transform="translate(436.241721 402.702156) scale(0.088 -0.088)">
       <use xlink:href="#Helvetica-35"/>
       <use xlink:href="#Helvetica-30" transform="translate(55.615234 0)"/>
      </g>
     </g>
    </g>
    <g id="xtick_4">
     <g id="line2d_7">
      <path d="M 629.762238 391.639531 
L 629.762238 29.8035 
" clip-path="url(#p703be1417d)" style="fill: none; stroke: #e5e5e5; stroke-linecap: square"/>
     </g>
     <g id="line2d_8">
      <path d="M 629.762238 391.639531 
" style="fill: none; stroke: #333333; stroke-width: 1.5; stroke-linecap: square"/>
      <g>
       <use xlink:href="#m2fe3c08de2" x="629.762238" y="391.639531" style="fill: #333333; stroke: #333333"/>
      </g>
     </g>
     <g id="text_4">
      <!-- 75 -->
      <g style="fill: #4d4d4d" transform="translate(624.868613 402.702156) scale(0.088 -0.088)">
       <defs>
        <path id="Helvetica-37" d="M 3347 4400 
L 3347 3909 
Q 3131 3700 2773 3181 
Q 2416 2663 2141 2063 
Q 1869 1478 1728 997 
Q 1638 688 1494 0 
L 872 0 
Q 1084 1281 1809 2550 
Q 2238 3294 2709 3834 
L 234 3834 
L 234 4400 
L 3347 4400 
z
" transform="scale(0.015625)"/>
       </defs>
       <use xlink:href="#Helvetica-37"/>
       <use xlink:href="#Helvetica-35" transform="translate(55.615234 0)"/>
      </g>
     </g>
    </g>
    <g id="xtick_5">
     <g id="line2d_9">
      <path d="M 818.389129 391.639531 
L 818.389129 29.8035 
" clip-path="url(#p703be1417d)" style="fill: none; stroke: #e5e5e5; stroke-linecap: square"/>
     </g>
     <g id="line2d_10">
      <path d="M 818.389129 391.639531 
" style="fill: none; stroke: #333333; stroke-width: 1.5; stroke-linecap: square"/>
      <g>
       <use xlink:href="#m2fe3c08de2" x="818.389129" y="391.639531" style="fill: #333333; stroke: #333333"/>
      </g>
     </g>
     <g id="text_5">
      <!-- 100 -->
      <g style="fill: #4d4d4d" transform="translate(811.048692 402.702156) scale(0.088 -0.088)">
       <defs>
        <path id="Helvetica-31" d="M 613 3169 
L 613 3600 
Q 1222 3659 1462 3798 
Q 1703 3938 1822 4456 
L 2266 4456 
L 2266 0 
L 1666 0 
L 1666 3169 
L 613 3169 
z
" transform="scale(0.015625)"/>
       </defs>
       <use xlink:href="#Helvetica-31"/>
       <use xlink:href="#Helvetica-30" transform="translate(55.615234 0)"/>
       <use xlink:href="#Helvetica-30" transform="translate(111.230469 0)"/>
      </g>
     </g>
    </g>
    <g id="xtick_6">
     <g id="line2d_11">
      <path d="M 158.195009 391.639531 
L 158.195009 29.8035 
" clip-path="url(#p703be1417d)" style="fill: none; stroke: #fafafa; stroke-width: 0.5; stroke-linecap: square"/>
     </g>
    </g>
    <g id="xtick_7">
     <g id="line2d_12">
      <path d="M 346.8219 391.639531 
L 346.8219 29.8035 
" clip-path="url(#p703be1417d)" style="fill: none; stroke: #fafafa; stroke-width: 0.5; stroke-linecap: square"/>
     </g>
    </g>
    <g id="xtick_8">
     <g id="line2d_13">
      <path d="M 535.448792 391.639531 
L 535.448792 29.8035 
" clip-path="url(#p703be1417d)" style="fill: none; stroke: #fafafa; stroke-width: 0.5; stroke-linecap: square"/>
     </g>
    </g>
    <g id="xtick_9">
     <g id="line2d_14">
      <path d="M 724.075683 391.639531 
L 724.075683 29.8035 
" clip-path="url(#p703be1417d)" style="fill: none; stroke: #fafafa; stroke-width: 0.5; stroke-linecap: square"/>
     </g>
    </g>
   </g>
   <g id="matplotlib.axis_2">
    <g id="ytick_1">
     <g id="line2d_15">
      <path d="M 42.000844 388.898349 
L 855.36 388.898349 
" clip-path="url(#p703be1417d)" style="fill: none; stroke: #e5e5e5; stroke-linecap: square"/>
     </g>
     <g id="line2d_16">
      <path d="M 42.000844 388.898349 
" style="fill: none; stroke: #333333; stroke-width: 1.5; stroke-linecap: square"/>
      <defs>
       <path id="ma503871bfc" d="M 0 0 
L -2.75 0 
" style="stroke: #333333"/>
      </defs>
      <g>
       <use xlink:href="#ma503871bfc" x="42.000844" y="388.898349" style="fill: #333333; stroke: #333333"/>
      </g>
     </g>
     <g id="text_6">
      <!-- 0 -->
      <g style="fill: #4d4d4d" transform="translate(32.357219 392.054662) scale(0.088 -0.088)">
       <use xlink:href="#Helvetica-30"/>
      </g>
     </g>
    </g>
    <g id="ytick_2">
     <g id="line2d_17">
      <path d="M 42.000844 320.368798 
L 855.36 320.368798 
" clip-path="url(#p703be1417d)" style="fill: none; stroke: #e5e5e5; stroke-linecap: square"/>
     </g>
     <g id="line2d_18">
      <path d="M 42.000844 320.368798 
" style="fill: none; stroke: #333333; stroke-width: 1.5; stroke-linecap: square"/>
      <g>
       <use xlink:href="#ma503871bfc" x="42.000844" y="320.368798" style="fill: #333333; stroke: #333333"/>
      </g>
     </g>
     <g id="text_7">
      <!-- 5 -->
      <g style="fill: #4d4d4d" transform="translate(32.357219 323.52511) scale(0.088 -0.088)">
       <use xlink:href="#Helvetica-35"/>
      </g>
     </g>
    </g>
    <g id="ytick_3">
     <g id="line2d_19">
      <path d="M 42.000844 251.839246 
L 855.36 251.839246 
" clip-path="url(#p703be1417d)" style="fill: none; stroke: #e5e5e5; stroke-linecap: square"/>
     </g>
     <g id="line2d_20">
      <path d="M 42.000844 251.839246 
" style="fill: none; stroke: #333333; stroke-width: 1.5; stroke-linecap: square"/>
      <g>
       <use xlink:href="#ma503871bfc" x="42.000844" y="251.839246" style="fill: #333333; stroke: #333333"/>
      </g>
     </g>
     <g id="text_8">
      <!-- 10 -->
      <g style="fill: #4d4d4d" transform="translate(27.463594 254.995559) scale(0.088 -0.088)">
       <use xlink:href="#Helvetica-31"/>
       <use xlink:href="#Helvetica-30" transform="translate(55.615234 0)"/>
      </g>
     </g>
    </g>
    <g id="ytick_4">
     <g id="line2d_21">
      <path d="M 42.000844 183.309695 
L 855.36 183.309695 
" clip-path="url(#p703be1417d)" style="fill: none; stroke: #e5e5e5; stroke-linecap: square"/>
     </g>
     <g id="line2d_22">
      <path d="M 42.000844 183.309695 
" style="fill: none; stroke: #333333; stroke-width: 1.5; stroke-linecap: square"/>
      <g>
       <use xlink:href="#ma503871bfc" x="42.000844" y="183.309695" style="fill: #333333; stroke: #333333"/>
      </g>
     </g>
     <g id="text_9">
      <!-- 15 -->
      <g style="fill: #4d4d4d" transform="translate(27.463594 186.466008) scale(0.088 -0.088)">
       <use xlink:href="#Helvetica-31"/>
       <use xlink:href="#Helvetica-35" transform="translate(55.615234 0)"/>
      </g>
     </g>
    </g>
    <g id="ytick_5">
     <g id="line2d_23">
      <path d="M 42.000844 114.780144 
L 855.36 114.780144 
" clip-path="url(#p703be1417d)" style="fill: none; stroke: #e5e5e5; stroke-linecap: square"/>
     </g>
     <g id="line2d_24">
      <path d="M 42.000844 114.780144 
" style="fill: none; stroke: #333333; stroke-width: 1.5; stroke-linecap: square"/>
      <g>
       <use xlink:href="#ma503871bfc" x="42.000844" y="114.780144" style="fill: #333333; stroke: #333333"/>
      </g>
     </g>
     <g id="text_10">
      <!-- 20 -->
      <g style="fill: #4d4d4d" transform="translate(27.463594 117.936456) scale(0.088 -0.088)">
       <use xlink:href="#Helvetica-32"/>
       <use xlink:href="#Helvetica-30" transform="translate(55.615234 0)"/>
      </g>
     </g>
    </g>
    <g id="ytick_6">
     <g id="line2d_25">
      <path d="M 42.000844 46.250592 
L 855.36 46.250592 
" clip-path="url(#p703be1417d)" style="fill: none; stroke: #e5e5e5; stroke-linecap: square"/>
     </g>
     <g id="line2d_26">
      <path d="M 42.000844 46.250592 
" style="fill: none; stroke: #333333; stroke-width: 1.5; stroke-linecap: square"/>
      <g>
       <use xlink:href="#ma503871bfc" x="42.000844" y="46.250592" style="fill: #333333; stroke: #333333"/>
      </g>
     </g>
     <g id="text_11">
      <!-- 25 -->
      <g style="fill: #4d4d4d" transform="translate(27.463594 49.406905) scale(0.088 -0.088)">
       <use xlink:href="#Helvetica-32"/>
       <use xlink:href="#Helvetica-35" transform="translate(55.615234 0)"/>
      </g>
     </g>
    </g>
    <g id="ytick_7">
     <g id="line2d_27">
      <path d="M 42.000844 354.633574 
L 855.36 354.633574 
" clip-path="url(#p703be1417d)" style="fill: none; stroke: #fafafa; stroke-width: 0.5; stroke-linecap: square"/>
     </g>
    </g>
    <g id="ytick_8">
     <g id="line2d_28">
      <path d="M 42.000844 286.104022 
L 855.36 286.104022 
" clip-path="url(#p703be1417d)" style="fill: none; stroke: #fafafa; stroke-width: 0.5; stroke-linecap: square"/>
     </g>
    </g>
    <g id="ytick_9">
     <g id="line2d_29">
      <path d="M 42.000844 217.574471 
L 855.36 217.574471 
" clip-path="url(#p703be1417d)" style="fill: none; stroke: #fafafa; stroke-width: 0.5; stroke-linecap: square"/>
     </g>
    </g>
    <g id="ytick_10">
     <g id="line2d_30">
      <path d="M 42.000844 149.044919 
L 855.36 149.044919 
" clip-path="url(#p703be1417d)" style="fill: none; stroke: #fafafa; stroke-width: 0.5; stroke-linecap: square"/>
     </g>
    </g>
    <g id="ytick_11">
     <g id="line2d_31">
      <path d="M 42.000844 80.515368 
L 855.36 80.515368 
" clip-path="url(#p703be1417d)" style="fill: none; stroke: #fafafa; stroke-width: 0.5; stroke-linecap: square"/>
     </g>
    </g>
   </g>
   <g id="PathCollection_1">
    <path d="M 78.971714 376.964893 
C 79.441775 376.964893 79.892646 376.778136 80.225029 376.445753 
C 80.557411 376.11337 80.744168 375.662499 80.744168 375.192439 
C 80.744168 374.722379 80.557411 374.271508 80.225029 373.939125 
C 79.892646 373.606742 79.441775 373.419985 78.971714 373.419985 
C 78.501654 373.419985 78.050783 373.606742 77.7184 373.939125 
C 77.386018 374.271508 77.199261 374.722379 77.199261 375.192439 
C 77.199261 375.662499 77.386018 376.11337 77.7184 376.445753 
C 78.050783 376.778136 78.501654 376.964893 78.971714 376.964893 
z
" clip-path="url(#p703be1417d)" style="stroke: #000000; stroke-width: 0.886227"/>
    <path d="M 86.51679 363.258982 
C 86.98685 363.258982 87.437721 363.072226 87.770104 362.739843 
C 88.102487 362.40746 88.289244 361.956589 88.289244 361.486529 
C 88.289244 361.016468 88.102487 360.565597 87.770104 360.233215 
C 87.437721 359.900832 86.98685 359.714075 86.51679 359.714075 
C 86.04673 359.714075 85.595859 359.900832 85.263476 360.233215 
C 84.931093 360.565597 84.744336 361.016468 84.744336 361.486529 
C 84.744336 361.956589 84.931093 362.40746 85.263476 362.739843 
C 85.595859 363.072226 86.04673 363.258982 86.51679 363.258982 
z
" clip-path="url(#p703be1417d)" style="stroke: #000000; stroke-width: 0.886227"/>
    <path d="M 94.061866 363.258982 
C 94.531926 363.258982 94.982797 363.072226 95.31518 362.739843 
C 95.647563 362.40746 95.83432 361.956589 95.83432 361.486529 
C 95.83432 361.016468 95.647563 360.565597 95.31518 360.233215 
C 94.982797 359.900832 94.531926 359.714075 94.061866 359.714075 
C 93.591806 359.714075 93.140934 359.900832 92.808552 360.233215 
C 92.476169 360.565597 92.289412 361.016468 92.289412 361.486529 
C 92.289412 361.956589 92.476169 362.40746 92.808552 362.739843 
C 93.140934 363.072226 93.591806 363.258982 94.061866 363.258982 
z
" clip-path="url(#p703be1417d)" style="stroke: #000000; stroke-width: 0.886227"/>
    <path d="M 101.606941 349.553072 
C 102.077002 349.553072 102.527873 349.366315 102.860256 349.033933 
C 103.192638 348.70155 103.379395 348.250679 103.379395 347.780618 
C 103.379395 347.310558 103.192638 346.859687 102.860256 346.527304 
C 102.527873 346.194921 102.077002 346.008165 101.606941 346.008165 
C 101.136881 346.008165 100.68601 346.194921 100.353627 346.527304 
C 100.021245 346.859687 99.834488 347.310558 99.834488 347.780618 
C 99.834488 348.250679 100.021245 348.70155 100.353627 349.033933 
C 100.68601 349.366315 101.136881 349.553072 101.606941 349.553072 
z
" clip-path="url(#p703be1417d)" style="stroke: #000000; stroke-width: 0.886227"/>
    <path d="M 109.152017 349.553072 
C 109.622077 349.553072 110.072948 349.366315 110.405331 349.033933 
C 110.737714 348.70155 110.924471 348.250679 110.924471 347.780618 
C 110.924471 347.310558 110.737714 346.859687 110.405331 346.527304 
C 110.072948 346.194921 109.622077 346.008165 109.152017 346.008165 
C 108.681957 346.008165 108.231086 346.194921 107.898703 346.527304 
C 107.56632 346.859687 107.379563 347.310558 107.379563 347.780618 
C 107.379563 348.250679 107.56632 348.70155 107.898703 349.033933 
C 108.231086 349.366315 108.681957 349.553072 109.152017 349.553072 
z
" clip-path="url(#p703be1417d)" style="stroke: #000000; stroke-width: 0.886227"/>
    <path d="M 116.697093 335.847162 
C 117.167153 335.847162 117.618024 335.660405 117.950407 335.328022 
C 118.28279 334.995639 118.469547 334.544768 118.469547 334.074708 
C 118.469547 333.604648 118.28279 333.153777 117.950407 332.821394 
C 117.618024 332.489011 117.167153 332.302254 116.697093 332.302254 
C 116.227033 332.302254 115.776161 332.489011 115.443779 332.821394 
C 115.111396 333.153777 114.924639 333.604648 114.924639 334.074708 
C 114.924639 334.544768 115.111396 334.995639 115.443779 335.328022 
C 115.776161 335.660405 116.227033 335.847162 116.697093 335.847162 
z
" clip-path="url(#p703be1417d)" style="stroke: #000000; stroke-width: 0.886227"/>
    <path d="M 124.242168 335.847162 
C 124.712229 335.847162 125.1631 335.660405 125.495483 335.328022 
C 125.827865 334.995639 126.014622 334.544768 126.014622 334.074708 
C 126.014622 333.604648 125.827865 333.153777 125.495483 332.821394 
C 125.1631 332.489011 124.712229 332.302254 124.242168 332.302254 
C 123.772108 332.302254 123.321237 332.489011 122.988854 332.821394 
C 122.656472 333.153777 122.469715 333.604648 122.469715 334.074708 
C 122.469715 334.544768 122.656472 334.995639 122.988854 335.328022 
C 123.321237 335.660405 123.772108 335.847162 124.242168 335.847162 
z
" clip-path="url(#p703be1417d)" style="stroke: #000000; stroke-width: 0.886227"/>
    <path d="M 131.787244 335.847162 
C 132.257304 335.847162 132.708175 335.660405 133.040558 335.328022 
C 133.372941 334.995639 133.559698 334.544768 133.559698 334.074708 
C 133.559698 333.604648 133.372941 333.153777 133.040558 332.821394 
C 132.708175 332.489011 132.257304 332.302254 131.787244 332.302254 
C 131.317184 332.302254 130.866313 332.489011 130.53393 332.821394 
C 130.201547 333.153777 130.01479 333.604648 130.01479 334.074708 
C 130.01479 334.544768 130.201547 334.995639 130.53393 335.328022 
C 130.866313 335.660405 131.317184 335.847162 131.787244 335.847162 
z
" clip-path="url(#p703be1417d)" style="stroke: #000000; stroke-width: 0.886227"/>
    <path d="M 139.33232 335.847162 
C 139.80238 335.847162 140.253251 335.660405 140.585634 335.328022 
C 140.918017 334.995639 141.104774 334.544768 141.104774 334.074708 
C 141.104774 333.604648 140.918017 333.153777 140.585634 332.821394 
C 140.253251 332.489011 139.80238 332.302254 139.33232 332.302254 
C 138.86226 332.302254 138.411388 332.489011 138.079006 332.821394 
C 137.746623 333.153777 137.559866 333.604648 137.559866 334.074708 
C 137.559866 334.544768 137.746623 334.995639 138.079006 335.328022 
C 138.411388 335.660405 138.86226 335.847162 139.33232 335.847162 
z
" clip-path="url(#p703be1417d)" style="stroke: #000000; stroke-width: 0.886227"/>
    <path d="M 146.877395 322.141252 
C 147.347456 322.141252 147.798327 321.954495 148.13071 321.622112 
C 148.463092 321.289729 148.649849 320.838858 148.649849 320.368798 
C 148.649849 319.898738 148.463092 319.447866 148.13071 319.115484 
C 147.798327 318.783101 147.347456 318.596344 146.877395 318.596344 
C 146.407335 318.596344 145.956464 318.783101 145.624081 319.115484 
C 145.291699 319.447866 145.104942 319.898738 145.104942 320.368798 
C 145.104942 320.838858 145.291699 321.289729 145.624081 321.622112 
C 145.956464 321.954495 146.407335 322.141252 146.877395 322.141252 
z
" clip-path="url(#p703be1417d)" style="stroke: #000000; stroke-width: 0.886227"/>
    <path d="M 154.422471 322.141252 
C 154.892531 322.141252 155.343402 321.954495 155.675785 321.622112 
C 156.008168 321.289729 156.194925 320.838858 156.194925 320.368798 
C 156.194925 319.898738 156.008168 319.447866 155.675785 319.115484 
C 155.343402 318.783101 154.892531 318.596344 154.422471 318.596344 
C 153.952411 318.596344 153.50154 318.783101 153.169157 319.115484 
C 152.836774 319.447866 152.650017 319.898738 152.650017 320.368798 
C 152.650017 320.838858 152.836774 321.289729 153.169157 321.622112 
C 153.50154 321.954495 153.952411 322.141252 154.422471 322.141252 
z
" clip-path="url(#p703be1417d)" style="stroke: #000000; stroke-width: 0.886227"/>
    <path d="M 161.967547 308.435341 
C 162.437607 308.435341 162.888478 308.248584 163.220861 307.916202 
C 163.553244 307.583819 163.740001 307.132948 163.740001 306.662888 
C 163.740001 306.192827 163.553244 305.741956 163.220861 305.409573 
C 162.888478 305.077191 162.437607 304.890434 161.967547 304.890434 
C 161.497487 304.890434 161.046615 305.077191 160.714233 305.409573 
C 160.38185 305.741956 160.195093 306.192827 160.195093 306.662888 
C 160.195093 307.132948 160.38185 307.583819 160.714233 307.916202 
C 161.046615 308.248584 161.497487 308.435341 161.967547 308.435341 
z
" clip-path="url(#p703be1417d)" style="stroke: #000000; stroke-width: 0.886227"/>
    <path d="M 169.512622 308.435341 
C 169.982683 308.435341 170.433554 308.248584 170.765937 307.916202 
C 171.098319 307.583819 171.285076 307.132948 171.285076 306.662888 
C 171.285076 306.192827 171.098319 305.741956 170.765937 305.409573 
C 170.433554 305.077191 169.982683 304.890434 169.512622 304.890434 
C 169.042562 304.890434 168.591691 305.077191 168.259308 305.409573 
C 167.926925 305.741956 167.740169 306.192827 167.740169 306.662888 
C 167.740169 307.132948 167.926925 307.583819 168.259308 307.916202 
C 168.591691 308.248584 169.042562 308.435341 169.512622 308.435341 
z
" clip-path="url(#p703be1417d)" style="stroke: #000000; stroke-width: 0.886227"/>
    <path d="M 177.057698 308.435341 
C 177.527758 308.435341 177.978629 308.248584 178.311012 307.916202 
C 178.643395 307.583819 178.830152 307.132948 178.830152 306.662888 
C 178.830152 306.192827 178.643395 305.741956 178.311012 305.409573 
C 177.978629 305.077191 177.527758 304.890434 177.057698 304.890434 
C 176.587638 304.890434 176.136767 305.077191 175.804384 305.409573 
C 175.472001 305.741956 175.285244 306.192827 175.285244 306.662888 
C 175.285244 307.132948 175.472001 307.583819 175.804384 307.916202 
C 176.136767 308.248584 176.587638 308.435341 177.057698 308.435341 
z
" clip-path="url(#p703be1417d)" style="stroke: #000000; stroke-width: 0.886227"/>
    <path d="M 184.602774 308.435341 
C 185.072834 308.435341 185.523705 308.248584 185.856088 307.916202 
C 186.188471 307.583819 186.375228 307.132948 186.375228 306.662888 
C 186.375228 306.192827 186.188471 305.741956 185.856088 305.409573 
C 185.523705 305.077191 185.072834 304.890434 184.602774 304.890434 
C 184.132713 304.890434 183.681842 305.077191 183.34946 305.409573 
C 183.017077 305.741956 182.83032 306.192827 182.83032 306.662888 
C 182.83032 307.132948 183.017077 307.583819 183.34946 307.916202 
C 183.681842 308.248584 184.132713 308.435341 184.602774 308.435341 
z
" clip-path="url(#p703be1417d)" style="stroke: #000000; stroke-width: 0.886227"/>
    <path d="M 192.147849 294.729431 
C 192.61791 294.729431 193.068781 294.542674 193.401164 294.210291 
C 193.733546 293.877909 193.920303 293.427038 193.920303 292.956977 
C 193.920303 292.486917 193.733546 292.036046 193.401164 291.703663 
C 193.068781 291.37128 192.61791 291.184523 192.147849 291.184523 
C 191.677789 291.184523 191.226918 291.37128 190.894535 291.703663 
C 190.562152 292.036046 190.375396 292.486917 190.375396 292.956977 
C 190.375396 293.427038 190.562152 293.877909 190.894535 294.210291 
C 191.226918 294.542674 191.677789 294.729431 192.147849 294.729431 
z
" clip-path="url(#p703be1417d)" style="stroke: #000000; stroke-width: 0.886227"/>
    <path d="M 199.692925 294.729431 
C 200.162985 294.729431 200.613856 294.542674 200.946239 294.210291 
C 201.278622 293.877909 201.465379 293.427038 201.465379 292.956977 
C 201.465379 292.486917 201.278622 292.036046 200.946239 291.703663 
C 200.613856 291.37128 200.162985 291.184523 199.692925 291.184523 
C 199.222865 291.184523 198.771994 291.37128 198.439611 291.703663 
C 198.107228 292.036046 197.920471 292.486917 197.920471 292.956977 
C 197.920471 293.427038 198.107228 293.877909 198.439611 294.210291 
C 198.771994 294.542674 199.222865 294.729431 199.692925 294.729431 
z
" clip-path="url(#p703be1417d)" style="stroke: #000000; stroke-width: 0.886227"/>
    <path d="M 207.238001 281.023521 
C 207.708061 281.023521 208.158932 280.836764 208.491315 280.504381 
C 208.823698 280.171998 209.010455 279.721127 209.010455 279.251067 
C 209.010455 278.781007 208.823698 278.330136 208.491315 277.997753 
C 208.158932 277.66537 207.708061 277.478613 207.238001 277.478613 
C 206.76794 277.478613 206.317069 277.66537 205.984687 277.997753 
C 205.652304 278.330136 205.465547 278.781007 205.465547 279.251067 
C 205.465547 279.721127 205.652304 280.171998 205.984687 280.504381 
C 206.317069 280.836764 206.76794 281.023521 207.238001 281.023521 
z
" clip-path="url(#p703be1417d)" style="stroke: #000000; stroke-width: 0.886227"/>
    <path d="M 214.783076 281.023521 
C 215.253137 281.023521 215.704008 280.836764 216.036391 280.504381 
C 216.368773 280.171998 216.55553 279.721127 216.55553 279.251067 
C 216.55553 278.781007 216.368773 278.330136 216.036391 277.997753 
C 215.704008 277.66537 215.253137 277.478613 214.783076 277.478613 
C 214.313016 277.478613 213.862145 277.66537 213.529762 277.997753 
C 213.197379 278.330136 213.010623 278.781007 213.010623 279.251067 
C 213.010623 279.721127 213.197379 280.171998 213.529762 280.504381 
C 213.862145 280.836764 214.313016 281.023521 214.783076 281.023521 
z
" clip-path="url(#p703be1417d)" style="stroke: #000000; stroke-width: 0.886227"/>
    <path d="M 222.328152 281.023521 
C 222.798212 281.023521 223.249083 280.836764 223.581466 280.504381 
C 223.913849 280.171998 224.100606 279.721127 224.100606 279.251067 
C 224.100606 278.781007 223.913849 278.330136 223.581466 277.997753 
C 223.249083 277.66537 222.798212 277.478613 222.328152 277.478613 
C 221.858092 277.478613 221.407221 277.66537 221.074838 277.997753 
C 220.742455 278.330136 220.555698 278.781007 220.555698 279.251067 
C 220.555698 279.721127 220.742455 280.171998 221.074838 280.504381 
C 221.407221 280.836764 221.858092 281.023521 222.328152 281.023521 
z
" clip-path="url(#p703be1417d)" style="stroke: #000000; stroke-width: 0.886227"/>
    <path d="M 229.873228 281.023521 
C 230.343288 281.023521 230.794159 280.836764 231.126542 280.504381 
C 231.458925 280.171998 231.645682 279.721127 231.645682 279.251067 
C 231.645682 278.781007 231.458925 278.330136 231.126542 277.997753 
C 230.794159 277.66537 230.343288 277.478613 229.873228 277.478613 
C 229.403167 277.478613 228.952296 277.66537 228.619914 277.997753 
C 228.287531 278.330136 228.100774 278.781007 228.100774 279.251067 
C 228.100774 279.721127 228.287531 280.171998 228.619914 280.504381 
C 228.952296 280.836764 229.403167 281.023521 229.873228 281.023521 
z
" clip-path="url(#p703be1417d)" style="stroke: #000000; stroke-width: 0.886227"/>
    <path d="M 237.418303 267.317611 
C 237.888364 267.317611 238.339235 267.130854 238.671618 266.798471 
C 239.004 266.466088 239.190757 266.015217 239.190757 265.545157 
C 239.190757 265.075096 239.004 264.624225 238.671618 264.291843 
C 238.339235 263.95946 237.888364 263.772703 237.418303 263.772703 
C 236.948243 263.772703 236.497372 263.95946 236.164989 264.291843 
C 235.832606 264.624225 235.64585 265.075096 235.64585 265.545157 
C 235.64585 266.015217 235.832606 266.466088 236.164989 266.798471 
C 236.497372 267.130854 236.948243 267.317611 237.418303 267.317611 
z
" clip-path="url(#p703be1417d)" style="stroke: #000000; stroke-width: 0.886227"/>
    <path d="M 244.963379 267.317611 
C 245.433439 267.317611 245.88431 267.130854 246.216693 266.798471 
C 246.549076 266.466088 246.735833 266.015217 246.735833 265.545157 
C 246.735833 265.075096 246.549076 264.624225 246.216693 264.291843 
C 245.88431 263.95946 245.433439 263.772703 244.963379 263.772703 
C 244.493319 263.772703 244.042448 263.95946 243.710065 264.291843 
C 243.377682 264.624225 243.190925 265.075096 243.190925 265.545157 
C 243.190925 266.015217 243.377682 266.466088 243.710065 266.798471 
C 244.042448 267.130854 244.493319 267.317611 244.963379 267.317611 
z
" clip-path="url(#p703be1417d)" style="stroke: #000000; stroke-width: 0.886227"/>
    <path d="M 252.508455 267.317611 
C 252.978515 267.317611 253.429386 267.130854 253.761769 266.798471 
C 254.094152 266.466088 254.280909 266.015217 254.280909 265.545157 
C 254.280909 265.075096 254.094152 264.624225 253.761769 264.291843 
C 253.429386 263.95946 252.978515 263.772703 252.508455 263.772703 
C 252.038394 263.772703 251.587523 263.95946 251.255141 264.291843 
C 250.922758 264.624225 250.736001 265.075096 250.736001 265.545157 
C 250.736001 266.015217 250.922758 266.466088 251.255141 266.798471 
C 251.587523 267.130854 252.038394 267.317611 252.508455 267.317611 
z
" clip-path="url(#p703be1417d)" style="stroke: #000000; stroke-width: 0.886227"/>
    <path d="M 260.05353 267.317611 
C 260.523591 267.317611 260.974462 267.130854 261.306844 266.798471 
C 261.639227 266.466088 261.825984 266.015217 261.825984 265.545157 
C 261.825984 265.075096 261.639227 264.624225 261.306844 264.291843 
C 260.974462 263.95946 260.523591 263.772703 260.05353 263.772703 
C 259.58347 263.772703 259.132599 263.95946 258.800216 264.291843 
C 258.467833 264.624225 258.281077 265.075096 258.281077 265.545157 
C 258.281077 266.015217 258.467833 266.466088 258.800216 266.798471 
C 259.132599 267.130854 259.58347 267.317611 260.05353 267.317611 
z
" clip-path="url(#p703be1417d)" style="stroke: #000000; stroke-width: 0.886227"/>
    <path d="M 267.598606 267.317611 
C 268.068666 267.317611 268.519537 267.130854 268.85192 266.798471 
C 269.184303 266.466088 269.37106 266.015217 269.37106 265.545157 
C 269.37106 265.075096 269.184303 264.624225 268.85192 264.291843 
C 268.519537 263.95946 268.068666 263.772703 267.598606 263.772703 
C 267.128546 263.772703 266.677675 263.95946 266.345292 264.291843 
C 266.012909 264.624225 265.826152 265.075096 265.826152 265.545157 
C 265.826152 266.015217 266.012909 266.466088 266.345292 266.798471 
C 266.677675 267.130854 267.128546 267.317611 267.598606 267.317611 
z
" clip-path="url(#p703be1417d)" style="stroke: #000000; stroke-width: 0.886227"/>
    <path d="M 275.143682 267.317611 
C 275.613742 267.317611 276.064613 267.130854 276.396996 266.798471 
C 276.729379 266.466088 276.916136 266.015217 276.916136 265.545157 
C 276.916136 265.075096 276.729379 264.624225 276.396996 264.291843 
C 276.064613 263.95946 275.613742 263.772703 275.143682 263.772703 
C 274.673621 263.772703 274.22275 263.95946 273.890368 264.291843 
C 273.557985 264.624225 273.371228 265.075096 273.371228 265.545157 
C 273.371228 266.015217 273.557985 266.466088 273.890368 266.798471 
C 274.22275 267.130854 274.673621 267.317611 275.143682 267.317611 
z
" clip-path="url(#p703be1417d)" style="stroke: #000000; stroke-width: 0.886227"/>
    <path d="M 282.688757 253.6117 
C 283.158818 253.6117 283.609689 253.424943 283.942071 253.092561 
C 284.274454 252.760178 284.461211 252.309307 284.461211 251.839246 
C 284.461211 251.369186 284.274454 250.918315 283.942071 250.585932 
C 283.609689 250.25355 283.158818 250.066793 282.688757 250.066793 
C 282.218697 250.066793 281.767826 250.25355 281.435443 250.585932 
C 281.10306 250.918315 280.916303 251.369186 280.916303 251.839246 
C 280.916303 252.309307 281.10306 252.760178 281.435443 253.092561 
C 281.767826 253.424943 282.218697 253.6117 282.688757 253.6117 
z
" clip-path="url(#p703be1417d)" style="stroke: #000000; stroke-width: 0.886227"/>
    <path d="M 290.233833 253.6117 
C 290.703893 253.6117 291.154764 253.424943 291.487147 253.092561 
C 291.81953 252.760178 292.006287 252.309307 292.006287 251.839246 
C 292.006287 251.369186 291.81953 250.918315 291.487147 250.585932 
C 291.154764 250.25355 290.703893 250.066793 290.233833 250.066793 
C 289.763773 250.066793 289.312902 250.25355 288.980519 250.585932 
C 288.648136 250.918315 288.461379 251.369186 288.461379 251.839246 
C 288.461379 252.309307 288.648136 252.760178 288.980519 253.092561 
C 289.312902 253.424943 289.763773 253.6117 290.233833 253.6117 
z
" clip-path="url(#p703be1417d)" style="stroke: #000000; stroke-width: 0.886227"/>
    <path d="M 297.778909 239.90579 
C 298.248969 239.90579 298.69984 239.719033 299.032223 239.38665 
C 299.364606 239.054268 299.551363 238.603396 299.551363 238.133336 
C 299.551363 237.663276 299.364606 237.212405 299.032223 236.880022 
C 298.69984 236.547639 298.248969 236.360882 297.778909 236.360882 
C 297.308848 236.360882 296.857977 236.547639 296.525595 236.880022 
C 296.193212 237.212405 296.006455 237.663276 296.006455 238.133336 
C 296.006455 238.603396 296.193212 239.054268 296.525595 239.38665 
C 296.857977 239.719033 297.308848 239.90579 297.778909 239.90579 
z
" clip-path="url(#p703be1417d)" style="stroke: #000000; stroke-width: 0.886227"/>
    <path d="M 305.323984 239.90579 
C 305.794045 239.90579 306.244916 239.719033 306.577298 239.38665 
C 306.909681 239.054268 307.096438 238.603396 307.096438 238.133336 
C 307.096438 237.663276 306.909681 237.212405 306.577298 236.880022 
C 306.244916 236.547639 305.794045 236.360882 305.323984 236.360882 
C 304.853924 236.360882 304.403053 236.547639 304.07067 236.880022 
C 303.738287 237.212405 303.55153 237.663276 303.55153 238.133336 
C 303.55153 238.603396 303.738287 239.054268 304.07067 239.38665 
C 304.403053 239.719033 304.853924 239.90579 305.323984 239.90579 
z
" clip-path="url(#p703be1417d)" style="stroke: #000000; stroke-width: 0.886227"/>
    <path d="M 312.86906 239.90579 
C 313.33912 239.90579 313.789991 239.719033 314.122374 239.38665 
C 314.454757 239.054268 314.641514 238.603396 314.641514 238.133336 
C 314.641514 237.663276 314.454757 237.212405 314.122374 236.880022 
C 313.789991 236.547639 313.33912 236.360882 312.86906 236.360882 
C 312.399 236.360882 311.948129 236.547639 311.615746 236.880022 
C 311.283363 237.212405 311.096606 237.663276 311.096606 238.133336 
C 311.096606 238.603396 311.283363 239.054268 311.615746 239.38665 
C 311.948129 239.719033 312.399 239.90579 312.86906 239.90579 
z
" clip-path="url(#p703be1417d)" style="stroke: #000000; stroke-width: 0.886227"/>
    <path d="M 320.414136 239.90579 
C 320.884196 239.90579 321.335067 239.719033 321.66745 239.38665 
C 321.999833 239.054268 322.186589 238.603396 322.186589 238.133336 
C 322.186589 237.663276 321.999833 237.212405 321.66745 236.880022 
C 321.335067 236.547639 320.884196 236.360882 320.414136 236.360882 
C 319.944075 236.360882 319.493204 236.547639 319.160822 236.880022 
C 318.828439 237.212405 318.641682 237.663276 318.641682 238.133336 
C 318.641682 238.603396 318.828439 239.054268 319.160822 239.38665 
C 319.493204 239.719033 319.944075 239.90579 320.414136 239.90579 
z
" clip-path="url(#p703be1417d)" style="stroke: #000000; stroke-width: 0.886227"/>
    <path d="M 327.959211 239.90579 
C 328.429272 239.90579 328.880143 239.719033 329.212525 239.38665 
C 329.544908 239.054268 329.731665 238.603396 329.731665 238.133336 
C 329.731665 237.663276 329.544908 237.212405 329.212525 236.880022 
C 328.880143 236.547639 328.429272 236.360882 327.959211 236.360882 
C 327.489151 236.360882 327.03828 236.547639 326.705897 236.880022 
C 326.373514 237.212405 326.186757 237.663276 326.186757 238.133336 
C 326.186757 238.603396 326.373514 239.054268 326.705897 239.38665 
C 327.03828 239.719033 327.489151 239.90579 327.959211 239.90579 
z
" clip-path="url(#p703be1417d)" style="stroke: #000000; stroke-width: 0.886227"/>
    <path d="M 335.504287 239.90579 
C 335.974347 239.90579 336.425218 239.719033 336.757601 239.38665 
C 337.089984 239.054268 337.276741 238.603396 337.276741 238.133336 
C 337.276741 237.663276 337.089984 237.212405 336.757601 236.880022 
C 336.425218 236.547639 335.974347 236.360882 335.504287 236.360882 
C 335.034227 236.360882 334.583356 236.547639 334.250973 236.880022 
C 333.91859 237.212405 333.731833 237.663276 333.731833 238.133336 
C 333.731833 238.603396 333.91859 239.054268 334.250973 239.38665 
C 334.583356 239.719033 335.034227 239.90579 335.504287 239.90579 
z
" clip-path="url(#p703be1417d)" style="stroke: #000000; stroke-width: 0.886227"/>
    <path d="M 343.049363 226.19988 
C 343.519423 226.19988 343.970294 226.013123 344.302677 225.68074 
C 344.63506 225.348357 344.821816 224.897486 344.821816 224.427426 
C 344.821816 223.957366 344.63506 223.506495 344.302677 223.174112 
C 343.970294 222.841729 343.519423 222.654972 343.049363 222.654972 
C 342.579302 222.654972 342.128431 222.841729 341.796048 223.174112 
C 341.463666 223.506495 341.276909 223.957366 341.276909 224.427426 
C 341.276909 224.897486 341.463666 225.348357 341.796048 225.68074 
C 342.128431 226.013123 342.579302 226.19988 343.049363 226.19988 
z
" clip-path="url(#p703be1417d)" style="stroke: #000000; stroke-width: 0.886227"/>
    <path d="M 350.594438 226.19988 
C 351.064499 226.19988 351.51537 226.013123 351.847752 225.68074 
C 352.180135 225.348357 352.366892 224.897486 352.366892 224.427426 
C 352.366892 223.957366 352.180135 223.506495 351.847752 223.174112 
C 351.51537 222.841729 351.064499 222.654972 350.594438 222.654972 
C 350.124378 222.654972 349.673507 222.841729 349.341124 223.174112 
C 349.008741 223.506495 348.821984 223.957366 348.821984 224.427426 
C 348.821984 224.897486 349.008741 225.348357 349.341124 225.68074 
C 349.673507 226.013123 350.124378 226.19988 350.594438 226.19988 
z
" clip-path="url(#p703be1417d)" style="stroke: #000000; stroke-width: 0.886227"/>
    <path d="M 358.139514 226.19988 
C 358.609574 226.19988 359.060445 226.013123 359.392828 225.68074 
C 359.725211 225.348357 359.911968 224.897486 359.911968 224.427426 
C 359.911968 223.957366 359.725211 223.506495 359.392828 223.174112 
C 359.060445 222.841729 358.609574 222.654972 358.139514 222.654972 
C 357.669454 222.654972 357.218583 222.841729 356.8862 223.174112 
C 356.553817 223.506495 356.36706 223.957366 356.36706 224.427426 
C 356.36706 224.897486 356.553817 225.348357 356.8862 225.68074 
C 357.218583 226.013123 357.669454 226.19988 358.139514 226.19988 
z
" clip-path="url(#p703be1417d)" style="stroke: #000000; stroke-width: 0.886227"/>
    <path d="M 365.68459 226.19988 
C 366.15465 226.19988 366.605521 226.013123 366.937904 225.68074 
C 367.270287 225.348357 367.457043 224.897486 367.457043 224.427426 
C 367.457043 223.957366 367.270287 223.506495 366.937904 223.174112 
C 366.605521 222.841729 366.15465 222.654972 365.68459 222.654972 
C 365.214529 222.654972 364.763658 222.841729 364.431275 223.174112 
C 364.098893 223.506495 363.912136 223.957366 363.912136 224.427426 
C 363.912136 224.897486 364.098893 225.348357 364.431275 225.68074 
C 364.763658 226.013123 365.214529 226.19988 365.68459 226.19988 
z
" clip-path="url(#p703be1417d)" style="stroke: #000000; stroke-width: 0.886227"/>
    <path d="M 373.229665 212.493969 
C 373.699726 212.493969 374.150597 212.307213 374.482979 211.97483 
C 374.815362 211.642447 375.002119 211.191576 375.002119 210.721516 
C 375.002119 210.251455 374.815362 209.800584 374.482979 209.468201 
C 374.150597 209.135819 373.699726 208.949062 373.229665 208.949062 
C 372.759605 208.949062 372.308734 209.135819 371.976351 209.468201 
C 371.643968 209.800584 371.457211 210.251455 371.457211 210.721516 
C 371.457211 211.191576 371.643968 211.642447 371.976351 211.97483 
C 372.308734 212.307213 372.759605 212.493969 373.229665 212.493969 
z
" clip-path="url(#p703be1417d)" style="stroke: #000000; stroke-width: 0.886227"/>
    <path d="M 380.774741 212.493969 
C 381.244801 212.493969 381.695672 212.307213 382.028055 211.97483 
C 382.360438 211.642447 382.547195 211.191576 382.547195 210.721516 
C 382.547195 210.251455 382.360438 209.800584 382.028055 209.468201 
C 381.695672 209.135819 381.244801 208.949062 380.774741 208.949062 
C 380.304681 208.949062 379.85381 209.135819 379.521427 209.468201 
C 379.189044 209.800584 379.002287 210.251455 379.002287 210.721516 
C 379.002287 211.191576 379.189044 211.642447 379.521427 211.97483 
C 379.85381 212.307213 380.304681 212.493969 380.774741 212.493969 
z
" clip-path="url(#p703be1417d)" style="stroke: #000000; stroke-width: 0.886227"/>
    <path d="M 388.319817 198.788059 
C 388.789877 198.788059 389.240748 198.601302 389.573131 198.268919 
C 389.905514 197.936537 390.09227 197.485666 390.09227 197.015605 
C 390.09227 196.545545 389.905514 196.094674 389.573131 195.762291 
C 389.240748 195.429908 388.789877 195.243151 388.319817 195.243151 
C 387.849756 195.243151 387.398885 195.429908 387.066502 195.762291 
C 386.73412 196.094674 386.547363 196.545545 386.547363 197.015605 
C 386.547363 197.485666 386.73412 197.936537 387.066502 198.268919 
C 387.398885 198.601302 387.849756 198.788059 388.319817 198.788059 
z
" clip-path="url(#p703be1417d)" style="stroke: #000000; stroke-width: 0.886227"/>
    <path d="M 395.864892 198.788059 
C 396.334953 198.788059 396.785824 198.601302 397.118206 198.268919 
C 397.450589 197.936537 397.637346 197.485666 397.637346 197.015605 
C 397.637346 196.545545 397.450589 196.094674 397.118206 195.762291 
C 396.785824 195.429908 396.334953 195.243151 395.864892 195.243151 
C 395.394832 195.243151 394.943961 195.429908 394.611578 195.762291 
C 394.279195 196.094674 394.092438 196.545545 394.092438 197.015605 
C 394.092438 197.485666 394.279195 197.936537 394.611578 198.268919 
C 394.943961 198.601302 395.394832 198.788059 395.864892 198.788059 
z
" clip-path="url(#p703be1417d)" style="stroke: #000000; stroke-width: 0.886227"/>
    <path d="M 403.409968 198.788059 
C 403.880028 198.788059 404.330899 198.601302 404.663282 198.268919 
C 404.995665 197.936537 405.182422 197.485666 405.182422 197.015605 
C 405.182422 196.545545 404.995665 196.094674 404.663282 195.762291 
C 404.330899 195.429908 403.880028 195.243151 403.409968 195.243151 
C 402.939908 195.243151 402.489037 195.429908 402.156654 195.762291 
C 401.824271 196.094674 401.637514 196.545545 401.637514 197.015605 
C 401.637514 197.485666 401.824271 197.936537 402.156654 198.268919 
C 402.489037 198.601302 402.939908 198.788059 403.409968 198.788059 
z
" clip-path="url(#p703be1417d)" style="stroke: #000000; stroke-width: 0.886227"/>
    <path d="M 410.955044 198.788059 
C 411.425104 198.788059 411.875975 198.601302 412.208358 198.268919 
C 412.540741 197.936537 412.727497 197.485666 412.727497 197.015605 
C 412.727497 196.545545 412.540741 196.094674 412.208358 195.762291 
C 411.875975 195.429908 411.425104 195.243151 410.955044 195.243151 
C 410.484983 195.243151 410.034112 195.429908 409.701729 195.762291 
C 409.369347 196.094674 409.18259 196.545545 409.18259 197.015605 
C 409.18259 197.485666 409.369347 197.936537 409.701729 198.268919 
C 410.034112 198.601302 410.484983 198.788059 410.955044 198.788059 
z
" clip-path="url(#p703be1417d)" style="stroke: #000000; stroke-width: 0.886227"/>
    <path d="M 418.500119 185.082149 
C 418.970179 185.082149 419.421051 184.895392 419.753433 184.563009 
C 420.085816 184.230626 420.272573 183.779755 420.272573 183.309695 
C 420.272573 182.839635 420.085816 182.388764 419.753433 182.056381 
C 419.421051 181.723998 418.970179 181.537241 418.500119 181.537241 
C 418.030059 181.537241 417.579188 181.723998 417.246805 182.056381 
C 416.914422 182.388764 416.727665 182.839635 416.727665 183.309695 
C 416.727665 183.779755 416.914422 184.230626 417.246805 184.563009 
C 417.579188 184.895392 418.030059 185.082149 418.500119 185.082149 
z
" clip-path="url(#p703be1417d)" style="stroke: #000000; stroke-width: 0.886227"/>
    <path d="M 426.045195 185.082149 
C 426.515255 185.082149 426.966126 184.895392 427.298509 184.563009 
C 427.630892 184.230626 427.817649 183.779755 427.817649 183.309695 
C 427.817649 182.839635 427.630892 182.388764 427.298509 182.056381 
C 426.966126 181.723998 426.515255 181.537241 426.045195 181.537241 
C 425.575135 181.537241 425.124264 181.723998 424.791881 182.056381 
C 424.459498 182.388764 424.272741 182.839635 424.272741 183.309695 
C 424.272741 183.779755 424.459498 184.230626 424.791881 184.563009 
C 425.124264 184.895392 425.575135 185.082149 426.045195 185.082149 
z
" clip-path="url(#p703be1417d)" style="stroke: #000000; stroke-width: 0.886227"/>
    <path d="M 433.590271 185.082149 
C 434.060331 185.082149 434.511202 184.895392 434.843585 184.563009 
C 435.175967 184.230626 435.362724 183.779755 435.362724 183.309695 
C 435.362724 182.839635 435.175967 182.388764 434.843585 182.056381 
C 434.511202 181.723998 434.060331 181.537241 433.590271 181.537241 
C 433.12021 181.537241 432.669339 181.723998 432.336956 182.056381 
C 432.004574 182.388764 431.817817 182.839635 431.817817 183.309695 
C 431.817817 183.779755 432.004574 184.230626 432.336956 184.563009 
C 432.669339 184.895392 433.12021 185.082149 433.590271 185.082149 
z
" clip-path="url(#p703be1417d)" style="stroke: #000000; stroke-width: 0.886227"/>
    <path d="M 441.135346 185.082149 
C 441.605406 185.082149 442.056278 184.895392 442.38866 184.563009 
C 442.721043 184.230626 442.9078 183.779755 442.9078 183.309695 
C 442.9078 182.839635 442.721043 182.388764 442.38866 182.056381 
C 442.056278 181.723998 441.605406 181.537241 441.135346 181.537241 
C 440.665286 181.537241 440.214415 181.723998 439.882032 182.056381 
C 439.549649 182.388764 439.362892 182.839635 439.362892 183.309695 
C 439.362892 183.779755 439.549649 184.230626 439.882032 184.563009 
C 440.214415 184.895392 440.665286 185.082149 441.135346 185.082149 
z
" clip-path="url(#p703be1417d)" style="stroke: #000000; stroke-width: 0.886227"/>
    <path d="M 448.680422 185.082149 
C 449.150482 185.082149 449.601353 184.895392 449.933736 184.563009 
C 450.266119 184.230626 450.452876 183.779755 450.452876 183.309695 
C 450.452876 182.839635 450.266119 182.388764 449.933736 182.056381 
C 449.601353 181.723998 449.150482 181.537241 448.680422 181.537241 
C 448.210362 181.537241 447.759491 181.723998 447.427108 182.056381 
C 447.094725 182.388764 446.907968 182.839635 446.907968 183.309695 
C 446.907968 183.779755 447.094725 184.230626 447.427108 184.563009 
C 447.759491 184.895392 448.210362 185.082149 448.680422 185.082149 
z
" clip-path="url(#p703be1417d)" style="stroke: #000000; stroke-width: 0.886227"/>
    <path d="M 456.225498 185.082149 
C 456.695558 185.082149 457.146429 184.895392 457.478812 184.563009 
C 457.811194 184.230626 457.997951 183.779755 457.997951 183.309695 
C 457.997951 182.839635 457.811194 182.388764 457.478812 182.056381 
C 457.146429 181.723998 456.695558 181.537241 456.225498 181.537241 
C 455.755437 181.537241 455.304566 181.723998 454.972183 182.056381 
C 454.639801 182.388764 454.453044 182.839635 454.453044 183.309695 
C 454.453044 183.779755 454.639801 184.230626 454.972183 184.563009 
C 455.304566 184.895392 455.755437 185.082149 456.225498 185.082149 
z
" clip-path="url(#p703be1417d)" style="stroke: #000000; stroke-width: 0.886227"/>
    <path d="M 463.770573 171.376239 
C 464.240633 171.376239 464.691505 171.189482 465.023887 170.857099 
C 465.35627 170.524716 465.543027 170.073845 465.543027 169.603785 
C 465.543027 169.133725 465.35627 168.682853 465.023887 168.350471 
C 464.691505 168.018088 464.240633 167.831331 463.770573 167.831331 
C 463.300513 167.831331 462.849642 168.018088 462.517259 168.350471 
C 462.184876 168.682853 461.998119 169.133725 461.998119 169.603785 
C 461.998119 170.073845 462.184876 170.524716 462.517259 170.857099 
C 462.849642 171.189482 463.300513 171.376239 463.770573 171.376239 
z
" clip-path="url(#p703be1417d)" style="stroke: #000000; stroke-width: 0.886227"/>
    <path d="M 471.315649 171.376239 
C 471.785709 171.376239 472.23658 171.189482 472.568963 170.857099 
C 472.901346 170.524716 473.088103 170.073845 473.088103 169.603785 
C 473.088103 169.133725 472.901346 168.682853 472.568963 168.350471 
C 472.23658 168.018088 471.785709 167.831331 471.315649 167.831331 
C 470.845589 167.831331 470.394718 168.018088 470.062335 168.350471 
C 469.729952 168.682853 469.543195 169.133725 469.543195 169.603785 
C 469.543195 170.073845 469.729952 170.524716 470.062335 170.857099 
C 470.394718 171.189482 470.845589 171.376239 471.315649 171.376239 
z
" clip-path="url(#p703be1417d)" style="stroke: #000000; stroke-width: 0.886227"/>
    <path d="M 478.860725 171.376239 
C 479.330785 171.376239 479.781656 171.189482 480.114039 170.857099 
C 480.446421 170.524716 480.633178 170.073845 480.633178 169.603785 
C 480.633178 169.133725 480.446421 168.682853 480.114039 168.350471 
C 479.781656 168.018088 479.330785 167.831331 478.860725 167.831331 
C 478.390664 167.831331 477.939793 168.018088 477.60741 168.350471 
C 477.275028 168.682853 477.088271 169.133725 477.088271 169.603785 
C 477.088271 170.073845 477.275028 170.524716 477.60741 170.857099 
C 477.939793 171.189482 478.390664 171.376239 478.860725 171.376239 
z
" clip-path="url(#p703be1417d)" style="stroke: #000000; stroke-width: 0.886227"/>
    <path d="M 486.4058 171.376239 
C 486.87586 171.376239 487.326732 171.189482 487.659114 170.857099 
C 487.991497 170.524716 488.178254 170.073845 488.178254 169.603785 
C 488.178254 169.133725 487.991497 168.682853 487.659114 168.350471 
C 487.326732 168.018088 486.87586 167.831331 486.4058 167.831331 
C 485.93574 167.831331 485.484869 168.018088 485.152486 168.350471 
C 484.820103 168.682853 484.633346 169.133725 484.633346 169.603785 
C 484.633346 170.073845 484.820103 170.524716 485.152486 170.857099 
C 485.484869 171.189482 485.93574 171.376239 486.4058 171.376239 
z
" clip-path="url(#p703be1417d)" style="stroke: #000000; stroke-width: 0.886227"/>
    <path d="M 493.950876 171.376239 
C 494.420936 171.376239 494.871807 171.189482 495.20419 170.857099 
C 495.536573 170.524716 495.72333 170.073845 495.72333 169.603785 
C 495.72333 169.133725 495.536573 168.682853 495.20419 168.350471 
C 494.871807 168.018088 494.420936 167.831331 493.950876 167.831331 
C 493.480816 167.831331 493.029944 168.018088 492.697562 168.350471 
C 492.365179 168.682853 492.178422 169.133725 492.178422 169.603785 
C 492.178422 170.073845 492.365179 170.524716 492.697562 170.857099 
C 493.029944 171.189482 493.480816 171.376239 493.950876 171.376239 
z
" clip-path="url(#p703be1417d)" style="stroke: #000000; stroke-width: 0.886227"/>
    <path d="M 501.495952 171.376239 
C 501.966012 171.376239 502.416883 171.189482 502.749266 170.857099 
C 503.081648 170.524716 503.268405 170.073845 503.268405 169.603785 
C 503.268405 169.133725 503.081648 168.682853 502.749266 168.350471 
C 502.416883 168.018088 501.966012 167.831331 501.495952 167.831331 
C 501.025891 167.831331 500.57502 168.018088 500.242637 168.350471 
C 499.910255 168.682853 499.723498 169.133725 499.723498 169.603785 
C 499.723498 170.073845 499.910255 170.524716 500.242637 170.857099 
C 500.57502 171.189482 501.025891 171.376239 501.495952 171.376239 
z
" clip-path="url(#p703be1417d)" style="stroke: #000000; stroke-width: 0.886227"/>
    <path d="M 509.041027 157.670328 
C 509.511087 157.670328 509.961959 157.483571 510.294341 157.151189 
C 510.626724 156.818806 510.813481 156.367935 510.813481 155.897875 
C 510.813481 155.427814 510.626724 154.976943 510.294341 154.64456 
C 509.961959 154.312178 509.511087 154.125421 509.041027 154.125421 
C 508.570967 154.125421 508.120096 154.312178 507.787713 154.64456 
C 507.45533 154.976943 507.268573 155.427814 507.268573 155.897875 
C 507.268573 156.367935 507.45533 156.818806 507.787713 157.151189 
C 508.120096 157.483571 508.570967 157.670328 509.041027 157.670328 
z
" clip-path="url(#p703be1417d)" style="stroke: #000000; stroke-width: 0.886227"/>
    <path d="M 516.586103 157.670328 
C 517.056163 157.670328 517.507034 157.483571 517.839417 157.151189 
C 518.1718 156.818806 518.358557 156.367935 518.358557 155.897875 
C 518.358557 155.427814 518.1718 154.976943 517.839417 154.64456 
C 517.507034 154.312178 517.056163 154.125421 516.586103 154.125421 
C 516.116043 154.125421 515.665171 154.312178 515.332789 154.64456 
C 515.000406 154.976943 514.813649 155.427814 514.813649 155.897875 
C 514.813649 156.367935 515.000406 156.818806 515.332789 157.151189 
C 515.665171 157.483571 516.116043 157.670328 516.586103 157.670328 
z
" clip-path="url(#p703be1417d)" style="stroke: #000000; stroke-width: 0.886227"/>
    <path d="M 524.131178 143.964418 
C 524.601239 143.964418 525.05211 143.777661 525.384493 143.445278 
C 525.716875 143.112896 525.903632 142.662025 525.903632 142.191964 
C 525.903632 141.721904 525.716875 141.271033 525.384493 140.93865 
C 525.05211 140.606267 524.601239 140.41951 524.131178 140.41951 
C 523.661118 140.41951 523.210247 140.606267 522.877864 140.93865 
C 522.545482 141.271033 522.358725 141.721904 522.358725 142.191964 
C 522.358725 142.662025 522.545482 143.112896 522.877864 143.445278 
C 523.210247 143.777661 523.661118 143.964418 524.131178 143.964418 
z
" clip-path="url(#p703be1417d)" style="stroke: #000000; stroke-width: 0.886227"/>
    <path d="M 531.676254 143.964418 
C 532.146314 143.964418 532.597185 143.777661 532.929568 143.445278 
C 533.261951 143.112896 533.448708 142.662025 533.448708 142.191964 
C 533.448708 141.721904 533.261951 141.271033 532.929568 140.93865 
C 532.597185 140.606267 532.146314 140.41951 531.676254 140.41951 
C 531.206194 140.41951 530.755323 140.606267 530.42294 140.93865 
C 530.090557 141.271033 529.9038 141.721904 529.9038 142.191964 
C 529.9038 142.662025 530.090557 143.112896 530.42294 143.445278 
C 530.755323 143.777661 531.206194 143.964418 531.676254 143.964418 
z
" clip-path="url(#p703be1417d)" style="stroke: #000000; stroke-width: 0.886227"/>
    <path d="M 539.22133 143.964418 
C 539.69139 143.964418 540.142261 143.777661 540.474644 143.445278 
C 540.807027 143.112896 540.993784 142.662025 540.993784 142.191964 
C 540.993784 141.721904 540.807027 141.271033 540.474644 140.93865 
C 540.142261 140.606267 539.69139 140.41951 539.22133 140.41951 
C 538.75127 140.41951 538.300398 140.606267 537.968016 140.93865 
C 537.635633 141.271033 537.448876 141.721904 537.448876 142.191964 
C 537.448876 142.662025 537.635633 143.112896 537.968016 143.445278 
C 538.300398 143.777661 538.75127 143.964418 539.22133 143.964418 
z
" clip-path="url(#p703be1417d)" style="stroke: #000000; stroke-width: 0.886227"/>
    <path d="M 546.766405 143.964418 
C 547.236466 143.964418 547.687337 143.777661 548.01972 143.445278 
C 548.352102 143.112896 548.538859 142.662025 548.538859 142.191964 
C 548.538859 141.721904 548.352102 141.271033 548.01972 140.93865 
C 547.687337 140.606267 547.236466 140.41951 546.766405 140.41951 
C 546.296345 140.41951 545.845474 140.606267 545.513091 140.93865 
C 545.180709 141.271033 544.993952 141.721904 544.993952 142.191964 
C 544.993952 142.662025 545.180709 143.112896 545.513091 143.445278 
C 545.845474 143.777661 546.296345 143.964418 546.766405 143.964418 
z
" clip-path="url(#p703be1417d)" style="stroke: #000000; stroke-width: 0.886227"/>
    <path d="M 554.311481 143.964418 
C 554.781541 143.964418 555.232412 143.777661 555.564795 143.445278 
C 555.897178 143.112896 556.083935 142.662025 556.083935 142.191964 
C 556.083935 141.721904 555.897178 141.271033 555.564795 140.93865 
C 555.232412 140.606267 554.781541 140.41951 554.311481 140.41951 
C 553.841421 140.41951 553.39055 140.606267 553.058167 140.93865 
C 552.725784 141.271033 552.539027 141.721904 552.539027 142.191964 
C 552.539027 142.662025 552.725784 143.112896 553.058167 143.445278 
C 553.39055 143.777661 553.841421 143.964418 554.311481 143.964418 
z
" clip-path="url(#p703be1417d)" style="stroke: #000000; stroke-width: 0.886227"/>
    <path d="M 561.856557 143.964418 
C 562.326617 143.964418 562.777488 143.777661 563.109871 143.445278 
C 563.442254 143.112896 563.629011 142.662025 563.629011 142.191964 
C 563.629011 141.721904 563.442254 141.271033 563.109871 140.93865 
C 562.777488 140.606267 562.326617 140.41951 561.856557 140.41951 
C 561.386497 140.41951 560.935625 140.606267 560.603243 140.93865 
C 560.27086 141.271033 560.084103 141.721904 560.084103 142.191964 
C 560.084103 142.662025 560.27086 143.112896 560.603243 143.445278 
C 560.935625 143.777661 561.386497 143.964418 561.856557 143.964418 
z
" clip-path="url(#p703be1417d)" style="stroke: #000000; stroke-width: 0.886227"/>
    <path d="M 569.401632 130.258508 
C 569.871693 130.258508 570.322564 130.071751 570.654947 129.739368 
C 570.987329 129.406985 571.174086 128.956114 571.174086 128.486054 
C 571.174086 128.015994 570.987329 127.565123 570.654947 127.23274 
C 570.322564 126.900357 569.871693 126.7136 569.401632 126.7136 
C 568.931572 126.7136 568.480701 126.900357 568.148318 127.23274 
C 567.815936 127.565123 567.629179 128.015994 567.629179 128.486054 
C 567.629179 128.956114 567.815936 129.406985 568.148318 129.739368 
C 568.480701 130.071751 568.931572 130.258508 569.401632 130.258508 
z
" clip-path="url(#p703be1417d)" style="stroke: #000000; stroke-width: 0.886227"/>
    <path d="M 576.946708 130.258508 
C 577.416768 130.258508 577.867639 130.071751 578.200022 129.739368 
C 578.532405 129.406985 578.719162 128.956114 578.719162 128.486054 
C 578.719162 128.015994 578.532405 127.565123 578.200022 127.23274 
C 577.867639 126.900357 577.416768 126.7136 576.946708 126.7136 
C 576.476648 126.7136 576.025777 126.900357 575.693394 127.23274 
C 575.361011 127.565123 575.174254 128.015994 575.174254 128.486054 
C 575.174254 128.956114 575.361011 129.406985 575.693394 129.739368 
C 576.025777 130.071751 576.476648 130.258508 576.946708 130.258508 
z
" clip-path="url(#p703be1417d)" style="stroke: #000000; stroke-width: 0.886227"/>
    <path d="M 584.491784 130.258508 
C 584.961844 130.258508 585.412715 130.071751 585.745098 129.739368 
C 586.077481 129.406985 586.264238 128.956114 586.264238 128.486054 
C 586.264238 128.015994 586.077481 127.565123 585.745098 127.23274 
C 585.412715 126.900357 584.961844 126.7136 584.491784 126.7136 
C 584.021724 126.7136 583.570852 126.900357 583.23847 127.23274 
C 582.906087 127.565123 582.71933 128.015994 582.71933 128.486054 
C 582.71933 128.956114 582.906087 129.406985 583.23847 129.739368 
C 583.570852 130.071751 584.021724 130.258508 584.491784 130.258508 
z
" clip-path="url(#p703be1417d)" style="stroke: #000000; stroke-width: 0.886227"/>
    <path d="M 592.036859 130.258508 
C 592.50692 130.258508 592.957791 130.071751 593.290174 129.739368 
C 593.622556 129.406985 593.809313 128.956114 593.809313 128.486054 
C 593.809313 128.015994 593.622556 127.565123 593.290174 127.23274 
C 592.957791 126.900357 592.50692 126.7136 592.036859 126.7136 
C 591.566799 126.7136 591.115928 126.900357 590.783545 127.23274 
C 590.451163 127.565123 590.264406 128.015994 590.264406 128.486054 
C 590.264406 128.956114 590.451163 129.406985 590.783545 129.739368 
C 591.115928 130.071751 591.566799 130.258508 592.036859 130.258508 
z
" clip-path="url(#p703be1417d)" style="stroke: #000000; stroke-width: 0.886227"/>
    <path d="M 599.581935 116.552598 
C 600.051995 116.552598 600.502866 116.365841 600.835249 116.033458 
C 601.167632 115.701075 601.354389 115.250204 601.354389 114.780144 
C 601.354389 114.310083 601.167632 113.859212 600.835249 113.52683 
C 600.502866 113.194447 600.051995 113.00769 599.581935 113.00769 
C 599.111875 113.00769 598.661004 113.194447 598.328621 113.52683 
C 597.996238 113.859212 597.809481 114.310083 597.809481 114.780144 
C 597.809481 115.250204 597.996238 115.701075 598.328621 116.033458 
C 598.661004 116.365841 599.111875 116.552598 599.581935 116.552598 
z
" clip-path="url(#p703be1417d)" style="stroke: #000000; stroke-width: 0.886227"/>
    <path d="M 607.127011 116.552598 
C 607.597071 116.552598 608.047942 116.365841 608.380325 116.033458 
C 608.712708 115.701075 608.899465 115.250204 608.899465 114.780144 
C 608.899465 114.310083 608.712708 113.859212 608.380325 113.52683 
C 608.047942 113.194447 607.597071 113.00769 607.127011 113.00769 
C 606.65695 113.00769 606.206079 113.194447 605.873697 113.52683 
C 605.541314 113.859212 605.354557 114.310083 605.354557 114.780144 
C 605.354557 115.250204 605.541314 115.701075 605.873697 116.033458 
C 606.206079 116.365841 606.65695 116.552598 607.127011 116.552598 
z
" clip-path="url(#p703be1417d)" style="stroke: #000000; stroke-width: 0.886227"/>
    <path d="M 614.672086 102.846687 
C 615.142147 102.846687 615.593018 102.65993 615.925401 102.327548 
C 616.257783 101.995165 616.44454 101.544294 616.44454 101.074233 
C 616.44454 100.604173 616.257783 100.153302 615.925401 99.820919 
C 615.593018 99.488536 615.142147 99.30178 614.672086 99.30178 
C 614.202026 99.30178 613.751155 99.488536 613.418772 99.820919 
C 613.086389 100.153302 612.899633 100.604173 612.899633 101.074233 
C 612.899633 101.544294 613.086389 101.995165 613.418772 102.327548 
C 613.751155 102.65993 614.202026 102.846687 614.672086 102.846687 
z
" clip-path="url(#p703be1417d)" style="stroke: #000000; stroke-width: 0.886227"/>
    <path d="M 622.217162 102.846687 
C 622.687222 102.846687 623.138093 102.65993 623.470476 102.327548 
C 623.802859 101.995165 623.989616 101.544294 623.989616 101.074233 
C 623.989616 100.604173 623.802859 100.153302 623.470476 99.820919 
C 623.138093 99.488536 622.687222 99.30178 622.217162 99.30178 
C 621.747102 99.30178 621.296231 99.488536 620.963848 99.820919 
C 620.631465 100.153302 620.444708 100.604173 620.444708 101.074233 
C 620.444708 101.544294 620.631465 101.995165 620.963848 102.327548 
C 621.296231 102.65993 621.747102 102.846687 622.217162 102.846687 
z
" clip-path="url(#p703be1417d)" style="stroke: #000000; stroke-width: 0.886227"/>
    <path d="M 629.762238 102.846687 
C 630.232298 102.846687 630.683169 102.65993 631.015552 102.327548 
C 631.347935 101.995165 631.534692 101.544294 631.534692 101.074233 
C 631.534692 100.604173 631.347935 100.153302 631.015552 99.820919 
C 630.683169 99.488536 630.232298 99.30178 629.762238 99.30178 
C 629.292177 99.30178 628.841306 99.488536 628.508924 99.820919 
C 628.176541 100.153302 627.989784 100.604173 627.989784 101.074233 
C 627.989784 101.544294 628.176541 101.995165 628.508924 102.327548 
C 628.841306 102.65993 629.292177 102.846687 629.762238 102.846687 
z
" clip-path="url(#p703be1417d)" style="stroke: #000000; stroke-width: 0.886227"/>
    <path d="M 637.307313 102.846687 
C 637.777374 102.846687 638.228245 102.65993 638.560628 102.327548 
C 638.89301 101.995165 639.079767 101.544294 639.079767 101.074233 
C 639.079767 100.604173 638.89301 100.153302 638.560628 99.820919 
C 638.228245 99.488536 637.777374 99.30178 637.307313 99.30178 
C 636.837253 99.30178 636.386382 99.488536 636.053999 99.820919 
C 635.721616 100.153302 635.53486 100.604173 635.53486 101.074233 
C 635.53486 101.544294 635.721616 101.995165 636.053999 102.327548 
C 636.386382 102.65993 636.837253 102.846687 637.307313 102.846687 
z
" clip-path="url(#p703be1417d)" style="stroke: #000000; stroke-width: 0.886227"/>
    <path d="M 644.852389 102.846687 
C 645.322449 102.846687 645.77332 102.65993 646.105703 102.327548 
C 646.438086 101.995165 646.624843 101.544294 646.624843 101.074233 
C 646.624843 100.604173 646.438086 100.153302 646.105703 99.820919 
C 645.77332 99.488536 645.322449 99.30178 644.852389 99.30178 
C 644.382329 99.30178 643.931458 99.488536 643.599075 99.820919 
C 643.266692 100.153302 643.079935 100.604173 643.079935 101.074233 
C 643.079935 101.544294 643.266692 101.995165 643.599075 102.327548 
C 643.931458 102.65993 644.382329 102.846687 644.852389 102.846687 
z
" clip-path="url(#p703be1417d)" style="stroke: #000000; stroke-width: 0.886227"/>
    <path d="M 652.397465 102.846687 
C 652.867525 102.846687 653.318396 102.65993 653.650779 102.327548 
C 653.983162 101.995165 654.169919 101.544294 654.169919 101.074233 
C 654.169919 100.604173 653.983162 100.153302 653.650779 99.820919 
C 653.318396 99.488536 652.867525 99.30178 652.397465 99.30178 
C 651.927404 99.30178 651.476533 99.488536 651.144151 99.820919 
C 650.811768 100.153302 650.625011 100.604173 650.625011 101.074233 
C 650.625011 101.544294 650.811768 101.995165 651.144151 102.327548 
C 651.476533 102.65993 651.927404 102.846687 652.397465 102.846687 
z
" clip-path="url(#p703be1417d)" style="stroke: #000000; stroke-width: 0.886227"/>
    <path d="M 659.94254 89.140777 
C 660.412601 89.140777 660.863472 88.95402 661.195855 88.621637 
C 661.528237 88.289254 661.714994 87.838383 661.714994 87.368323 
C 661.714994 86.898263 661.528237 86.447392 661.195855 86.115009 
C 660.863472 85.782626 660.412601 85.595869 659.94254 85.595869 
C 659.47248 85.595869 659.021609 85.782626 658.689226 86.115009 
C 658.356843 86.447392 658.170087 86.898263 658.170087 87.368323 
C 658.170087 87.838383 658.356843 88.289254 658.689226 88.621637 
C 659.021609 88.95402 659.47248 89.140777 659.94254 89.140777 
z
" clip-path="url(#p703be1417d)" style="stroke: #000000; stroke-width: 0.886227"/>
    <path d="M 667.487616 89.140777 
C 667.957676 89.140777 668.408547 88.95402 668.74093 88.621637 
C 669.073313 88.289254 669.26007 87.838383 669.26007 87.368323 
C 669.26007 86.898263 669.073313 86.447392 668.74093 86.115009 
C 668.408547 85.782626 667.957676 85.595869 667.487616 85.595869 
C 667.017556 85.595869 666.566685 85.782626 666.234302 86.115009 
C 665.901919 86.447392 665.715162 86.898263 665.715162 87.368323 
C 665.715162 87.838383 665.901919 88.289254 666.234302 88.621637 
C 666.566685 88.95402 667.017556 89.140777 667.487616 89.140777 
z
" clip-path="url(#p703be1417d)" style="stroke: #000000; stroke-width: 0.886227"/>
    <path d="M 675.032692 89.140777 
C 675.502752 89.140777 675.953623 88.95402 676.286006 88.621637 
C 676.618389 88.289254 676.805146 87.838383 676.805146 87.368323 
C 676.805146 86.898263 676.618389 86.447392 676.286006 86.115009 
C 675.953623 85.782626 675.502752 85.595869 675.032692 85.595869 
C 674.562631 85.595869 674.11176 85.782626 673.779378 86.115009 
C 673.446995 86.447392 673.260238 86.898263 673.260238 87.368323 
C 673.260238 87.838383 673.446995 88.289254 673.779378 88.621637 
C 674.11176 88.95402 674.562631 89.140777 675.032692 89.140777 
z
" clip-path="url(#p703be1417d)" style="stroke: #000000; stroke-width: 0.886227"/>
    <path d="M 682.577767 89.140777 
C 683.047828 89.140777 683.498699 88.95402 683.831082 88.621637 
C 684.163464 88.289254 684.350221 87.838383 684.350221 87.368323 
C 684.350221 86.898263 684.163464 86.447392 683.831082 86.115009 
C 683.498699 85.782626 683.047828 85.595869 682.577767 85.595869 
C 682.107707 85.595869 681.656836 85.782626 681.324453 86.115009 
C 680.99207 86.447392 680.805314 86.898263 680.805314 87.368323 
C 680.805314 87.838383 680.99207 88.289254 681.324453 88.621637 
C 681.656836 88.95402 682.107707 89.140777 682.577767 89.140777 
z
" clip-path="url(#p703be1417d)" style="stroke: #000000; stroke-width: 0.886227"/>
    <path d="M 690.122843 75.434867 
C 690.592903 75.434867 691.043774 75.24811 691.376157 74.915727 
C 691.70854 74.583344 691.895297 74.132473 691.895297 73.662413 
C 691.895297 73.192353 691.70854 72.741482 691.376157 72.409099 
C 691.043774 72.076716 690.592903 71.889959 690.122843 71.889959 
C 689.652783 71.889959 689.201912 72.076716 688.869529 72.409099 
C 688.537146 72.741482 688.350389 73.192353 688.350389 73.662413 
C 688.350389 74.132473 688.537146 74.583344 688.869529 74.915727 
C 689.201912 75.24811 689.652783 75.434867 690.122843 75.434867 
z
" clip-path="url(#p703be1417d)" style="stroke: #000000; stroke-width: 0.886227"/>
    <path d="M 697.667919 75.434867 
C 698.137979 75.434867 698.58885 75.24811 698.921233 74.915727 
C 699.253616 74.583344 699.440373 74.132473 699.440373 73.662413 
C 699.440373 73.192353 699.253616 72.741482 698.921233 72.409099 
C 698.58885 72.076716 698.137979 71.889959 697.667919 71.889959 
C 697.197858 71.889959 696.746987 72.076716 696.414605 72.409099 
C 696.082222 72.741482 695.895465 73.192353 695.895465 73.662413 
C 695.895465 74.132473 696.082222 74.583344 696.414605 74.915727 
C 696.746987 75.24811 697.197858 75.434867 697.667919 75.434867 
z
" clip-path="url(#p703be1417d)" style="stroke: #000000; stroke-width: 0.886227"/>
    <path d="M 705.212994 75.434867 
C 705.683055 75.434867 706.133926 75.24811 706.466308 74.915727 
C 706.798691 74.583344 706.985448 74.132473 706.985448 73.662413 
C 706.985448 73.192353 706.798691 72.741482 706.466308 72.409099 
C 706.133926 72.076716 705.683055 71.889959 705.212994 71.889959 
C 704.742934 71.889959 704.292063 72.076716 703.95968 72.409099 
C 703.627297 72.741482 703.44054 73.192353 703.44054 73.662413 
C 703.44054 74.132473 703.627297 74.583344 703.95968 74.915727 
C 704.292063 75.24811 704.742934 75.434867 705.212994 75.434867 
z
" clip-path="url(#p703be1417d)" style="stroke: #000000; stroke-width: 0.886227"/>
    <path d="M 712.75807 75.434867 
C 713.22813 75.434867 713.679001 75.24811 714.011384 74.915727 
C 714.343767 74.583344 714.530524 74.132473 714.530524 73.662413 
C 714.530524 73.192353 714.343767 72.741482 714.011384 72.409099 
C 713.679001 72.076716 713.22813 71.889959 712.75807 71.889959 
C 712.28801 71.889959 711.837139 72.076716 711.504756 72.409099 
C 711.172373 72.741482 710.985616 73.192353 710.985616 73.662413 
C 710.985616 74.132473 711.172373 74.583344 711.504756 74.915727 
C 711.837139 75.24811 712.28801 75.434867 712.75807 75.434867 
z
" clip-path="url(#p703be1417d)" style="stroke: #000000; stroke-width: 0.886227"/>
    <path d="M 720.303146 75.434867 
C 720.773206 75.434867 721.224077 75.24811 721.55646 74.915727 
C 721.888843 74.583344 722.0756 74.132473 722.0756 73.662413 
C 722.0756 73.192353 721.888843 72.741482 721.55646 72.409099 
C 721.224077 72.076716 720.773206 71.889959 720.303146 71.889959 
C 719.833085 71.889959 719.382214 72.076716 719.049832 72.409099 
C 718.717449 72.741482 718.530692 73.192353 718.530692 73.662413 
C 718.530692 74.132473 718.717449 74.583344 719.049832 74.915727 
C 719.382214 75.24811 719.833085 75.434867 720.303146 75.434867 
z
" clip-path="url(#p703be1417d)" style="stroke: #000000; stroke-width: 0.886227"/>
    <path d="M 727.848221 75.434867 
C 728.318282 75.434867 728.769153 75.24811 729.101535 74.915727 
C 729.433918 74.583344 729.620675 74.132473 729.620675 73.662413 
C 729.620675 73.192353 729.433918 72.741482 729.101535 72.409099 
C 728.769153 72.076716 728.318282 71.889959 727.848221 71.889959 
C 727.378161 71.889959 726.92729 72.076716 726.594907 72.409099 
C 726.262524 72.741482 726.075767 73.192353 726.075767 73.662413 
C 726.075767 74.132473 726.262524 74.583344 726.594907 74.915727 
C 726.92729 75.24811 727.378161 75.434867 727.848221 75.434867 
z
" clip-path="url(#p703be1417d)" style="stroke: #000000; stroke-width: 0.886227"/>
    <path d="M 735.393297 61.728956 
C 735.863357 61.728956 736.314228 61.5422 736.646611 61.209817 
C 736.978994 60.877434 737.165751 60.426563 737.165751 59.956503 
C 737.165751 59.486442 736.978994 59.035571 736.646611 58.703188 
C 736.314228 58.370806 735.863357 58.184049 735.393297 58.184049 
C 734.923237 58.184049 734.472366 58.370806 734.139983 58.703188 
C 733.8076 59.035571 733.620843 59.486442 733.620843 59.956503 
C 733.620843 60.426563 733.8076 60.877434 734.139983 61.209817 
C 734.472366 61.5422 734.923237 61.728956 735.393297 61.728956 
z
" clip-path="url(#p703be1417d)" style="stroke: #000000; stroke-width: 0.886227"/>
    <path d="M 742.938373 61.728956 
C 743.408433 61.728956 743.859304 61.5422 744.191687 61.209817 
C 744.52407 60.877434 744.710827 60.426563 744.710827 59.956503 
C 744.710827 59.486442 744.52407 59.035571 744.191687 58.703188 
C 743.859304 58.370806 743.408433 58.184049 742.938373 58.184049 
C 742.468312 58.184049 742.017441 58.370806 741.685059 58.703188 
C 741.352676 59.035571 741.165919 59.486442 741.165919 59.956503 
C 741.165919 60.426563 741.352676 60.877434 741.685059 61.209817 
C 742.017441 61.5422 742.468312 61.728956 742.938373 61.728956 
z
" clip-path="url(#p703be1417d)" style="stroke: #000000; stroke-width: 0.886227"/>
    <path d="M 750.483448 61.728956 
C 750.953509 61.728956 751.40438 61.5422 751.736762 61.209817 
C 752.069145 60.877434 752.255902 60.426563 752.255902 59.956503 
C 752.255902 59.486442 752.069145 59.035571 751.736762 58.703188 
C 751.40438 58.370806 750.953509 58.184049 750.483448 58.184049 
C 750.013388 58.184049 749.562517 58.370806 749.230134 58.703188 
C 748.897751 59.035571 748.710994 59.486442 748.710994 59.956503 
C 748.710994 60.426563 748.897751 60.877434 749.230134 61.209817 
C 749.562517 61.5422 750.013388 61.728956 750.483448 61.728956 
z
" clip-path="url(#p703be1417d)" style="stroke: #000000; stroke-width: 0.886227"/>
    <path d="M 758.028524 61.728956 
C 758.498584 61.728956 758.949455 61.5422 759.281838 61.209817 
C 759.614221 60.877434 759.800978 60.426563 759.800978 59.956503 
C 759.800978 59.486442 759.614221 59.035571 759.281838 58.703188 
C 758.949455 58.370806 758.498584 58.184049 758.028524 58.184049 
C 757.558464 58.184049 757.107593 58.370806 756.77521 58.703188 
C 756.442827 59.035571 756.25607 59.486442 756.25607 59.956503 
C 756.25607 60.426563 756.442827 60.877434 756.77521 61.209817 
C 757.107593 61.5422 757.558464 61.728956 758.028524 61.728956 
z
" clip-path="url(#p703be1417d)" style="stroke: #000000; stroke-width: 0.886227"/>
    <path d="M 765.5736 61.728956 
C 766.04366 61.728956 766.494531 61.5422 766.826914 61.209817 
C 767.159297 60.877434 767.346053 60.426563 767.346053 59.956503 
C 767.346053 59.486442 767.159297 59.035571 766.826914 58.703188 
C 766.494531 58.370806 766.04366 58.184049 765.5736 58.184049 
C 765.103539 58.184049 764.652668 58.370806 764.320285 58.703188 
C 763.987903 59.035571 763.801146 59.486442 763.801146 59.956503 
C 763.801146 60.426563 763.987903 60.877434 764.320285 61.209817 
C 764.652668 61.5422 765.103539 61.728956 765.5736 61.728956 
z
" clip-path="url(#p703be1417d)" style="stroke: #000000; stroke-width: 0.886227"/>
    <path d="M 773.118675 61.728956 
C 773.588736 61.728956 774.039607 61.5422 774.371989 61.209817 
C 774.704372 60.877434 774.891129 60.426563 774.891129 59.956503 
C 774.891129 59.486442 774.704372 59.035571 774.371989 58.703188 
C 774.039607 58.370806 773.588736 58.184049 773.118675 58.184049 
C 772.648615 58.184049 772.197744 58.370806 771.865361 58.703188 
C 771.532978 59.035571 771.346221 59.486442 771.346221 59.956503 
C 771.346221 60.426563 771.532978 60.877434 771.865361 61.209817 
C 772.197744 61.5422 772.648615 61.728956 773.118675 61.728956 
z
" clip-path="url(#p703be1417d)" style="stroke: #000000; stroke-width: 0.886227"/>
    <path d="M 780.663751 61.728956 
C 781.133811 61.728956 781.584682 61.5422 781.917065 61.209817 
C 782.249448 60.877434 782.436205 60.426563 782.436205 59.956503 
C 782.436205 59.486442 782.249448 59.035571 781.917065 58.703188 
C 781.584682 58.370806 781.133811 58.184049 780.663751 58.184049 
C 780.193691 58.184049 779.74282 58.370806 779.410437 58.703188 
C 779.078054 59.035571 778.891297 59.486442 778.891297 59.956503 
C 778.891297 60.426563 779.078054 60.877434 779.410437 61.209817 
C 779.74282 61.5422 780.193691 61.728956 780.663751 61.728956 
z
" clip-path="url(#p703be1417d)" style="stroke: #000000; stroke-width: 0.886227"/>
    <path d="M 788.208827 61.728956 
C 788.678887 61.728956 789.129758 61.5422 789.462141 61.209817 
C 789.794524 60.877434 789.98128 60.426563 789.98128 59.956503 
C 789.98128 59.486442 789.794524 59.035571 789.462141 58.703188 
C 789.129758 58.370806 788.678887 58.184049 788.208827 58.184049 
C 787.738766 58.184049 787.287895 58.370806 786.955512 58.703188 
C 786.62313 59.035571 786.436373 59.486442 786.436373 59.956503 
C 786.436373 60.426563 786.62313 60.877434 786.955512 61.209817 
C 787.287895 61.5422 787.738766 61.728956 788.208827 61.728956 
z
" clip-path="url(#p703be1417d)" style="stroke: #000000; stroke-width: 0.886227"/>
    <path d="M 795.753902 48.023046 
C 796.223963 48.023046 796.674834 47.836289 797.007216 47.503906 
C 797.339599 47.171524 797.526356 46.720653 797.526356 46.250592 
C 797.526356 45.780532 797.339599 45.329661 797.007216 44.997278 
C 796.674834 44.664895 796.223963 44.478138 795.753902 44.478138 
C 795.283842 44.478138 794.832971 44.664895 794.500588 44.997278 
C 794.168205 45.329661 793.981448 45.780532 793.981448 46.250592 
C 793.981448 46.720653 794.168205 47.171524 794.500588 47.503906 
C 794.832971 47.836289 795.283842 48.023046 795.753902 48.023046 
z
" clip-path="url(#p703be1417d)" style="stroke: #000000; stroke-width: 0.886227"/>
    <path d="M 803.298978 48.023046 
C 803.769038 48.023046 804.219909 47.836289 804.552292 47.503906 
C 804.884675 47.171524 805.071432 46.720653 805.071432 46.250592 
C 805.071432 45.780532 804.884675 45.329661 804.552292 44.997278 
C 804.219909 44.664895 803.769038 44.478138 803.298978 44.478138 
C 802.828918 44.478138 802.378047 44.664895 802.045664 44.997278 
C 801.713281 45.329661 801.526524 45.780532 801.526524 46.250592 
C 801.526524 46.720653 801.713281 47.171524 802.045664 47.503906 
C 802.378047 47.836289 802.828918 48.023046 803.298978 48.023046 
z
" clip-path="url(#p703be1417d)" style="stroke: #000000; stroke-width: 0.886227"/>
    <path d="M 810.844054 48.023046 
C 811.314114 48.023046 811.764985 47.836289 812.097368 47.503906 
C 812.429751 47.171524 812.616507 46.720653 812.616507 46.250592 
C 812.616507 45.780532 812.429751 45.329661 812.097368 44.997278 
C 811.764985 44.664895 811.314114 44.478138 810.844054 44.478138 
C 810.373993 44.478138 809.923122 44.664895 809.590739 44.997278 
C 809.258357 45.329661 809.0716 45.780532 809.0716 46.250592 
C 809.0716 46.720653 809.258357 47.171524 809.590739 47.503906 
C 809.923122 47.836289 810.373993 48.023046 810.844054 48.023046 
z
" clip-path="url(#p703be1417d)" style="stroke: #000000; stroke-width: 0.886227"/>
    <path d="M 818.389129 48.023046 
C 818.85919 48.023046 819.310061 47.836289 819.642443 47.503906 
C 819.974826 47.171524 820.161583 46.720653 820.161583 46.250592 
C 820.161583 45.780532 819.974826 45.329661 819.642443 44.997278 
C 819.310061 44.664895 818.85919 44.478138 818.389129 44.478138 
C 817.919069 44.478138 817.468198 44.664895 817.135815 44.997278 
C 816.803432 45.329661 816.616675 45.780532 816.616675 46.250592 
C 816.616675 46.720653 816.803432 47.171524 817.135815 47.503906 
C 817.468198 47.836289 817.919069 48.023046 818.389129 48.023046 
z
" clip-path="url(#p703be1417d)" style="stroke: #000000; stroke-width: 0.886227"/>
   </g>
  </g>
  <g id="patch_3">
   <path d="M 42.000844 391.639531 
L 855.36 391.639531 
L 855.36 29.8035 
L 42.000844 29.8035 
L 42.000844 391.639531 
z
" style="fill: none; stroke: #7f7f7f; stroke-linejoin: miter"/>
  </g>
  <g id="text_12">
   <!-- Prime counting function -->
   <g transform="translate(379.713516 18.243) scale(0.132 -0.132)">
    <defs>
     <path id="Helvetica-50" d="M 547 4591 
L 2613 4591 
Q 3225 4591 3600 4245 
Q 3975 3900 3975 3275 
Q 3975 2738 3640 2339 
Q 3306 1941 2613 1941 
L 1169 1941 
L 1169 0 
L 547 0 
L 547 4591 
z
M 3347 3272 
Q 3347 3778 2972 3959 
Q 2766 4056 2406 4056 
L 1169 4056 
L 1169 2466 
L 2406 2466 
Q 2825 2466 3086 2644 
Q 3347 2822 3347 3272 
z
" transform="scale(0.015625)"/>
     <path id="Helvetica-72" d="M 428 3347 
L 963 3347 
L 963 2769 
Q 1028 2938 1284 3180 
Q 1541 3422 1875 3422 
Q 1891 3422 1928 3419 
Q 1966 3416 2056 3406 
L 2056 2813 
Q 2006 2822 1964 2825 
Q 1922 2828 1872 2828 
Q 1447 2828 1219 2554 
Q 991 2281 991 1925 
L 991 0 
L 428 0 
L 428 3347 
z
" transform="scale(0.015625)"/>
     <path id="Helvetica-69" d="M 413 3331 
L 984 3331 
L 984 0 
L 413 0 
L 413 3331 
z
M 413 4591 
L 984 4591 
L 984 3953 
L 413 3953 
L 413 4591 
z
" transform="scale(0.015625)"/>
     <path id="Helvetica-6d" d="M 413 3347 
L 969 3347 
L 969 2872 
Q 1169 3119 1331 3231 
Q 1609 3422 1963 3422 
Q 2363 3422 2606 3225 
Q 2744 3113 2856 2894 
Q 3044 3163 3297 3292 
Q 3550 3422 3866 3422 
Q 4541 3422 4784 2934 
Q 4916 2672 4916 2228 
L 4916 0 
L 4331 0 
L 4331 2325 
Q 4331 2659 4164 2784 
Q 3997 2909 3756 2909 
Q 3425 2909 3186 2687 
Q 2947 2466 2947 1947 
L 2947 0 
L 2375 0 
L 2375 2184 
Q 2375 2525 2294 2681 
Q 2166 2916 1816 2916 
Q 1497 2916 1236 2669 
Q 975 2422 975 1775 
L 975 0 
L 413 0 
L 413 3347 
z
" transform="scale(0.015625)"/>
     <path id="Helvetica-65" d="M 1806 3422 
Q 2163 3422 2497 3255 
Q 2831 3088 3006 2822 
Q 3175 2569 3231 2231 
Q 3281 2000 3281 1494 
L 828 1494 
Q 844 984 1069 676 
Q 1294 369 1766 369 
Q 2206 369 2469 659 
Q 2619 828 2681 1050 
L 3234 1050 
Q 3213 866 3089 639 
Q 2966 413 2813 269 
Q 2556 19 2178 -69 
Q 1975 -119 1719 -119 
Q 1094 -119 659 336 
Q 225 791 225 1609 
Q 225 2416 662 2919 
Q 1100 3422 1806 3422 
z
M 2703 1941 
Q 2669 2306 2544 2525 
Q 2313 2931 1772 2931 
Q 1384 2931 1121 2651 
Q 859 2372 844 1941 
L 2703 1941 
z
M 1753 3428 
L 1753 3428 
z
" transform="scale(0.015625)"/>
     <path id="Helvetica-20" transform="scale(0.015625)"/>
     <path id="Helvetica-63" d="M 1703 3444 
Q 2269 3444 2623 3169 
Q 2978 2894 3050 2222 
L 2503 2222 
Q 2453 2531 2275 2736 
Q 2097 2941 1703 2941 
Q 1166 2941 934 2416 
Q 784 2075 784 1575 
Q 784 1072 996 728 
Q 1209 384 1666 384 
Q 2016 384 2220 598 
Q 2425 813 2503 1184 
L 3050 1184 
Q 2956 519 2581 211 
Q 2206 -97 1622 -97 
Q 966 -97 575 383 
Q 184 863 184 1581 
Q 184 2463 612 2953 
Q 1041 3444 1703 3444 
z
M 1616 3428 
L 1616 3428 
z
" transform="scale(0.015625)"/>
     <path id="Helvetica-6f" d="M 1741 363 
Q 2300 363 2508 786 
Q 2716 1209 2716 1728 
Q 2716 2197 2566 2491 
Q 2328 2953 1747 2953 
Q 1231 2953 997 2559 
Q 763 2166 763 1609 
Q 763 1075 997 719 
Q 1231 363 1741 363 
z
M 1763 3444 
Q 2409 3444 2856 3012 
Q 3303 2581 3303 1744 
Q 3303 934 2909 406 
Q 2516 -122 1688 -122 
Q 997 -122 590 345 
Q 184 813 184 1600 
Q 184 2444 612 2944 
Q 1041 3444 1763 3444 
z
M 1744 3428 
L 1744 3428 
z
" transform="scale(0.015625)"/>
     <path id="Helvetica-75" d="M 975 3347 
L 975 1125 
Q 975 869 1056 706 
Q 1206 406 1616 406 
Q 2203 406 2416 931 
Q 2531 1213 2531 1703 
L 2531 3347 
L 3094 3347 
L 3094 0 
L 2563 0 
L 2569 494 
Q 2459 303 2297 172 
Q 1975 -91 1516 -91 
Q 800 -91 541 388 
Q 400 644 400 1072 
L 400 3347 
L 975 3347 
z
M 1747 3428 
L 1747 3428 
z
" transform="scale(0.015625)"/>
     <path id="Helvetica-6e" d="M 413 3347 
L 947 3347 
L 947 2872 
Q 1184 3166 1450 3294 
Q 1716 3422 2041 3422 
Q 2753 3422 3003 2925 
Q 3141 2653 3141 2147 
L 3141 0 
L 2569 0 
L 2569 2109 
Q 2569 2416 2478 2603 
Q 2328 2916 1934 2916 
Q 1734 2916 1606 2875 
Q 1375 2806 1200 2600 
Q 1059 2434 1017 2257 
Q 975 2081 975 1753 
L 975 0 
L 413 0 
L 413 3347 
z
M 1734 3428 
L 1734 3428 
z
" transform="scale(0.015625)"/>
     <path id="Helvetica-74" d="M 525 4281 
L 1094 4281 
L 1094 3347 
L 1628 3347 
L 1628 2888 
L 1094 2888 
L 1094 703 
Q 1094 528 1213 469 
Q 1278 434 1431 434 
Q 1472 434 1519 436 
Q 1566 438 1628 444 
L 1628 0 
Q 1531 -28 1426 -40 
Q 1322 -53 1200 -53 
Q 806 -53 665 148 
Q 525 350 525 672 
L 525 2888 
L 72 2888 
L 72 3347 
L 525 3347 
L 525 4281 
z
" transform="scale(0.015625)"/>
     <path id="Helvetica-67" d="M 1594 3406 
Q 1988 3406 2281 3213 
Q 2441 3103 2606 2894 
L 2606 3316 
L 3125 3316 
L 3125 272 
Q 3125 -366 2938 -734 
Q 2588 -1416 1616 -1416 
Q 1075 -1416 706 -1173 
Q 338 -931 294 -416 
L 866 -416 
Q 906 -641 1028 -763 
Q 1219 -950 1628 -950 
Q 2275 -950 2475 -494 
Q 2594 -225 2584 466 
Q 2416 209 2178 84 
Q 1941 -41 1550 -41 
Q 1006 -41 598 345 
Q 191 731 191 1622 
Q 191 2463 602 2934 
Q 1013 3406 1594 3406 
z
M 2606 1688 
Q 2606 2309 2350 2609 
Q 2094 2909 1697 2909 
Q 1103 2909 884 2353 
Q 769 2056 769 1575 
Q 769 1009 998 714 
Q 1228 419 1616 419 
Q 2222 419 2469 966 
Q 2606 1275 2606 1688 
z
M 1659 3428 
L 1659 3428 
z
" transform="scale(0.015625)"/>
     <path id="Helvetica-66" d="M 553 3856 
Q 566 4206 675 4369 
Q 872 4656 1434 4656 
Q 1488 4656 1544 4653 
Q 1600 4650 1672 4644 
L 1672 4131 
Q 1584 4138 1545 4139 
Q 1506 4141 1472 4141 
Q 1216 4141 1166 4008 
Q 1116 3875 1116 3331 
L 1672 3331 
L 1672 2888 
L 1109 2888 
L 1109 0 
L 553 0 
L 553 2888 
L 88 2888 
L 88 3331 
L 553 3331 
L 553 3856 
z
" transform="scale(0.015625)"/>
    </defs>
    <use xlink:href="#Helvetica-50"/>
    <use xlink:href="#Helvetica-72" transform="translate(66.699219 0)"/>
    <use xlink:href="#Helvetica-69" transform="translate(100 0)"/>
    <use xlink:href="#Helvetica-6d" transform="translate(122.216797 0)"/>
    <use xlink:href="#Helvetica-65" transform="translate(205.517578 0)"/>
    <use xlink:href="#Helvetica-20" transform="translate(261.132812 0)"/>
    <use xlink:href="#Helvetica-63" transform="translate(288.916016 0)"/>
    <use xlink:href="#Helvetica-6f" transform="translate(338.916016 0)"/>
    <use xlink:href="#Helvetica-75" transform="translate(394.53125 0)"/>
    <use xlink:href="#Helvetica-6e" transform="translate(450.146484 0)"/>
    <use xlink:href="#Helvetica-74" transform="translate(505.761719 0)"/>
    <use xlink:href="#Helvetica-69" transform="translate(533.544922 0)"/>
    <use xlink:href="#Helvetica-6e" transform="translate(555.761719 0)"/>
    <use xlink:href="#Helvetica-67" transform="translate(611.376953 0)"/>
    <use xlink:href="#Helvetica-20" transform="translate(666.992188 0)"/>
    <use xlink:href="#Helvetica-66" transform="translate(694.775391 0)"/>
    <use xlink:href="#Helvetica-75" transform="translate(722.558594 0)"/>
    <use xlink:href="#Helvetica-6e" transform="translate(778.173828 0)"/>
    <use xlink:href="#Helvetica-63" transform="translate(833.789062 0)"/>
    <use xlink:href="#Helvetica-74" transform="translate(883.789062 0)"/>
    <use xlink:href="#Helvetica-69" transform="translate(911.572266 0)"/>
    <use xlink:href="#Helvetica-6f" transform="translate(933.789062 0)"/>
    <use xlink:href="#Helvetica-6e" transform="translate(989.404297 0)"/>
   </g>
  </g>
  <g id="text_13">
   <!-- $N$ -->
   <g transform="translate(444.555422 421.067187) scale(0.11 -0.11)">
    <defs>
     <path id="DejaVuSans-Oblique-4e" d="M 1081 4666 
L 1931 4666 
L 3219 666 
L 4000 4666 
L 4616 4666 
L 3706 0 
L 2853 0 
L 1569 4025 
L 788 0 
L 172 0 
L 1081 4666 
z
" transform="scale(0.015625)"/>
    </defs>
    <use xlink:href="#DejaVuSans-Oblique-4e" transform="translate(0 0.09375)"/>
   </g>
  </g>
  <g id="text_14">
   <!-- $\pi(N)$ -->
   <g transform="translate(16.530781 222.491516) rotate(-90) scale(0.11 -0.11)">
    <defs>
     <path id="DejaVuSans-Oblique-3c0" d="M 584 3500 
L 3938 3500 
L 3825 2925 
L 3384 2925 
L 2966 775 
Q 2922 550 2981 450 
Q 3038 353 3209 353 
Q 3256 353 3325 363 
Q 3397 369 3419 372 
L 3338 -44 
Q 3222 -84 3103 -103 
Q 2981 -122 2866 -122 
Q 2491 -122 2388 81 
Q 2284 288 2391 838 
L 2797 2925 
L 1506 2925 
L 938 0 
L 350 0 
L 919 2925 
L 472 2925 
L 584 3500 
z
" transform="scale(0.015625)"/>
     <path id="DejaVuSans-28" d="M 1984 4856 
Q 1566 4138 1362 3434 
Q 1159 2731 1159 2009 
Q 1159 1288 1364 580 
Q 1569 -128 1984 -844 
L 1484 -844 
Q 1016 -109 783 600 
Q 550 1309 550 2009 
Q 550 2706 781 3412 
Q 1013 4119 1484 4856 
L 1984 4856 
z
" transform="scale(0.015625)"/>
     <path id="DejaVuSans-29" d="M 513 4856 
L 1013 4856 
Q 1481 4119 1714 3412 
Q 1947 2706 1947 2009 
Q 1947 1309 1714 600 
Q 1481 -109 1013 -844 
L 513 -844 
Q 928 -128 1133 580 
Q 1338 1288 1338 2009 
Q 1338 2731 1133 3434 
Q 928 4138 513 4856 
z
" transform="scale(0.015625)"/>
    </defs>
    <use xlink:href="#DejaVuSans-Oblique-3c0" transform="translate(0 0.125)"/>
    <use xlink:href="#DejaVuSans-28" transform="translate(60.205078 0.125)"/>
    <use xlink:href="#DejaVuSans-Oblique-4e" transform="translate(99.21875 0.125)"/>
    <use xlink:href="#DejaVuSans-29" transform="translate(174.023438 0.125)"/>
   </g>
  </g>
 </g>
 <defs>
  <clipPath id="p703be1417d">
   <rect x="42.000844" y="29.8035" width="813.359156" height="361.836031"/>
  </clipPath>
 </defs>
</svg>
